<?xml version="1.0" ?>
<!-- Uploaded to: SVG Repo, www.svgrepo.com, Generator: SVG Repo Mixer Tools -->
<svg width="800px" height="800px" viewBox="-92.47 0 507.19 507.19" xmlns="http://www.w3.org/2000/svg">
<defs>
<style>.cls-1{fill:#173156;}</style>
</defs>
<title/>
<g data-name="Capa 2" id="Capa_2">
<g id="Outline">
<g id="Avocado">
<path class="cls-1" d="M302.93,269.49,247.87,111.83a88,88,0,0,0-82.72-73.07C167.73,18.1,179,6.06,179.1,5.93a3.5,3.5,0,0,0-5-4.86c-.6.63-13.35,14.14-16,37.66a88,88,0,0,0-83.72,73.1L19.32,269.49A161.37,161.37,0,0,0,0,346.06c0,88.85,72.28,161.13,161.13,161.13s161.13-72.28,161.13-161.13A161.27,161.27,0,0,0,302.93,269.49Zm-141.8,220.7C81.66,490.19,17,425.53,17,346.06A144.2,144.2,0,0,1,34.59,277a9,9,0,0,0,.64-1.5L90.68,116.74a9,9,0,0,0,.36-1.45,71,71,0,0,1,140.17,0,8.12,8.12,0,0,0,.37,1.45L287,275.47a8.71,8.71,0,0,0,.66,1.54,144.31,144.31,0,0,1,17.59,69.05C305.26,425.53,240.6,490.19,161.13,490.19Z"/>
<path class="cls-1" d="M161.13,264.43a88.65,88.65,0,1,0,88.64,88.64A88.74,88.74,0,0,0,161.13,264.43Zm0,160.29a71.65,71.65,0,1,1,71.64-71.65A71.73,71.73,0,0,1,161.13,424.72Z"/>
<path class="cls-1" d="M206.05,379.53A48.55,48.55,0,0,1,179,405.82a3.5,3.5,0,0,0,1.25,6.77,3.62,3.62,0,0,0,1.24-.23,55.67,55.67,0,0,0,31.05-30.15,3.5,3.5,0,0,0-6.47-2.68Z"/>
</g>
</g>
</g>
</svg>