<?xml version="1.0" ?>
<!-- Uploaded to: SVG Repo, www.svgrepo.com, Generator: SVG Repo Mixer Tools -->
<svg width="800px" height="800px" viewBox="0 0 486.03 486.03" xmlns="http://www.w3.org/2000/svg">
<defs>
<style>.cls-1{fill:#173156;}</style>
</defs>
<title/>
<g data-name="Capa 2" id="Capa_2">
<g id="Outline">
<g id="Donut">
<path class="cls-1" d="M173,243a70,70,0,1,0,70-70A70.09,70.09,0,0,0,173,243Zm70-53a53,53,0,1,1-53,53A53.07,53.07,0,0,1,243,190Z"/>
<path class="cls-1" d="M414.85,71.18A243,243,0,0,0,0,243,244.94,244.94,0,0,0,5.26,293.6,7.64,7.64,0,0,0,5.55,295a243.07,243.07,0,0,0,409.3,119.89,243,243,0,0,0,0-343.67ZM83.2,83.2A226,226,0,0,1,469,243a227.62,227.62,0,0,1-6.18,52.78,51.83,51.83,0,0,0-35,15.87c-11.29,11.47-12.27,21.83-13.07,30.16S413.45,356.26,402,365c-4.7,3.58-14,4-23.92,4.4-11.14.47-23.76,1-34.46,6.42-8.68,4.38-15.34,12.66-21.78,20.67-6.8,8.46-13.83,17.21-21.89,19.27-6.79,1.74-16.07-2.15-25.89-6.27S253.79,401,243,401s-21,4.31-31,8.47-19.1,8-25.89,6.27c-8.06-2.06-15.1-10.81-21.89-19.27-6.44-8-13.1-16.29-21.78-20.67-10.7-5.41-23.32-5.95-34.46-6.42-9.88-.42-19.22-.82-23.92-4.4C72,355.82,71.32,350.1,70.27,341.44c-.94-7.81-2.11-17.53-11.59-29.19-13.28-16.32-28-24-37.73-26.91A228.71,228.71,0,0,1,17,243,224.52,224.52,0,0,1,83.2,83.2ZM402.83,402.83a226.17,226.17,0,0,1-377-97A70.07,70.07,0,0,1,45.49,323c6.38,7.85,7.09,13.71,7.9,20.5,1.22,10.08,2.6,21.52,20.4,35,8.94,6.79,21.42,7.33,33.49,7.84,9.88.43,20.09.86,27.52,4.61,5.4,2.73,10.64,9.25,16.18,16.15,8.15,10.14,17.39,21.62,30.94,25.09,12.31,3.14,24.69-2,36.67-7.06C227,421.65,235.65,418,243,418s16,3.64,24.43,7.15c9.44,4,19.13,8,28.84,8a31.32,31.32,0,0,0,7.83-1c13.55-3.47,22.79-15,30.93-25.09,5.55-6.9,10.79-13.42,16.19-16.15,7.43-3.75,17.64-4.18,27.52-4.61,12.07-.51,24.55-1.05,33.49-7.84,17.43-13.25,18.58-25.37,19.51-35.1.7-7.36,1.2-12.68,8.26-19.85a35.65,35.65,0,0,1,17.86-10.09A225.06,225.06,0,0,1,402.83,402.83Z"/>
<path class="cls-1" d="M342.3,213.66a40.45,40.45,0,0,0,56.37-9.49,8.5,8.5,0,0,0-13.85-9.86,23.45,23.45,0,0,1-32.66,5.5,8.5,8.5,0,1,0-9.86,13.85Z"/>
<path class="cls-1" d="M231,334.45a8.49,8.49,0,0,0-11.85,2,23.43,23.43,0,0,1-32.67,5.49,8.5,8.5,0,0,0-9.86,13.85A40.44,40.44,0,0,0,233,346.31,8.5,8.5,0,0,0,231,334.45Z"/>
<path class="cls-1" d="M330.56,284.17A8.5,8.5,0,1,0,332.62,301a23.44,23.44,0,0,1,26.09,20.41,8.5,8.5,0,0,0,8.43,7.47,9.2,9.2,0,0,0,1-.06,8.5,8.5,0,0,0,7.41-9.47A40.48,40.48,0,0,0,330.56,284.17Z"/>
<path class="cls-1" d="M283.25,354.8a23.26,23.26,0,0,1,6.57-16.68,8.5,8.5,0,1,0-12.24-11.8,40.42,40.42,0,0,0,1,57.15,8.5,8.5,0,1,0,11.8-12.23A23.31,23.31,0,0,1,283.25,354.8Z"/>
<path class="cls-1" d="M123.32,292.91a8.5,8.5,0,1,0-12.23-11.81,40.47,40.47,0,0,0,1,57.16A8.5,8.5,0,0,0,123.92,326,23.44,23.44,0,0,1,123.32,292.91Z"/>
<path class="cls-1" d="M69.62,253.53a8.38,8.38,0,0,0,1.85.2,8.5,8.5,0,0,0,1.83-16.8A23.45,23.45,0,0,1,55.5,209a8.5,8.5,0,1,0-16.59-3.68A40.47,40.47,0,0,0,69.62,253.53Z"/>
<path class="cls-1" d="M86.64,152.53a7.65,7.65,0,0,0,1.06-.07,40.46,40.46,0,0,0,35.08-45.14,8.5,8.5,0,1,0-16.86,2.12,23.45,23.45,0,0,1-20.33,26.15,8.5,8.5,0,0,0,1,16.94Z"/>
<path class="cls-1" d="M383.05,402.64a3.5,3.5,0,0,0-4.9.7c-12.59,16.73-64.9,41.2-84.8,42.08a3.5,3.5,0,0,0,.15,7h.16c20.25-.89,75.12-25,90.08-44.87A3.5,3.5,0,0,0,383.05,402.64Z"/>
<path class="cls-1" d="M389,160.87a8.5,8.5,0,0,0,7.84-11.76,23.45,23.45,0,0,1,12.66-30.61A8.5,8.5,0,0,0,403,102.8a40.47,40.47,0,0,0-21.84,52.83A8.5,8.5,0,0,0,389,160.87Z"/>
<path class="cls-1" d="M179.81,100.53a23.45,23.45,0,0,1,27.16,19,8.5,8.5,0,0,0,16.74-3,40.43,40.43,0,0,0-46.87-32.74,8.5,8.5,0,0,0,3,16.74Z"/>
<path class="cls-1" d="M149,187a8.3,8.3,0,0,0,2.67-.44,8.5,8.5,0,0,0,5.4-10.74,23.42,23.42,0,0,1,14.86-29.6,8.5,8.5,0,0,0-5.35-16.14,40.47,40.47,0,0,0-25.65,51.09A8.5,8.5,0,0,0,149,187Z"/>
<path class="cls-1" d="M282.26,93.22a8.33,8.33,0,0,0,2.8.48,8.5,8.5,0,0,0,2.8-16.53,23.41,23.41,0,0,1-14.4-29.83,8.5,8.5,0,1,0-16-5.6,40.41,40.41,0,0,0,24.85,51.48Z"/>
<path class="cls-1" d="M281.86,130a8.5,8.5,0,0,0,10.45,5.95,23.44,23.44,0,0,1,28.79,16.38,8.5,8.5,0,0,0,8.19,6.25,8.76,8.76,0,0,0,2.25-.3,8.51,8.51,0,0,0,5.95-10.45,40.42,40.42,0,0,0-49.69-28.27A8.5,8.5,0,0,0,281.86,130Z"/>
<path class="cls-1" d="M404,226.44a8.5,8.5,0,0,0,4.5,16.4,23.4,23.4,0,0,1,28.79,16.38,8.51,8.51,0,0,0,8.19,6.25,8.83,8.83,0,0,0,2.26-.3,8.51,8.51,0,0,0,5.94-10.45A40.43,40.43,0,0,0,404,226.44Z"/>
<path class="cls-1" d="M106,212.31a8.5,8.5,0,0,0,4.51,16.39,23.42,23.42,0,0,1,28.79,16.39,8.5,8.5,0,1,0,16.39-4.51A40.44,40.44,0,0,0,106,212.31Z"/>
</g>
</g>
</g>
</svg>