<?xml version="1.0" ?>
<!-- Uploaded to: SVG Repo, www.svgrepo.com, Generator: SVG Repo Mixer Tools -->
<svg width="800px" height="800px" viewBox="0 -11.18 437.91 437.91" xmlns="http://www.w3.org/2000/svg">
<defs>
<style>.cls-1{fill:#173156;}</style>
</defs>
<title/>
<g data-name="Capa 2" id="Capa_2">
<g id="Outline">
<g id="Bananas">
<path class="cls-1" d="M437.35,213c-2.58-11.66-13-18.29-16.36-20.16-4.54-3.51-23.45-15.57-52.19.18a206.84,206.84,0,0,1-64.41,22.14c-33.63,5.48-65.54,1.46-94.85-12-54.45-24.93-99-100.9-117.67-161.63.36-3,.78-5.87,1.25-8.43,2.15-11.72-2-18.87-5.84-22.8C79,1.91,64.78-2,52.69,1,31.21,6.17,24.4,28.29,24.12,29.23a8.46,8.46,0,0,0,.68,6.48C39,61.82,48.63,95.09,39.8,101.08c-7.75,5.26-17.17,19.23-24.59,36.46A188.78,188.78,0,0,0,.11,204.92C-1.3,245.2,10.38,303.72,74,353.78c52.09,41,108.79,61.77,168.54,61.77h.37c48.58-.07,99.82-13.45,156.65-40.89,12.76-6.16,16.44-14.38,17.28-20.2,1.8-12.48-7.68-22.93-10.68-25.88a40.59,40.59,0,0,0-8.43-8.21c6.43-4.68,12.94-9.67,19.46-14.92,10.38-8.37,12.31-17,12.1-22.78-.45-12.23-10.35-20.74-13.58-23.2a30.19,30.19,0,0,0-2.26-2.13c5.65-6.3,11.32-13,16.95-20C438.38,227.31,438.58,218.6,437.35,213ZM400,352.05c-.49,3.3-5.13,6-7.84,7.31h0c-54.48,26.3-103.31,39.12-149.29,39.19h-.36c-56.61,0-108.3-19-158-58.13-58-45.65-68.7-98.56-67.43-134.9a171.39,171.39,0,0,1,13.73-61.26c7.38-17.15,15.12-26.81,18.52-29.12,12.4-8.41,14.14-26.37,5.16-53.38a236.77,236.77,0,0,0-12.9-30.57c2-4.21,6.65-11.66,15.07-13.7,7-1.69,14.86,1.1,18.45,4.78.63.64,2.28,2.33,1.28,7.84-.63,3.41-1.18,7.21-1.64,11.3-3.63,33.25.38,75.83,10.72,113.9,9.25,34,28.14,81.32,65.67,113.38,30.74,26.26,68.51,44,112.29,52.68a312.65,312.65,0,0,0,48.87,5.68,304.55,304.55,0,0,0,38.67-.91c2.81-.26,5.53-.36,8.16-.34a56,56,0,0,1,19.53,3.39c9.45,3.62,13.4,8.88,13.86,9.54a7.13,7.13,0,0,0,1.42,1.69C396.2,342.49,400.63,348.06,400,352.05Zm6.51-59.84c-8.8,7.09-17.57,13.68-26.12,19.62l-.73-.2-1.31-.37-1.07-.28-1.33-.31-1.05-.23-1.7-.34-1.19-.21-1.85-.29-1-.14-1.51-.18-1.07-.11L365,309l-1-.07c-.85-.06-1.7-.1-2.56-.13h-.37q-1.15,0-2.34,0h-.61c-1.33,0-2.67,0-4,.09l-.25,0c-1.44.07-2.9.16-4.37.29a287.15,287.15,0,0,1-35.7.9,296,296,0,0,1-47-5.4c-40.89-8.13-76.07-24.6-104.56-48.94C128,226.52,110.52,182.57,101.9,150.85q-.83-3-1.57-6c0-.2-.11-.39-.16-.59-.35-1.44-.69-2.89-1-4.34-.18-.78-.37-1.56-.55-2.34q1,2.52,2.07,5c.2.48.39,1,.59,1.45q1.38,3.24,2.8,6.42,2.72,6.06,5.6,11.85c18.56,37.29,42.15,65.86,68.68,83.05,31.66,20.51,68.25,31.31,108.75,32.11,1.5,0,3,0,4.47,0h3.61a261.37,261.37,0,0,0,59.93-7.91l.1,0,1.65-.43.23-.06,1.44-.38.41-.11,1.21-.33.59-.16,1-.27.81-.23.69-.2,1.06-.32.36-.1,1.36-.41A53,53,0,0,1,385.33,264a33.22,33.22,0,0,1,11.48,2.8,22.24,22.24,0,0,1,6.67,4.5,6.56,6.56,0,0,0,1.64,1.51c1.83,1.29,7.06,6,7.2,10.55C412.4,286.06,410.46,289.05,406.54,292.21Zm10.59-65.53c-6.35,8-12.77,15.48-19.12,22.4l-1.26-.35-.34-.1c-.64-.17-1.31-.33-2-.49l-.59-.12c-.5-.11-1-.21-1.55-.31l-.76-.12q-.76-.14-1.56-.24l-.76-.1c-.68-.08-1.38-.15-2.09-.21l-.31,0c-.81-.06-1.65-.1-2.5-.13h-.75c-.63,0-1.26,0-1.9,0l-.93,0c-.64,0-1.28,0-1.94.08l-.89,0c-.88.06-1.78.14-2.69.25H375c-1,.12-2,.26-3,.42l-.92.16c-.74.13-1.49.26-2.24.42l-1.1.23c-.76.16-1.53.34-2.3.54l-1,.25q-1.67.44-3.39,1c-1.4.43-3,.88-4.65,1.36a243.23,243.23,0,0,1-68.93,8.81c-37.29-.73-70.88-10.62-99.85-29.38-1-.64-2-1.3-2.94-2l-1-.69c-.64-.45-1.29-.9-1.92-1.37l-1.13-.84-1.72-1.3-1.18-.93c-.54-.43-1.09-.86-1.62-1.3l-1.19-1c-.53-.44-1.05-.89-1.57-1.34l-1.18-1-1.54-1.37-1.15-1.05-1.52-1.43c-.37-.35-.75-.71-1.11-1.07-.52-.49-1-1-1.53-1.5-.36-.35-.71-.7-1.06-1.06-.53-.53-1.05-1.07-1.57-1.61l-1-1c-.57-.6-1.13-1.21-1.69-1.82l-.79-.87c-.74-.82-1.48-1.64-2.2-2.48l-.25-.27c-.81-.95-1.62-1.9-2.42-2.86-.17-.2-.33-.41-.49-.61q-.95-1.12-1.86-2.28c-.26-.32-.51-.65-.76-1-.52-.65-1-1.31-1.54-2-.29-.37-.56-.74-.84-1.11-.48-.63-1-1.26-1.43-1.9l-.85-1.17L145.22,189l-.86-1.21-1.32-1.9-.84-1.24-1.29-1.93c-.27-.41-.55-.82-.82-1.24l-1.29-2-.76-1.2-1.32-2.12L136,175c-.47-.78-.94-1.56-1.4-2.35l-.56-.93-1.71-3-.2-.35c-.65-1.14-1.29-2.28-1.92-3.44h0c-.62-1.12-1.22-2.24-1.82-3.37-.15-.29-.3-.58-.46-.87l-1.32-2.54-.57-1.13c-.39-.76-.78-1.53-1.16-2.3-.21-.41-.41-.83-.62-1.25-.36-.73-.71-1.47-1.07-2.2l-.63-1.32-1-2.17-.62-1.34-1-2.17-.6-1.34-1-2.19-.58-1.33-1-2.25-.54-1.28c-.33-.79-.66-1.59-1-2.39-.12-.29-.25-.59-.37-.89q2.91,4.71,5.91,9.25c24.48,37,52.68,63.54,81.58,76.77C234.89,233.55,270.11,238,307.13,232A224.49,224.49,0,0,0,377,208c20.84-11.42,32.57-2.52,33.62-1.66a6.8,6.8,0,0,0,1.91,1.3c1.48.73,7.22,4.44,8.26,9.11C421.38,219.54,420.16,222.89,417.13,226.68Z"/>
<path class="cls-1" d="M385.85,340.78c-65.82,29-124.37,27.67-161.9,21.48-44-7.26-84.57-25.72-108.63-49.39C93.1,291,75.47,261.55,65.68,230,55.34,196.55,54.05,162.71,62,132.09a3.5,3.5,0,1,0-6.78-1.75C47,162.22,48.27,197.38,59,232c10.13,32.68,28.39,63.16,51.42,85.83,25.05,24.64,67.07,43.82,112.4,51.31a282.05,282.05,0,0,0,45.79,3.72c34,0,75.44-6.06,120.07-25.71a3.5,3.5,0,1,0-2.82-6.4Z"/>
<path class="cls-1" d="M72.65,27a3.51,3.51,0,0,0-4.78-1.31c-3.68,2.11-11.8,3.38-19.58,1.58A3.5,3.5,0,0,0,46.71,34a41.71,41.71,0,0,0,9.34,1c5.84,0,11.47-1.16,15.29-3.35A3.5,3.5,0,0,0,72.65,27Z"/>
</g>
</g>
</g>
</svg>