<?xml version="1.0" ?>
<!-- Uploaded to: SVG Repo, www.svgrepo.com, Generator: SVG Repo Mixer Tools -->
<svg width="800px" height="800px" viewBox="0 -2.82 440.74 440.74" xmlns="http://www.w3.org/2000/svg">
<defs>
<style>.cls-1{fill:#173156;}</style>
</defs>
<title/>
<g data-name="Capa 2" id="Capa_2">
<g id="Outline">
<g id="TeaCup">
<path class="cls-1" d="M365,311.4c1.33.08,2.66.13,4,.13a71.77,71.77,0,0,0,8.5-143V154.43a8.51,8.51,0,0,0-8.5-8.5H273.68c26.38-14.75,43.69-32.83,52.52-54.73,10.86-27,7.56-55.14,2.87-84.06a8.51,8.51,0,0,0-9.95-7C272.25,8.9,240.55,27.6,224.87,55.72c-16.65,29.88-11.82,64.09-3.24,90.21H84.21a8.49,8.49,0,0,0-8.41,7.39c-15.15,8.44-27.57,37.2-32.92,51.3a8.56,8.56,0,0,0-2.73.68L14.51,216.56a8.5,8.5,0,0,0-4.9,6L.19,266.94A8.5,8.5,0,0,0,6.73,277l44.49,9.45a8.93,8.93,0,0,0,1.77.18,8.51,8.51,0,0,0,8.31-6.73l9.43-44.37a8.54,8.54,0,0,0-2-7.49l-18.85-20.7a4.51,4.51,0,0,0-.39-.37c6.28-16.55,16.4-36.83,26.25-45.18v89.43A149.93,149.93,0,0,0,119.9,357.94a151.53,151.53,0,0,0,37,27.18H49.43a8.5,8.5,0,0,0-8.5,8.5A41.51,41.51,0,0,0,82.4,435.1H370.78a41.52,41.52,0,0,0,41.48-41.48,8.51,8.51,0,0,0-8.5-8.5H296.31a151.53,151.53,0,0,0,37-27.18A149.77,149.77,0,0,0,365,311.4ZM53.19,236.29l-6.75,31.79-27.86-5.92,6.75-31.79,16.06-7Zm370.55,3.47a54.83,54.83,0,0,1-52.56,54.72c.06-.19.11-.39.16-.59.43-1.43.83-2.87,1.21-4.31l.12-.47c.41-1.55.77-3.1,1.12-4.66.09-.36.16-.72.24-1.07.34-1.57.66-3.13,1-4.71,0-.15,0-.3.08-.46.27-1.47.51-2.94.73-4.43l.15-1c.22-1.57.42-3.14.6-4.72l.09-.91c.15-1.44.28-2.89.39-4.33,0-.25.05-.5.06-.75.12-1.6.2-3.2.26-4.8,0-.36,0-.72,0-1.08.05-1.64.09-3.28.09-4.93V185.64A54.86,54.86,0,0,1,423.74,239.76Zm-171.47-126,35.16,2.18c-12,10.37-28,19.43-48,27.3A292.9,292.9,0,0,1,252.27,113.75Zm42.08-4.4L255.69,107c4.62-9,9.63-18.09,14.66-26.68l41,2.14c-.3.81-.6,1.63-.93,2.44A77.27,77.27,0,0,1,294.35,109.35Zm19.3-90.73c2.94,19.83,4.48,39.07-.15,56.89l-39.11-2c8.56-14.15,16.87-26.4,23-33.81A3.5,3.5,0,0,0,292,35.19c-9.29,11.19-22.92,32.31-35.26,54.75L245.19,55.72C258.65,38.27,281.6,25.82,313.65,18.62ZM239.72,64c.18-.32.37-.63.56-1l11.94,35.32c-1.79,3.4-3.54,6.79-5.22,10.17v0c-4.31,8.65-8.2,17.15-11.35,25C229.63,112.07,227.38,86.14,239.72,64Zm154,338.13a24.51,24.51,0,0,1-23,16H82.4a24.51,24.51,0,0,1-23-16Zm-167.14-17A133.85,133.85,0,0,1,92.71,251.25V162.93H360.47v88.32c0,1,0,2.07,0,3.1A133.85,133.85,0,0,1,226.59,385.12Z"/>
<path class="cls-1" d="M333.47,210.36c-9.67,0-14.22-2.91-19.49-6.28-5.42-3.46-11.55-7.38-23.27-7.38s-17.84,3.92-23.26,7.38c-5.27,3.37-9.83,6.28-19.49,6.28s-14.22-2.91-19.49-6.28-11.55-7.38-23.26-7.38-17.85,3.92-23.26,7.38-9.83,6.28-19.49,6.28-14.22-2.91-19.49-6.28-11.55-7.38-23.26-7.38a3.5,3.5,0,0,0-3.5,3.5v56.73a110.38,110.38,0,1,0,220.76,0V213.86A3.5,3.5,0,0,0,333.47,210.36ZM330,256.93a103.38,103.38,0,0,1-206.76,0V203.84c7.35.62,11.4,3.2,16,6.14,5.41,3.46,11.55,7.38,23.26,7.38s17.85-3.92,23.26-7.38,9.83-6.28,19.49-6.28,14.22,2.91,19.49,6.28,11.55,7.38,23.26,7.38,17.85-3.92,23.26-7.38,9.83-6.28,19.49-6.28,14.22,2.91,19.5,6.28c4.84,3.1,10.27,6.57,19.76,7.26Z"/>
<path class="cls-1" d="M201.47,339.88A84.74,84.74,0,0,1,144,277.41a3.5,3.5,0,0,0-6.83,1.51,91.73,91.73,0,0,0,62.27,67.64,3.5,3.5,0,1,0,2.08-6.68Z"/>
</g>
</g>
</g>
</svg>