<?xml version="1.0" ?>
<!-- Uploaded to: SVG Repo, www.svgrepo.com, Generator: SVG Repo Mixer Tools -->
<svg width="800px" height="800px" viewBox="-93.93 0 459.25 459.25" xmlns="http://www.w3.org/2000/svg">
<defs>
<style>.cls-1{fill:#173156;}</style>
</defs>
<title/>
<g data-name="Capa 2" id="Capa_2">
<g id="Outline">
<g id="BoiledEgg">
<path class="cls-1" d="M180.58,68.29c-11.82-16.42-25.28-27-38.91-30.68a3.5,3.5,0,0,0-1.82,6.76c27,7.23,49,44.67,58,76.4a3.5,3.5,0,0,0,3.37,2.54,3.23,3.23,0,0,0,1-.14,3.49,3.49,0,0,0,2.4-4.32C199.38,100.51,190.85,82.56,180.58,68.29Z"/>
<path class="cls-1" d="M187.75,362.85a56.74,56.74,0,0,0,1.14-41.94A135.81,135.81,0,0,0,271.4,196a8.5,8.5,0,0,0-8.5-8.5H242.57A110.35,110.35,0,0,0,246.06,160c0-29.93-12.18-69.65-31-101.2C192.36,20.88,164.19,0,135.7,0S79,20.88,56.38,58.79c-18.85,31.55-31,71.27-31,101.2a109.9,109.9,0,0,0,3.5,27.54H8.5A8.51,8.51,0,0,0,0,196,135.81,135.81,0,0,0,82.51,320.91a56.68,56.68,0,0,0,1.15,41.94,102.08,102.08,0,0,0-50.09,87.9,8.49,8.49,0,0,0,8.5,8.5H229.34a8.5,8.5,0,0,0,8.5-8.5,102.14,102.14,0,0,0-50.09-87.9ZM42.34,160c0-27.08,11.24-63.38,28.64-92.48C90.16,35.41,113.75,17,135.7,17s45.54,18.41,64.73,50.51c17.39,29.1,28.63,65.4,28.63,92.48a93,93,0,0,1-4.13,27.54H46.47A93,93,0,0,1,42.34,160ZM83.71,442.25c2.82-14.58,12.56-27.88,24.83-32.83a3.5,3.5,0,0,0-2.62-6.5c-15,6.06-26.46,21.84-29.33,39.33H51A85.72,85.72,0,0,1,98.79,374a8.51,8.51,0,0,0,3.48-12.24,39.61,39.61,0,0,1-.87-41.22,8.51,8.51,0,0,0-4.56-12.33A118.78,118.78,0,0,1,17.3,204.53H41.63a103.35,103.35,0,0,0,57.28,84.25,3.46,3.46,0,0,0,1.55.37,3.5,3.5,0,0,0,1.56-6.64,95.8,95.8,0,0,1-53.37-78H254.1a118.78,118.78,0,0,1-79.54,103.69,8.52,8.52,0,0,0-4.95,4.54H140.76a3.5,3.5,0,0,0,0,7H169.6c.12.26.25.53.4.79a39.64,39.64,0,0,1-.86,41.22,9.37,9.37,0,0,0-.58,1.08h-27.8a3.5,3.5,0,0,0,0,7h27.81a8.47,8.47,0,0,0,4,4.16,85.72,85.72,0,0,1,47.79,68.24Z"/>
</g>
</g>
</g>
</svg>