<?xml version="1.0" ?>
<!-- Uploaded to: SVG Repo, www.svgrepo.com, Generator: SVG Repo Mixer Tools -->
<svg width="800px" height="800px" viewBox="-6.6 0 395.2 395.2" xmlns="http://www.w3.org/2000/svg">
<defs>
<style>.cls-1{fill:#173156;}</style>
</defs>
<title/>
<g data-name="Capa 2" id="Capa_2">
<g id="Outline">
<g id="FriedEgg">
<path class="cls-1" d="M164.56,131.58a75.78,75.78,0,1,0,75.79,75.78A75.87,75.87,0,0,0,164.56,131.58Zm0,134.56a58.78,58.78,0,1,1,58.79-58.78A58.85,58.85,0,0,1,164.56,266.14Z"/>
<path class="cls-1" d="M382,156.34C382,70.14,311.85,0,225.65,0A156.53,156.53,0,0,0,98.44,65.44,169.05,169.05,0,0,0,0,219c0,93.12,75.75,168.87,168.87,168.87a169.58,169.58,0,0,0,41.53-5.15,106.54,106.54,0,0,0,146-140.53A155.25,155.25,0,0,0,382,156.34ZM260.51,378.2a89.47,89.47,0,0,1-44.72-12,8.45,8.45,0,0,0-4.26-1.14,8.64,8.64,0,0,0-2.25.3,152.36,152.36,0,0,1-40.41,5.44C85.13,370.82,17,302.7,17,219A152,152,0,0,1,107.49,80,8.54,8.54,0,0,0,111,77.07,139.53,139.53,0,0,1,225.65,17C302.48,17,365,79.51,365,156.34a138.41,138.41,0,0,1-25.45,80.29,8.51,8.51,0,0,0-.5,9A89.55,89.55,0,0,1,260.51,378.2Z"/>
<path class="cls-1" d="M158.32,248.65A41.81,41.81,0,0,1,124.48,219a3.5,3.5,0,0,0-6.73,1.95,48.86,48.86,0,0,0,39.53,34.6,4.73,4.73,0,0,0,.53,0,3.5,3.5,0,0,0,.51-7Z"/>
</g>
</g>
</g>
</svg>