<?xml version="1.0" ?>
<!-- Uploaded to: SVG Repo, www.svgrepo.com, Generator: SVG Repo Mixer Tools -->
<svg width="800px" height="800px" viewBox="-107.11 0 473.56 473.56" xmlns="http://www.w3.org/2000/svg">
<defs>
<style>.cls-1{fill:#173156;}</style>
</defs>
<title/>
<g data-name="Capa 2" id="Capa_2">
<g id="Outline">
<g id="ChickenLeg">
<path class="cls-1" d="M68.88,58.75A62.21,62.21,0,0,0,45,143.41a3.51,3.51,0,0,0,3.06,1.79,3.42,3.42,0,0,0,1.71-.45A3.48,3.48,0,0,0,51.11,140,55.2,55.2,0,0,1,72.3,64.85a3.5,3.5,0,0,0-3.42-6.1Z"/>
<path class="cls-1" d="M129.67,0A129.72,129.72,0,0,0,10.55,181l45.39,103.6a77.28,77.28,0,0,0,45.18,48.31v71.74a35.62,35.62,0,0,0,12.55,68.95,35.48,35.48,0,0,0,16-3.78A35.64,35.64,0,0,0,181.28,438a35.9,35.9,0,0,0-23.06-33.34V332.87a77.31,77.31,0,0,0,45.18-48.31l45.41-103.65A129.72,129.72,0,0,0,129.67,0Zm34.61,438a18.61,18.61,0,0,1-29.59,15l-5-3.67-5,3.67a18.61,18.61,0,0,1-29.59-15,18.72,18.72,0,0,1,15.82-18.42l7.24-1.09v-81h.06c.71.11,1.42.2,2.13.28.23,0,.47.07.71.09a78.27,78.27,0,0,0,17.31,0c.24,0,.47-.06.71-.09.71-.08,1.42-.17,2.12-.28h.06v81l7.24,1.09A18.72,18.72,0,0,1,164.28,438Zm68.94-263.82-45.57,104-.32.87a60.33,60.33,0,0,1-40.08,39.69l-.47.15-1.19.33-.84.22-1.29.32-.81.18-1.35.28-.77.14c-.47.09-.95.16-1.42.24l-.72.11-1.52.19-.64.08c-.56.06-1.12.11-1.69.15l-.47,0a60.35,60.35,0,0,1-6.59.12l-.35,0c-.61,0-1.22-.05-1.82-.09l-.57,0c-.54-.05-1.07-.09-1.6-.15l-.67-.08c-.49-.05-1-.12-1.48-.19l-.73-.11-1.41-.23-.77-.15-1.35-.27-.82-.19c-.42-.09-.85-.2-1.27-.31l-.87-.22-1.15-.33-.53-.16A60.3,60.3,0,0,1,72,279l-.14-.45L26.14,174.18a112.68,112.68,0,1,1,216.2-44.51A111.63,111.63,0,0,1,233.22,174.13Z"/>
<path class="cls-1" d="M140.79,447.62a3.5,3.5,0,0,0,3.5,3.5,14.55,14.55,0,0,0,12.37-6.83,3.5,3.5,0,0,0-5.92-3.73,7.59,7.59,0,0,1-6.45,3.56A3.5,3.5,0,0,0,140.79,447.62Z"/>
</g>
</g>
</g>
</svg>