<?xml version="1.0" ?>
<!-- Uploaded to: SVG Repo, www.svgrepo.com, Generator: SVG Repo Mixer Tools -->
<svg width="800px" height="800px" viewBox="-148.72 0 561.91 561.91" xmlns="http://www.w3.org/2000/svg">
<defs>
<style>.cls-1{fill:#173156;}</style>
</defs>
<title/>
<g data-name="Capa 2" id="Capa_2">
<g id="Outline">
<g id="IceCream3">
<path class="cls-1" d="M264.47,235.93A37.05,37.05,0,0,0,244,202.85c.7-.92,1.36-1.88,2-2.87a37,37,0,0,0-14.83-52.68A37,37,0,0,0,198.48,88c5.49-30.44,1-53.57-13.33-68.86C161-6.56,118.91.94,117.13,1.27a8.5,8.5,0,0,0,.74,16.81c2.12,1.77,6.45,10.55,6.45,22.09,0,10.8-10.32,22.36-25.67,22.36a65.22,65.22,0,0,0-65.11,63.19l-4.86,1.12a37,37,0,0,0-13.49,65.93,37,37,0,0,0,2.3,58,36.89,36.89,0,0,0-6.07,6.64l-.08.1-.06.09,0,0-.05.09a7.23,7.23,0,0,0-.51.84l-.11.23a7.83,7.83,0,0,0-.34.79l-.09.26a7.62,7.62,0,0,0-.22.82l-.06.25a7,7,0,0,0-.12.92.78.78,0,0,0,0,.16,8.94,8.94,0,0,0,.16,2.24.43.43,0,0,1,0,0,8.48,8.48,0,0,0,.22.83L98.68,540.54a30.77,30.77,0,0,0,58.59,0l42.16-131.13c0-.08,0-.16.07-.24l26.82-83.38c0-.09.06-.17.08-.25l18.31-56.93A37.21,37.21,0,0,0,264.47,235.93Zm-45.33-36.07h0l-14,3.25L43.78,240.36a20,20,0,0,1-9-39L45.32,199h0l164.8-38.06h0a20,20,0,0,1,9,39ZM98.65,79.53a43.56,43.56,0,0,0,30.72-12.28c7.59-7.44,11.95-17.31,11.95-27.08a61.14,61.14,0,0,0-4.44-23.09c1.08.05,2.18.11,3.3.2,9.84.8,23.48,3.78,32.57,13.47,11.45,12.19,14,32.72,7.61,61.06L50.87,121.71A48.23,48.23,0,0,1,98.65,79.53ZM32.51,143.4,197.3,105.34a20.08,20.08,0,0,1,4.54-.52,20,20,0,0,1,4.47,39.5L41.51,182.38a20,20,0,0,1-9-39ZM168.76,449.28l-.84-.85,1.64-1.64ZM128,544.91a14.76,14.76,0,0,1-4.18-.62l-8.93-8.94h0l-8.23-25.61L128,488.37l21.34,21.36-8.23,25.62-8.94,8.94A14.69,14.69,0,0,1,128,544.91ZM89.6,456.77,93,453.38,123,483.43l-18.81,18.81ZM29.87,271H55.52L36.11,290.41ZM93,313.42l30,30-30,30-30-30Zm70,0,30,30-30,30-30-30Zm47.1,7.4-2.65,8.24L198,338.51l-30.05-30.05,30.05-30,19.47,19.47-7.29,22.68C210.12,320.66,210.09,320.74,210.07,320.82Zm-26.82,83.39a2.25,2.25,0,0,0-.08.24l-8.92,27.75L163,443.48l-30-30,30-30,20.41,20.4ZM128,478.48l-30-30.05,30.05-30,30,30Zm0-130.07,30,30-30,30-30-30Zm39.93,30,30.05-30,2.45,2.45-14.62,45.45ZM128,338.51l-30-30.05,30.05-30,30,30Zm-70,0-9.45-9.46-10-31.15L58,278.43l30.05,30Zm-2.44,12.35L58,348.41l30.05,30L70.17,396.32ZM93,383.4l30,30-30,30L81.7,432.2l-9.13-28.38Zm-6.6,63.39L88,448.43l-.84.85Zm65.34,55.45-18.8-18.81,30-30.05,3.38,3.39Zm68.11-211.83L200.44,271h25.64ZM195.49,271,163,303.51,130.45,271h65Zm-70,0L93,303.51,60.47,271h65ZM236,254H60.3l152.19-35.16L223,216.43h0a20,20,0,0,1,24,15,20.36,20.36,0,0,1,.52,4.52A20.12,20.12,0,0,1,236,254Z"/>
<path class="cls-1" d="M154.22,27.91a3.5,3.5,0,1,0-2.6,6.49c4.27,1.71,7.91,7.84,9.73,16.39a69,69,0,0,1-1.17,31.05,3.5,3.5,0,0,0,2.48,4.29,3.56,3.56,0,0,0,.91.12,3.49,3.49,0,0,0,3.37-2.6C173.47,59.28,167.52,33.23,154.22,27.91Z"/>
<path class="cls-1" d="M31.74,172.8a18.14,18.14,0,0,0,9.68,2.79,18.35,18.35,0,0,0,4.15-.47A3.5,3.5,0,1,0,44,168.3a11.34,11.34,0,0,1-13.58-8.49,3.5,3.5,0,1,0-6.82,1.58A18.17,18.17,0,0,0,31.74,172.8Z"/>
<path class="cls-1" d="M46.17,226.73a11.34,11.34,0,0,1-13.59-8.48,3.5,3.5,0,0,0-6.82,1.57,18.28,18.28,0,0,0,22,13.73,3.5,3.5,0,0,0-1.57-6.82Z"/>
</g>
</g>
</g>
</svg>