<?xml version="1.0" ?>
<!-- Uploaded to: SVG Repo, www.svgrepo.com, Generator: SVG Repo Mixer Tools -->
<svg width="800px" height="800px" viewBox="-117.94 0 536.78 536.78" xmlns="http://www.w3.org/2000/svg">
<defs>
<style>.cls-1{fill:#173156;}</style>
</defs>
<title/>
<g data-name="Capa 2" id="Capa_2">
<g id="Outline">
<g id="IceCream4">
<path class="cls-1" d="M281,225.24a150,150,0,0,0,19.88-74.8C300.89,67.49,233.4,0,150.44,0S0,67.49,0,150.44a150,150,0,0,0,19.88,74.8,43.72,43.72,0,0,0,29.85,75.65H50l39.7,123.45c0,.08,0,.15.07.23l19.33,60.14,9.21,28.61a33.78,33.78,0,0,0,64.33,0l47.88-148.91a2,2,0,0,1,.07-.23l20.36-63.31h.24A43.72,43.72,0,0,0,281,225.24Zm-83.5,186.21-2.38-2.38,4.64-4.64ZM150.44,519.78a17.77,17.77,0,0,1-4-.48L134.09,507l-9-27.9,25.31-25.33,25.33,25.34-.13.41L166.8,507,154.47,519.3A17.79,17.79,0,0,1,150.44,519.78Zm-49.3-115.33,4.62,4.62-2.37,2.37Zm9.57-.33L96.44,389.85l-10-31,24.25-24.26,34.78,34.78ZM67.12,298.67l2.61-2.61.81-.44.54-.29.26-.14,34.42,34.41L84.05,351.31Zm62.09,17.38a37,37,0,0,0,42.47,0l13.55,13.55-34.79,34.79L115.66,329.6Zm21.23,58.23,34.79,34.79-34.79,34.78-34.78-34.78Zm27.74,97.31L155.4,448.8,190.18,414l4.92,4.92ZM214.3,359.2c0,.08-.05.16-.07.23l-9.77,30.41-14.28,14.28L155.4,369.33l34.78-34.78,24.25,24.24Zm-19.18-29.6,34.43-34.41.26.14.54.29.81.44,2.61,2.61-16.93,52.64Zm22.42-44.48a42.71,42.71,0,0,0,3.63,3.86c.8.76,1.64,1.49,2.5,2.19l-33.49,33.48L177,311.48a36.76,36.76,0,0,0,8.8-14.77A148.88,148.88,0,0,0,217.54,285.12ZM110.71,324.65,77.22,291.17a43.82,43.82,0,0,0,6.13-6.05,148.94,148.94,0,0,0,31.73,11.59,36.78,36.78,0,0,0,8.79,14.77ZM106,419.58a2.17,2.17,0,0,1-.07-.24l-.14-.41,4.92-4.91,34.78,34.78-22.77,22.79ZM251.16,283.89a27.17,27.17,0,0,1-4.76-.42,26.48,26.48,0,0,1-7.09-2.34c-.75-.37-1.48-.78-2.19-1.22a26.77,26.77,0,0,1-9.41-9.93,8.52,8.52,0,0,0-11.65-3.32c-1.33.76-2.54,1.42-3.74,2q-2.08,1.1-4.21,2.11A131.63,131.63,0,0,1,177,281.24a8.53,8.53,0,0,0-6.75,7.2,17.05,17.05,0,0,1-.34,1.87,19.83,19.83,0,0,1-6.88,11,19.58,19.58,0,0,1-10.88,4.41c-.57,0-1.15.07-1.74.07a20,20,0,0,1-19.84-17.31,8.5,8.5,0,0,0-6.74-7.2,131.94,131.94,0,0,1-35.34-12.57c-1.15-.6-2.36-1.25-3.69-2-.3-.16-.6-.3-.9-.43l-.28-.11c-.23-.08-.45-.16-.68-.22l-.3-.09c-.27-.06-.53-.11-.8-.15l-.18,0a7.93,7.93,0,0,0-1-.06h-.23l-.84.06-.29,0a7.4,7.4,0,0,0-1,.22A8.5,8.5,0,0,0,73.18,270a26.77,26.77,0,0,1-9.41,9.93,26.29,26.29,0,0,1-8.65,3.41l-.63.15a27.17,27.17,0,0,1-4.76.42,26.71,26.71,0,0,1-14.14-49.37,8.51,8.51,0,0,0,2.64-11.82A133,133,0,0,1,17,150.44C17,76.86,76.86,17,150.44,17S283.89,76.86,283.89,150.44a133,133,0,0,1-21.23,72.26,8.51,8.51,0,0,0,2.64,11.82,26.71,26.71,0,0,1-14.14,49.37Z"/>
<path class="cls-1" d="M55.29,85a3.5,3.5,0,0,0-4.9.71,108,108,0,0,0-20.94,59.81c-1,20.72,3.65,41.08,13.05,57.33a3.5,3.5,0,1,0,6.06-3.51C32.45,171.5,29.83,125,56,89.89A3.5,3.5,0,0,0,55.29,85Z"/>
<path class="cls-1" d="M49.07,268.43a12.08,12.08,0,0,1-8.22-20.92,3.5,3.5,0,1,0-4.77-5.12,19.08,19.08,0,0,0,13,33,3.5,3.5,0,0,0,0-7Z"/>
</g>
</g>
</g>
</svg>