<?xml version="1.0" ?>
<!-- Uploaded to: SVG Repo, www.svgrepo.com, Generator: SVG Repo Mixer Tools -->
<svg width="800px" height="800px" viewBox="-131.75 0 538.19 538.19" xmlns="http://www.w3.org/2000/svg">
<defs>
<style>.cls-1{fill:#173156;}</style>
</defs>
<title/>
<g data-name="Capa 2" id="Capa_2">
<g id="Outline">
<g id="IceCream1">
<path class="cls-1" d="M274.67,337c0-25.76,0-58.74-.07-90.89,0-27.93-.07-55.23-.1-76.62-.08-41.36-.15-42.22-.2-42.82a137.3,137.3,0,0,0-39.82-86.47,138.71,138.71,0,0,0-12-10.7A137.43,137.43,0,0,0,65.72,20.14,137.49,137.49,0,0,0,.39,126.71c-.17,2.21-.3,83.5-.39,241.61a25.23,25.23,0,0,0,25.24,25.25h74.88c0,109.21.07,109.85.11,110.27a37.23,37.23,0,0,0,74.24,0c0-.4.08-1,.11-110.25h74.88a25.23,25.23,0,0,0,25.24-25.25ZM157.5,502.78a20.23,20.23,0,0,1-40.3,0c0-4.65-.07-68.91-.08-109.2h40.46C157.56,433.86,157.54,498.11,157.5,502.78ZM257.7,368.34a8.23,8.23,0,0,1-8.24,8.23H25.24A8.21,8.21,0,0,1,17,368.33c.07-112.64.19-234.58.35-240.47A120.46,120.46,0,0,1,74.6,34.64,120.33,120.33,0,0,1,137.35,17a120.69,120.69,0,0,1,28.8,3.47,119.09,119.09,0,0,1,45.77,22.4,121.73,121.73,0,0,1,10.54,9.38,120.33,120.33,0,0,1,34.88,75.62c0,1.15.09,8.28.16,41.68,0,21.38.06,48.68.1,76.61,0,32.14.06,65.13.07,90.88l0,31.29Z"/>
<path class="cls-1" d="M121.29,56.4a74,74,0,0,0-73.87,73.87,3.5,3.5,0,0,0,7,0A67,67,0,0,1,121.29,63.4a3.5,3.5,0,0,0,0-7Z"/>
</g>
</g>
</g>
</svg>