<?xml version="1.0" ?>
<!-- Uploaded to: SVG Repo, www.svgrepo.com, Generator: SVG Repo Mixer Tools -->
<svg width="800px" height="800px" viewBox="0 -143.39 555.47 555.47" xmlns="http://www.w3.org/2000/svg">
<defs>
<style>.cls-1{fill:#173156;}</style>
</defs>
<title/>
<g data-name="Capa 2" id="Capa_2">
<g id="Outline">
<g id="Taco">
<path class="cls-1" d="M550.29,164.07c-8.19-36.89-25.58-66.29-51.69-87.37-23-18.56-52.39-30.88-89.77-37.66a46.68,46.68,0,0,0-5.94-4.16c-9.65-5.64-20.81-6.78-31.69-7.89-7.44-.76-14.48-1.48-20.73-3.58-5.57-1.87-11.26-5.45-17.29-9.23C324.25,8.58,314.12,2.23,302.27.46c-10.44-1.55-20.79,1.08-30.79,3.62-7.66,2-14.9,3.8-21.93,3.8-5.82,0-12.08-1.43-18.78-2.95-10.34-2.35-21-4.78-31.88-2.2s-19.25,9.46-27.45,16.13c-5.31,4.34-10.32,8.43-15.5,10.87-5.36,2.52-11.89,3.77-18.8,5.11l-.16,0c-10,1.91-20.42,3.89-29.16,10.07-8.95,6.32-14.61,15.9-19.59,24.35l-.07.12C84.63,75.39,81.29,81,77.25,85c-4.58,4.49-10.66,7.94-17.1,11.61-8.65,4.92-17.6,10-23.58,18.19-7.29,10-9.44,21.74-11.34,32.17-1.11,6.08-2.16,11.82-4.05,16.17A141.08,141.08,0,0,1,12,179.83l-.13.21C5.5,190.36-1,201,.14,212.09c2.3,21.81,20.73,30.26,37.66,33.37A39.6,39.6,0,0,0,74,268.69H511.11c.54,0,1.08,0,1.62-.05h.58c21.44-.94,36.87-16.15,41.32-40.75C557.83,210.19,550.89,166.75,550.29,164.07ZM17,210.31c-.56-5.33,4.44-13.49,9.33-21.46l.09-.15a155.14,155.14,0,0,0,10.3-18.78c2.68-6.16,4-13.14,5.21-19.95,1.64-9,3.33-18.32,8.32-25.14,3.83-5.25,10.84-9.24,18.26-13.46,7.1-4,14.44-8.21,20.58-14.22,5.65-5.52,9.73-12.42,13.67-19.1l.07-.12c4.32-7.32,8.78-14.89,14.76-19.1,5.74-4.06,13.9-5.62,22.55-7.27l.17,0c7.63-1.47,15.53-3,22.83-6.42,7.07-3.33,13.14-8.28,19-13.1,7-5.68,13.58-11,20.63-12.74s15.32.23,24.23,2.26c7.25,1.64,14.75,3.35,22.47,3.35,9.16,0,17.78-2.2,26.12-4.32,8.76-2.23,17-4.33,24.1-3.28,8.33,1.24,16.49,6.36,24.37,11.3,6.61,4.15,13.44,8.43,20.92,10.94,8,2.71,16.36,3.56,24.41,4.38h.1c9.4,1,18.27,1.87,24.74,5.65a29.85,29.85,0,0,1,5,3.74h0a56.26,56.26,0,0,1,6.79,7.52c2.15,2.78,4.19,5.74,6.2,8.65l.09.13c4.3,6.24,8.74,12.7,14.42,18,5.86,5.48,12.71,9.58,19.35,13.55,8.37,5,16.28,9.74,20.74,16.37s5.86,15.62,7.37,25.18c1.22,7.73,2.48,15.73,5.47,23.29s7.51,14.11,11.92,20.54c5.5,8,10.69,15.59,12.13,23.62.09.46.16.93.22,1.4.57,4.73-.09,9.9-1.21,15.36v0c-.24,1.15-.49,2.31-.76,3.48-.2.88-.41,1.77-.62,2.66-.13.56-.27,1.12-.4,1.68-.05.19-.09.39-.14.58h0c-.14.61-.25,1.2-.34,1.8l-.06.37c-.08.57-.14,1.14-.17,1.7,0,.1,0,.21,0,.31q0,.78,0,1.56v.22c0,.55.05,1.1.1,1.64l0,.36c.06.53.12,1.06.2,1.59l0,.18c.08.49.17,1,.27,1.45l.06.29c.1.5.22,1,.34,1.49,0,.1.05.2.07.3.12.48.25,1,.38,1.42v0c-.65-.24-1.29-.5-1.92-.79l-.56-.26c-.47-.22-.92-.45-1.37-.7l-.55-.3c-.58-.34-1.16-.69-1.71-1.06l-.06,0c-.58-.39-1.13-.8-1.67-1.23l-.47-.39c-.4-.33-.79-.67-1.16-1-.15-.14-.31-.27-.45-.42-.49-.47-1-1-1.43-1.47l0,0q-.69-.78-1.32-1.62c-.13-.16-.24-.32-.36-.49-.31-.42-.6-.84-.89-1.28l-.33-.52c-.36-.59-.71-1.2-1-1.82h0c-.32-.62-.61-1.27-.88-1.92-.09-.19-.16-.38-.24-.58-.19-.49-.37-1-.53-1.49l-.2-.6c-.2-.69-.39-1.38-.55-2.09a26,26,0,0,1-.53-3.78c0-.24,0-.49-.08-.73A227.45,227.45,0,0,0,296.75,36.05a230.19,230.19,0,0,0-37.92-3.15A227.33,227.33,0,0,0,34.71,222.17c-.14.81-.25,1.63-.33,2.44,0,.27,0,.53-.07.79,0,.55-.09,1.1-.12,1.65,0,.08,0,.16,0,.25C26.45,225.05,18.11,220.43,17,210.31Zm57,41.38A22.89,22.89,0,0,1,51.47,225,210.47,210.47,0,0,1,363,77.43q5.31,3,10.45,6.39a212.17,212.17,0,0,1,35,28.67,208.62,208.62,0,0,1,58.09,115.17,45.7,45.7,0,0,0,.85,5.84c.17.76.36,1.52.56,2.27.06.22.13.44.19.66.16.55.33,1.1.51,1.64.07.21.14.43.22.64.25.73.52,1.45.81,2.15v0c.29.7.6,1.39.92,2.08l.3.6c.25.51.5,1,.77,1.5.11.2.21.4.32.59.37.66.75,1.31,1.15,1.95h0c.4.64.82,1.26,1.25,1.87l.39.54c.32.45.66.9,1,1.34l.25.33ZM537.9,224.85h0c-1.5,8.27-5.82,21.41-18.27,25.54,0-.11-.07-.22-.1-.33l-.62-2.07a31.32,31.32,0,0,1-1.6-6.9,6.63,6.63,0,0,1,.14-1.82c.31-1.31.63-2.61.93-3.93,2-8.53,3.65-17.29,2.49-26.16-.09-.68-.19-1.37-.32-2.05A51.93,51.93,0,0,0,515.67,193a138.51,138.51,0,0,0-10-16.06c-2-2.95-4-5.83-5.75-8.67a55.84,55.84,0,0,1-4.38-8.5c-2.3-5.81-3.36-12.56-4.49-19.69-1.73-11-3.53-22.32-10.06-32s-16.51-15.72-26.12-21.46c-6.13-3.68-11.92-7.15-16.47-11.4-.53-.5-1.06-1-1.58-1.56-.17-.17-.33-.36-.5-.54-.34-.38-.69-.74-1-1.13l-.6-.71c-.3-.36-.6-.7-.9-1.07l-.63-.8c-.28-.35-.56-.7-.84-1.07l-.66-.87-.8-1.08-.67-.93-.79-1.1-.66-.94L428,62.2c-.23-.32-.45-.65-.68-1l-.57-.83c24.71,6.6,44.87,16.35,61.21,29.54,23.36,18.86,38.33,44.32,45.76,77.81C534.6,172.05,540.35,211.32,537.9,224.85Z"/>
<path class="cls-1" d="M131.13,165.25a3.51,3.51,0,0,0-.32,4.94,8.68,8.68,0,1,1-8.82-2.66,3.5,3.5,0,1,0-1.84-6.75,15.7,15.7,0,1,0,15.92,4.79A3.49,3.49,0,0,0,131.13,165.25Z"/>
<path class="cls-1" d="M300.47,206.24a18.64,18.64,0,0,0-11,35.61,3.81,3.81,0,0,0,1,.16,3.5,3.5,0,0,0,1-6.85,11.64,11.64,0,1,1,14.55-7.68,11.41,11.41,0,0,1-2.63,4.53,3.5,3.5,0,0,0,5.1,4.8,18.64,18.64,0,0,0-8.08-30.57Z"/>
<path class="cls-1" d="M372.45,139.33a18.63,18.63,0,1,0-16.58,30.18c.7.07,1.39.11,2.08.11a18.52,18.52,0,0,0,11.62-4.09,3.5,3.5,0,0,0-4.38-5.47,11.61,11.61,0,1,1,4.08-11.63,3.5,3.5,0,1,0,6.83-1.53A18.45,18.45,0,0,0,372.45,139.33Z"/>
<path class="cls-1" d="M226.3,130.85a24.6,24.6,0,0,0-17.43,7.48,3.5,3.5,0,1,0,5,4.89,17.78,17.78,0,1,1-4,18.41,3.5,3.5,0,1,0-6.6,2.36,24.82,24.82,0,0,0,23.34,16.43h.32a24.78,24.78,0,1,0-.63-49.56Z"/>
<path class="cls-1" d="M225.59,105a3.48,3.48,0,0,0,4.73-1.43,11.09,11.09,0,0,1,15-4.56,3.5,3.5,0,0,0,3.29-6.18,18.08,18.08,0,0,0-24.47,7.44A3.49,3.49,0,0,0,225.59,105Z"/>
<path class="cls-1" d="M160.94,111.46a25.62,25.62,0,0,0-19.13-4.72,3.5,3.5,0,1,0,1.05,6.92,18.75,18.75,0,0,1,21.35,15.72,3.5,3.5,0,0,0,3.46,3,4.91,4.91,0,0,0,.53,0,3.5,3.5,0,0,0,2.93-4A25.57,25.57,0,0,0,160.94,111.46Z"/>
<path class="cls-1" d="M396.94,202.56a3.49,3.49,0,0,0-2.7,4.14,11.07,11.07,0,0,1-8.55,13.14,3.5,3.5,0,1,0,1.44,6.85,18.08,18.08,0,0,0,14-21.43A3.5,3.5,0,0,0,396.94,202.56Z"/>
<path class="cls-1" d="M295,152.39a11.93,11.93,0,1,0-11.92-11.93A11.94,11.94,0,0,0,295,152.39Zm0-16.85a4.93,4.93,0,1,1-4.92,4.92A4.93,4.93,0,0,1,295,135.54Z"/>
<path class="cls-1" d="M187.81,203.36a11.93,11.93,0,1,0,11.92,11.92A11.94,11.94,0,0,0,187.81,203.36Zm0,16.85a4.93,4.93,0,1,1,4.92-4.93A4.93,4.93,0,0,1,187.81,220.21Z"/>
</g>
</g>
</g>
</svg>