<?xml version="1.0" ?>
<!-- Uploaded to: SVG Repo, www.svgrepo.com, Generator: SVG Repo Mixer Tools -->
<svg width="800px" height="800px" viewBox="-53.76 0 488.35 488.35" xmlns="http://www.w3.org/2000/svg">
<defs>
<style>.cls-1{fill:#173156;}</style>
</defs>
<title/>
<g data-name="Capa 2" id="Capa_2">
<g id="Outline">
<path class="cls-1" d="M378.76,208.17a8.52,8.52,0,0,0-6.43-2.94h-12.9l6-129.91a8.51,8.51,0,0,0-8.1-8.89l-89.68-4.17a8.51,8.51,0,0,0-8.88,8.1l-1,20.89-6.38-83.4A8.5,8.5,0,0,0,242.33,0L152.82,6.87A8.52,8.52,0,0,0,145,16l1.2,15.57-85.75,4.8a8.5,8.5,0,0,0-8,9L55,91.24,14,97.51a8.52,8.52,0,0,0-7.12,9.69l15,98H8.5A8.5,8.5,0,0,0,.09,215L35.3,458.48a8.52,8.52,0,0,0,4.6,6.39L85,487.45a8.44,8.44,0,0,0,5.65.7,463,463,0,0,1,199.59,0,8.23,8.23,0,0,0,1.84.2,8.44,8.44,0,0,0,3.81-.9l45.07-22.58a8.51,8.51,0,0,0,4.61-6.39L380.75,215A8.53,8.53,0,0,0,378.76,208.17ZM348.09,83l-5.68,122.21h-13a8.51,8.51,0,0,0-8.05,5.78l-.15.44c-.45,1.33-.93,2.64-1.42,4l-.51,1.35c-.49,1.26-1,2.51-1.52,3.76-.27.62-.54,1.25-.82,1.87-.34.79-.69,1.56-1.05,2.34-.54,1.16-1.08,2.31-1.65,3.45l-.55,1.09a138.42,138.42,0,0,1-17.28,26.2l14.47-105.15a8.51,8.51,0,0,0-1.65-6.3,8.3,8.3,0,0,0-.54-.64,8.53,8.53,0,0,0-5.07-2.64l-30.9-4.25,2.65-56.84Zm-52.6,347.23H85.34l-11-78.48h232.2Zm12-85.48H73.33L60.21,251.36a155.15,155.15,0,0,0,55.27,51.39l.88.48,1.8,1,1.4.73.37.19c2.44,1.24,4.92,2.42,7.42,3.53l.14.06q5.19,2.31,10.55,4.22l.23.09,2.4.83.69.23,2.26.73.71.22,2.08.64h0l.54.15c1.31.38,2.64.75,4,1.1l1.3.34c1.35.34,2.7.65,4.06,1l1.42.32c1.36.29,2.73.56,4.11.82l1.43.26c1.39.25,2.79.47,4.2.68l1.34.2q2.16.3,4.35.54l1.18.13c1.51.15,3,.29,4.55.4l.95.07c1.6.11,3.2.2,4.81.26h.63c1.68.06,3.36.09,5.05.09h.12l1.43,0,1.65,0,1.84,0,1.25,0c.69,0,1.38-.06,2.06-.1l1,0c.76,0,1.51-.1,2.27-.15l.73-.05,2.46-.22.49,0c.89-.09,1.78-.18,2.66-.29l.24,0a155,155,0,0,0,28.29-6l.57-.18,2-.65,1.16-.39.86-.29h0l.63-.23,1.72-.62,1.36-.5,1.82-.7,2-.78,2-.83,1.43-.62,1.53-.67,1.42-.65,1.58-.73,1.28-.62,2-1,.86-.43a155.22,155.22,0,0,0,59.68-53.73Zm-30.89-69.94A137.22,137.22,0,0,1,260.42,286c-.77.46-1.54.91-2.32,1.35-.53.3-1.07.58-1.6.87-1,.53-1.94,1.05-2.91,1.55l-1.4.7c-1.1.55-2.2,1.09-3.32,1.61l-1.13.53-1,.42L244,187a8.09,8.09,0,0,0-.07-.86s0-.07,0-.11c0-.25-.08-.49-.14-.73a.06.06,0,0,0,0,0,8.5,8.5,0,0,0-6.75-6.4h-.12c-.23,0-.45-.07-.68-.09l-.3,0-.41,0h-.22l-19,.48,4.51-32.75,12,1.64,29.89,4.12h.07l30.17,4.15ZM206.73,196.5h.05l20.48-.53,2.66,103.26-1.36.42-1.09.3c-1.36.38-2.72.73-4.09,1.07l-1,.24c-1.4.33-2.8.64-4.21.92l-1,.21c-1.39.27-2.79.52-4.19.75l-1.11.18c-1.37.22-2.74.41-4.12.58l-1.23.15c-1.34.16-2.7.29-4.05.41l-1.32.12c-1.38.1-2.77.18-4.16.24l-1.2.07c-1.79.07-3.58.1-5.37.1s-3.38,0-5.07-.1l-1.32-.06c-1.31-.06-2.61-.13-3.9-.23l-1.26-.09c-3.43-.29-6.83-.69-10.2-1.23l-.51-.08c-1.53-.25-3.07-.53-4.59-.83l-.73-.14c-1.64-.34-3.28-.69-4.9-1.08h0l-.74-.2-2.65-103.1,28.73-.74ZM137.3,294.41q-2.18-.9-4.31-1.88l-.47-.21q-2.21-1-4.37-2.11l-.33-.17q-2.28-1.16-4.52-2.39l-.11-.07c-1.39-.77-2.75-1.57-4.11-2.38q-6-3.61-11.61-7.85L87.82,161l69.8-11.79,1.95-.33,2.81,16.62,2.54,15.06-19.34.5a8.5,8.5,0,0,0-8.28,8.72L140,295.48c-.71-.28-1.43-.54-2.13-.83ZM235.16,17.62l8.78,114.89-29.23-4a8.39,8.39,0,0,0-1.8-.06,8.51,8.51,0,0,0-7.79,7.32l-6.05,43.94-6.29.16-10.69.28-2.91-17.23-4.26-25.23a8.46,8.46,0,0,0-3.65-5.64l-.37-.24L162.59,23.17ZM69.87,52.87l72.67-4.07,4.75,84.92-27.62,4.66-7.24-47.33A8.33,8.33,0,0,0,108,84.84l-.21-.11a8.62,8.62,0,0,0-1.09-.45l-.17,0a10.38,10.38,0,0,0-1.1-.27l-.12,0a9.55,9.55,0,0,0-1.2-.1h-.23a8.75,8.75,0,0,0-1.14.09h0l-5.59.86L71.88,88.65ZM25,113l40.21-6.15h0l15.4-2.36L96.91,102l6,39.19L76.6,145.66a8.5,8.5,0,0,0-7,9.8L87.05,258.55a137.73,137.73,0,0,1-17.47-24.63l-.67-1.22c-.44-.8-.87-1.61-1.29-2.42-.56-1.08-1.11-2.18-1.64-3.28-.31-.64-.61-1.29-.91-1.94-.39-.85-.78-1.7-1.16-2.56-.24-.54-.48-1.08-.71-1.63-.56-1.31-1.09-2.63-1.61-4-.2-.49-.38-1-.57-1.49-.48-1.29-1-2.58-1.4-3.89l-.18-.5a8.49,8.49,0,0,0-8-5.79H39.08Zm-6.65,109.2H45.41q2.43,6.38,5.38,12.43L83.54,467.72,51.49,451.66Zm172.1,238A478.26,478.26,0,0,0,91,470.67l-4.69-33.42H294.51l-4.7,33.42A478.16,478.16,0,0,0,190.42,460.27Zm138.93-8.61-32.06,16.06,4.56-32.41a3.56,3.56,0,0,0,.38-1.56,3.71,3.71,0,0,0-.07-.67L330,234.66q2.94-6.06,5.38-12.43h27.1Z" id="FrenchFries"/>
</g>
</g>
</svg>