<?xml version="1.0" ?>
<!-- Uploaded to: SVG Repo, www.svgrepo.com, Generator: SVG Repo Mixer Tools -->
<svg width="800px" height="800px" viewBox="0 -0.03 448.86 448.86" xmlns="http://www.w3.org/2000/svg">
<defs>
<style>.cls-1{fill:#173156;}</style>
</defs>
<title/>
<g data-name="Capa 2" id="Capa_2">
<g id="Outline">
<g id="HotDog">
<path class="cls-1" d="M448.86,317.2a71.54,71.54,0,0,0-21.08-50.9L182.52,21A72.08,72.08,0,0,0,86.58,15.8,50.66,50.66,0,0,0,15.84,86.54a72,72,0,0,0,5.24,95.94L266.34,427.74A72.06,72.06,0,0,0,362.28,433,50.67,50.67,0,0,0,433,362.24,71.39,71.39,0,0,0,448.86,317.2ZM170.5,33.06,415.76,278.32a55,55,0,0,1,5.55,71.29L99.21,27.52A55.08,55.08,0,0,1,170.5,33.06ZM278.36,415.72,33.1,170.46a55,55,0,0,1-5.55-71.29l322.1,322.09A55.08,55.08,0,0,1,278.36,415.72Zm137.4,0a33.73,33.73,0,0,1-47.62,0l-335-335A33.67,33.67,0,0,1,80.72,33.06l335,335A33.73,33.73,0,0,1,415.76,415.72Z"/>
<path class="cls-1" d="M324.78,414.05a3.5,3.5,0,0,0-4.27-2.5A23.44,23.44,0,0,1,298,405.48l-34.69-34.69a3.5,3.5,0,1,0-5,4.95l34.69,34.69a30.53,30.53,0,0,0,29.2,7.9A3.5,3.5,0,0,0,324.78,414.05Z"/>
<path class="cls-1" d="M116.83,32a3.5,3.5,0,0,0,4.25,2.54,37.45,37.45,0,0,1,29.11,4.61A3.5,3.5,0,0,0,155,38a3.5,3.5,0,0,0-1.12-4.82,44.37,44.37,0,0,0-34.51-5.46A3.52,3.52,0,0,0,116.83,32Z"/>
<path class="cls-1" d="M374.74,376.71c.21-1.25.46-2.52.7-3.8.29-1.47.58-3,.82-4.48.15-.93.26-1.78.34-2.51.61-4.94.6-10.62-4.17-15.39-5.36-5.36-12.05-4.79-17.89-3.82-1.4.23-2.82.5-4.24.77s-2.73.52-4.07.74c-6.37,1-9.35.58-11.8-1.86s-2.91-5.43-1.86-11.81c.22-1.33.48-2.69.74-4.05s.54-2.85.78-4.25c1-5.85,1.53-12.53-3.83-17.89s-12-4.78-17.89-3.82c-1.39.23-2.81.5-4.22.77s-2.74.53-4.08.75c-6.38,1-9.36.58-11.8-1.87s-2.92-5.42-1.86-11.81c.22-1.33.48-2.69.73-4.05s.55-2.85.78-4.25c1-5.84,1.54-12.52-3.82-17.88s-12.05-4.79-17.9-3.83c-1.39.23-2.82.5-4.24.78s-2.72.52-4.06.74c-6.38,1-9.36.57-11.8-1.87s-2.92-5.43-1.87-11.81c.22-1.34.48-2.7.75-4.06s.54-2.85.77-4.24c1-5.84,1.54-12.53-3.82-17.89s-12.06-4.79-17.9-3.82c-1.4.23-2.82.5-4.24.77s-2.73.52-4.06.74c-6.38,1-9.36.58-11.8-1.86S205,214.42,206.06,208c.22-1.34.48-2.7.74-4.06s.54-2.85.77-4.24c1-5.85,1.54-12.53-3.82-17.89s-12.05-4.79-17.9-3.82c-1.38.22-2.79.49-4.21.76s-2.74.53-4.09.75c-6.38,1.05-9.36.58-11.8-1.87s-2.92-5.42-1.87-11.8c.22-1.34.49-2.7.75-4.07s.54-2.84.77-4.24c1-5.84,1.54-12.52-3.82-17.88s-12.05-4.79-17.9-3.83c-1.4.23-2.82.5-4.24.77s-2.73.52-4.06.74c-6.38,1-9.36.58-11.81-1.86s-2.92-5.43-1.86-11.81c.22-1.34.48-2.7.73-4s.55-2.86.78-4.26c1-5.84,1.54-12.52-3.83-17.89s-12-4.79-17.9-3.82c-1.39.22-2.8.49-4.22.76s-2.74.53-4.08.75c-6.38,1-9.36.57-11.8-1.87s-2.92-5.43-1.87-11.81c.22-1.34.48-2.69.73-4s.55-2.86.78-4.27c1-5.84,1.54-12.53-3.83-17.89a3.5,3.5,0,1,0-5,5c2.45,2.45,2.92,5.43,1.87,11.81-.22,1.34-.48,2.71-.74,4.08s-.54,2.83-.77,4.22c-1,5.84-1.54,12.53,3.83,17.9s12,4.78,17.89,3.83c1.4-.23,2.83-.51,4.25-.78s2.72-.52,4-.74c6.38-1,9.36-.58,11.81,1.87s2.92,5.43,1.87,11.81c-.22,1.34-.48,2.71-.74,4.07s-.54,2.84-.77,4.23c-1,5.84-1.54,12.53,3.82,17.9s12,4.78,17.89,3.82c1.4-.23,2.82-.5,4.24-.77s2.73-.52,4.07-.74c6.38-1,9.36-.58,11.81,1.87s2.91,5.42,1.86,11.79c-.22,1.34-.48,2.7-.74,4.07s-.54,2.84-.77,4.24c-1,5.84-1.54,12.53,3.82,17.89s12,4.79,17.89,3.83c1.4-.24,2.84-.51,4.27-.78s2.7-.52,4-.74c6.39-1.05,9.36-.58,11.81,1.87s2.92,5.42,1.87,11.8c-.22,1.34-.48,2.7-.75,4.07s-.54,2.84-.77,4.23c-1,5.85-1.54,12.53,3.83,17.9s12,4.78,17.88,3.82c1.4-.23,2.82-.5,4.24-.77s2.73-.52,4.07-.74c6.38-1.06,9.36-.58,11.81,1.86s2.91,5.42,1.86,11.8c-.22,1.34-.48,2.7-.74,4.06s-.54,2.85-.77,4.25c-1,5.84-1.55,12.52,3.82,17.89s12,4.79,17.88,3.82c1.4-.23,2.82-.5,4.25-.77s2.72-.52,4.06-.74c6.38-1,9.36-.58,11.81,1.86s2.91,5.43,1.86,11.8c-.22,1.35-.48,2.71-.74,4.08s-.54,2.83-.77,4.23c-1,5.84-1.54,12.53,3.82,17.89s12,4.78,17.88,3.82c1.41-.23,2.83-.5,4.26-.77s2.72-.52,4.05-.74c6.38-1.05,9.36-.58,11.8,1.86s2.92,5.42,1.87,11.8c-.22,1.34-.48,2.71-.74,4.07s-.55,2.84-.78,4.23c-1,5.85-1.54,12.53,3.82,17.9s12,4.78,17.89,3.82c1.4-.23,2.82-.5,4.24-.77s2.73-.52,4.07-.74c6.38-1.06,9.36-.58,11.8,1.86,2.18,2.18,2.77,4.77,2.16,9.64-.07.67-.17,1.39-.3,2.21-.21,1.38-.5,2.84-.77,4.25s-.52,2.67-.73,4c-1,5.85-1.55,12.54,3.82,17.91a3.5,3.5,0,0,0,4.95-5C374.16,386.08,373.69,383.1,374.74,376.71Z"/>
</g>
</g>
</g>
</svg>