<?xml version="1.0" encoding="iso-8859-1"?>
<!-- Uploaded to: SVG Repo, www.svgrepo.com, Generator: SVG Repo Mixer Tools -->
<svg fill="#000000" height="800px" width="800px" version="1.1" id="Layer_1" xmlns="http://www.w3.org/2000/svg" xmlns:xlink="http://www.w3.org/1999/xlink" 
	 viewBox="0 0 512 512" xml:space="preserve">
<g>
	<g>
		<path d="M217.684,189.992c-3.268-3.289-8.582-3.307-11.871-0.043c-3.289,3.266-3.309,8.582-0.043,11.871
			c18.861,18.996,29.246,44.199,29.246,70.967c0,55.539-45.182,100.721-100.721,100.721c-55.344,0-100.408-44.869-100.719-100.141
			c2.119-15.123,15.82-123.008-20.146-149.983c-3.709-2.779-8.967-2.027-11.752,1.678c-2.781,3.709-2.029,8.971,1.678,11.752
			c11.348,8.51,17.609,34.754,17.627,73.895c0.014,31.574-4.072,60.602-4.113,60.891c-0.055,0.393-0.084,0.791-0.084,1.186
			c0,64.795,52.713,117.508,117.508,117.508c64.795,0,117.508-52.713,117.508-117.508
			C251.803,241.557,239.686,212.154,217.684,189.992z"/>
	</g>
</g>
<g>
	<g>
		<path d="M117.508,230.82c-23.141,0-41.967,18.826-41.967,41.967s18.826,41.967,41.967,41.967s41.967-18.826,41.967-41.967
			S140.65,230.82,117.508,230.82z M117.508,297.967c-13.885,0-25.18-11.295-25.18-25.18s11.295-25.18,25.18-25.18
			s25.18,11.295,25.18,25.18S131.394,297.967,117.508,297.967z"/>
	</g>
</g>
<g>
	<g>
		<circle cx="117.508" cy="272.787" r="16.787"/>
	</g>
</g>
<g>
	<g>
		<path d="M510.321,125.062c-2.781-3.709-8.041-4.457-11.752-1.678c-35.965,26.975-22.264,134.861-20.145,149.983
			c-0.311,55.272-45.375,100.141-100.719,100.141c-55.539,0-100.721-45.182-100.721-100.721c0-26.768,10.387-51.971,29.248-70.967
			c3.266-3.289,3.246-8.604-0.043-11.871c-3.289-3.264-8.602-3.246-11.871,0.043c-22.002,22.162-34.121,51.565-34.121,82.795
			c0,64.795,52.713,117.508,117.508,117.508s117.508-52.713,117.508-117.508c0-0.397-0.029-0.793-0.084-1.186
			c-6.219-43.531-8.049-118.615,13.514-134.787C512.35,134.033,513.102,128.771,510.321,125.062z"/>
	</g>
</g>
<g>
	<g>
		<path d="M377.705,230.82c-23.141,0-41.967,18.826-41.967,41.967s18.826,41.967,41.967,41.967s41.967-18.826,41.967-41.967
			S400.846,230.82,377.705,230.82z M377.705,297.967c-13.885,0-25.18-11.295-25.18-25.18s11.295-25.18,25.18-25.18
			s25.18,11.295,25.18,25.18S391.59,297.967,377.705,297.967z"/>
	</g>
</g>
<g>
	<g>
		<circle cx="377.704" cy="272.787" r="16.787"/>
	</g>
</g>
</svg>