<?xml version="1.0" encoding="utf-8"?>
<!-- Uploaded to: SVG Repo, www.svgrepo.com, Generator: SVG Repo Mixer Tools -->
<svg width="800px" height="800px" viewBox="0 0 1024 1024" class="icon"  version="1.1" xmlns="http://www.w3.org/2000/svg"><path d="M517.1 417C404 417 305.5 372.5 254 306.6c-19.8-25.3-48.9-41.5-81.1-41.5-82 0-129.3 93.3-80.7 159.3 80.3 109 240.4 183.4 424.9 183.4 184.5 0 344.6-74.4 424.9-183.4 48.6-66 1.3-159.3-80.7-159.3-32.1 0-61.3 16.2-81.1 41.5-51.5 65.9-150 110.4-263.1 110.4z" fill="#FFD400" /><path d="M517.1 618.8c-90.6 0-179.1-17.9-255.9-51.7C186 534 124.5 486.9 83.3 430.9c-12.8-17.4-20.2-37.6-21.5-58.5-1.2-19.6 2.9-39.4 11.9-57.3s22.6-33 39.1-43.6c17.7-11.4 38.4-17.4 60-17.4 34.3 0 67 16.7 89.7 45.7C313.8 365.4 411.3 406 517.1 406c105.8 0 203.3-40.7 254.5-106.2 22.7-29.1 55.4-45.7 89.7-45.7 21.6 0 42.3 6 60 17.4 16.6 10.7 30.1 25.8 39.1 43.6s13.1 37.6 11.9 57.3c-1.3 20.9-8.8 41.2-21.5 58.5-41.2 56-102.7 103-177.8 136.1-76.8 33.9-165.3 51.8-255.9 51.8zM172.9 276.1c-34.3 0-64 18.3-79.5 48.9-15.5 30.6-12.6 65.3 7.7 92.8 38.9 52.9 97.4 97.5 169 129 74.1 32.6 159.5 49.9 247.1 49.9s173-17.2 247.1-49.9c71.6-31.5 130-76.2 169-129 20.3-27.5 23.2-62.2 7.7-92.8-15.5-30.7-45.2-48.9-79.5-48.9-27.5 0-53.9 13.6-72.4 37.3-26.9 34.3-65.9 63.1-112.8 83.2-47.9 20.5-102.9 31.4-159 31.4s-111.1-10.9-159-31.4c-46.9-20.1-85.9-48.9-112.8-83.2-18.7-23.7-45.1-37.3-72.6-37.3z" fill="#C13105" /><path d="M100.6 289.7l-10.7 10.7c-12.5 12.5-32.8 12.5-45.3 0s-12.5-32.8 0-45.3l10.7-10.7c12.5-12.5 32.8-12.5 45.3 0 12.5 12.4 12.5 32.8 0 45.3z" fill="#FFD400" /><path d="M67.2 320.8c-11 0-22-4.2-30.4-12.6-16.8-16.8-16.8-44.1 0-60.9l10.7-10.7c8.1-8.1 18.9-12.6 30.4-12.6s22.3 4.5 30.4 12.6c16.8 16.8 16.8 44.1 0 60.9l-10.7 10.7c-8.3 8.4-19.3 12.6-30.4 12.6zM77.9 246c-5.6 0-10.9 2.2-14.9 6.1l-10.7 10.7c-8.2 8.2-8.2 21.5 0 29.8 8.2 8.2 21.6 8.2 29.8 0l10.7-10.7c8.2-8.2 8.2-21.5 0-29.8-3.9-3.9-9.2-6.1-14.9-6.1z" fill="#C13105" /><path d="M929.3 293.1l-10.7-10.7c-12.5-12.5-12.5-32.8 0-45.3s32.8-12.5 45.3 0l10.7 10.7c12.5 12.5 12.5 32.8 0 45.3s-32.9 12.5-45.3 0z" fill="#FFD400" /><path d="M951.9 313.5c-11 0-22-4.2-30.4-12.6l-10.7-10.7c-8.1-8.1-12.6-18.9-12.6-30.4s4.5-22.3 12.6-30.4c8.1-8.1 18.9-12.6 30.4-12.6s22.3 4.5 30.4 12.6l10.7 10.7c16.8 16.8 16.8 44.1 0 60.9-8.3 8.3-19.3 12.5-30.4 12.5z m-10.7-74.7c-5.4 0-10.8 2.1-14.9 6.2-8.2 8.2-8.2 21.5 0 29.8l10.7 10.7c8.2 8.2 21.5 8.2 29.8 0 8.2-8.2 8.2-21.5 0-29.8L956.1 245c-4.1-4.2-9.5-6.2-14.9-6.2zM517.1 516.8c-6.1 0-11-4.9-11-11v-83.7c0-6.1 4.9-11 11-11s11 4.9 11 11v83.7c0 6.1-4.9 11-11 11zM625.9 513.3c-4.3 0-8.3-2.5-10.1-6.6l-33.3-76.8c-2.4-5.6 0.1-12.1 5.7-14.5 5.6-2.4 12.1 0.1 14.5 5.7L636 498c2.4 5.6-0.1 12.1-5.7 14.5-1.4 0.5-2.9 0.8-4.4 0.8zM731.1 482.2c-2.8 0-5.6-1.1-7.8-3.2l-59.1-59.2c-4.3-4.3-4.3-11.3 0-15.6 4.3-4.3 11.3-4.3 15.6 0l59.1 59.2c4.3 4.3 4.3 11.3 0 15.6-2.2 2.1-5 3.2-7.8 3.2zM303.1 482.2c-2.8 0-5.6-1.1-7.8-3.2-4.3-4.3-4.3-11.3 0-15.6l59.1-59.2c4.3-4.3 11.3-4.3 15.6 0 4.3 4.3 4.3 11.3 0 15.6L310.9 479c-2.2 2.1-5 3.2-7.8 3.2zM408.2 513.3c-1.5 0-2.9-0.3-4.4-0.9-5.6-2.4-8.1-8.9-5.7-14.5l33.3-76.8c2.4-5.6 8.9-8.1 14.5-5.7 5.6 2.4 8.1 8.9 5.7 14.5l-33.3 76.8c-1.8 4.2-5.8 6.6-10.1 6.6z" fill="#C13105" /><path d="M524.6 607.1c-113.1 0-211.6-44.5-263.1-110.4-19.8-25.3-48.9-41.5-81.1-41.5-82 0-129.3 93.3-80.7 159.3 80.3 109 240.4 183.4 424.9 183.4 184.5 0 344.6-74.4 424.9-183.4 48.6-66 1.3-159.3-80.7-159.3-32.1 0-61.3 16.2-81.1 41.5-51.5 65.8-150 110.4-263.1 110.4z" fill="#F75708" /><path d="M524.6 808.8c-90.6 0-179.1-17.9-255.9-51.7C193.5 724 132 676.9 90.8 621c-12.8-17.4-20.2-37.6-21.5-58.5-1.2-19.6 2.9-39.4 11.9-57.3s22.6-33 39.1-43.6c17.7-11.4 38.4-17.4 60-17.4 34.3 0 67 16.7 89.7 45.7 51.2 65.5 148.7 106.2 254.5 106.2 105.8 0 203.3-40.7 254.5-106.2 22.7-29.1 55.4-45.7 89.7-45.7 21.6 0 42.3 6 60 17.4 16.6 10.7 30.1 25.8 39.1 43.6s13.1 37.6 11.9 57.3c-1.3 20.9-8.8 41.2-21.5 58.5-41.2 56-102.7 103-177.8 136.1-76.7 33.8-165.2 51.7-255.8 51.7zM180.4 466.2c-34.3 0-64 18.3-79.5 48.9-15.5 30.6-12.6 65.3 7.7 92.8 38.9 52.9 97.4 97.5 169 129 74.1 32.6 159.5 49.9 247.1 49.9s173-17.2 247.1-49.9c71.6-31.5 130-76.2 169-129 20.3-27.5 23.2-62.2 7.7-92.8-15.5-30.7-45.2-48.9-79.5-48.9-27.5 0-53.9 13.6-72.4 37.3-26.9 34.3-65.9 63.1-112.8 83.2-47.9 20.5-102.9 31.4-159 31.4s-111.1-10.9-159-31.4c-46.9-20.1-85.9-48.9-112.8-83.2-18.7-23.8-45.1-37.3-72.6-37.3z" fill="#C13105" /><path d="M108.1 479.7l-10.7 10.7c-12.5 12.5-32.8 12.5-45.3 0s-12.5-32.8 0-45.3l10.7-10.7c12.5-12.5 32.8-12.5 45.3 0 12.4 12.5 12.4 32.8 0 45.3z" fill="#F75708" /><path d="M74.7 510.8c-11 0-22-4.2-30.4-12.6-16.8-16.8-16.8-44.1 0-60.9L55 426.6c16.8-16.8 44.1-16.8 60.9 0 16.8 16.8 16.8 44.1 0 60.9l-10.7 10.7c-8.4 8.4-19.4 12.6-30.5 12.6zM85.4 436c-5.4 0-10.8 2.1-14.9 6.2l-10.7 10.7c-8.2 8.2-8.2 21.5 0 29.8 8.2 8.2 21.6 8.2 29.8 0l10.7-10.7c3.9-3.9 6.1-9.2 6.1-14.9s-2.2-10.9-6.1-14.9c-4.1-4.1-9.5-6.2-14.9-6.2z" fill="#C13105" /><path d="M936.8 483.2l-10.7-10.7c-12.5-12.5-12.5-32.8 0-45.3s32.8-12.5 45.3 0l10.7 10.7c12.5 12.5 12.5 32.8 0 45.3-12.5 12.4-32.9 12.4-45.3 0z" fill="#F75708" /><path d="M959.4 503.5c-11.5 0-22.3-4.5-30.4-12.6l-10.7-10.7c-8.1-8.1-12.6-18.9-12.6-30.4s4.5-22.3 12.6-30.4c8.1-8.1 18.9-12.6 30.4-12.6s22.3 4.5 30.4 12.6l10.7 10.7c8.1 8.1 12.6 18.9 12.6 30.4s-4.5 22.3-12.6 30.4c-8 8.1-18.8 12.6-30.4 12.6z m-10.7-74.7c-5.4 0-10.8 2.1-14.9 6.2-8.2 8.2-8.2 21.5 0 29.8l10.7 10.7c8.2 8.2 21.5 8.2 29.8 0 8.2-8.2 8.2-21.5 0-29.8L963.6 435c-4.1-4.2-9.5-6.2-14.9-6.2z" fill="#C13105" /><path d="M524.6 735.9c-6.1 0-11-4.9-11-11v-83.7c0-6.1 4.9-11 11-11s11 4.9 11 11v83.7c0 6.1-4.9 11-11 11zM633.4 732.5c-4.3 0-8.3-2.5-10.1-6.6L590 649.1c-2.4-5.6 0.1-12.1 5.7-14.5 5.6-2.4 12.1 0.1 14.5 5.7l33.3 76.8c2.4 5.6-0.1 12.1-5.7 14.5-1.4 0.6-2.9 0.9-4.4 0.9zM738.6 701.3c-2.8 0-5.6-1.1-7.8-3.2l-59.1-59.2c-4.3-4.3-4.3-11.3 0-15.6 4.3-4.3 11.3-4.3 15.6 0l59.1 59.2c4.3 4.3 4.3 11.3 0 15.6-2.2 2.1-5 3.2-7.8 3.2zM310.6 701.3c-2.8 0-5.6-1.1-7.8-3.2-4.3-4.3-4.3-11.3 0-15.6l59.1-59.2c4.3-4.3 11.3-4.3 15.6 0 4.3 4.3 4.3 11.3 0 15.6l-59.1 59.2c-2.2 2.1-5 3.2-7.8 3.2zM415.7 732.5c-1.5 0-2.9-0.3-4.4-0.9-5.6-2.4-8.1-8.9-5.7-14.5l33.3-76.8c2.4-5.6 8.9-8.1 14.5-5.7 5.6 2.4 8.1 8.9 5.7 14.5l-33.3 76.8c-1.8 4.1-5.8 6.6-10.1 6.6z" fill="#FFD400" /></svg>