<?xml version="1.0" encoding="iso-8859-1"?>
<!-- Uploaded to: SVG Repo, www.svgrepo.com, Generator: SVG Repo Mixer Tools -->
<svg height="800px" width="800px" version="1.1" id="Layer_1" xmlns="http://www.w3.org/2000/svg" xmlns:xlink="http://www.w3.org/1999/xlink" 
	 viewBox="0 0 436.7 436.7" xml:space="preserve">
<ellipse style="opacity:0.5;fill:#B8CBCD;enable-background:new    ;" cx="222.45" cy="389.4" rx="190.7" ry="47.3"/>
<circle style="fill:#B9E3ED;" cx="218.35" cy="208.6" r="192"/>
<circle style="fill:#FFFFFF;" cx="218.35" cy="208" r="124"/>
<g>
	<circle style="fill:#324654;" cx="359.85" cy="208" r="8"/>
	<circle style="fill:#324654;" cx="75.85" cy="208" r="8"/>
	<circle style="fill:#324654;" cx="219.85" cy="348" r="8"/>
	<path style="fill:#324654;" d="M210.85,272.5h-59.9c-4.7,0-8.5-3.8-8.5-8.5c0-16,14.5-29.3,29.9-43.4
		c12.6-11.5,26.9-24.6,26.9-35.5c0-13.7-11.6-19.9-19.9-19.9c-6.9,0-23,2.2-23,23c0,4.7-3.8,8.5-8.5,8.5c-4.7,0-8.5-3.8-8.5-8.5
		c0-27.7,20.1-40,40-40c18.1,0,36.9,13.8,36.9,36.9c0,18.3-16.5,33.4-32.4,48c-8,7.3-16.7,15.3-21.2,22.3h48.3
		c4.7,0,8.5,3.8,8.5,8.5S215.55,272.5,210.85,272.5z"/>
	<path style="fill:#324654;" d="M275.85,272.5c-4.7,0-8.5-3.8-8.5-8.5v-23.5h-39.5c-3.1,0-5.9-1.7-7.4-4.4c-1.5-2.7-1.4-6,0.3-8.6
		l48-76c2-3.2,5.9-4.7,9.5-3.6c3.6,1.1,6.1,4.4,6.1,8.2v67.5h15.5c4.7,0,8.5,3.8,8.5,8.5s-3.8,8.5-8.5,8.5h-15.5v23.5
		C284.35,268.7,280.55,272.5,275.85,272.5z M243.25,223.5h24.1v-38.1L243.25,223.5z"/>
</g>
<path style="fill:#A1D2DB;" d="M218.35,63.4c97.8,0,178.5,73.4,190.1,168c0.9-7.7,1.5-15.6,1.5-23.5c0-105.8-85.8-191.6-191.6-191.6
	s-191.6,85.8-191.6,191.6c0,8,0.5,15.8,1.5,23.5C39.95,136.8,120.55,63.4,218.35,63.4z"/>
<g>
	<path style="fill:#324654;" d="M218.35,408c-112.5,0-204-91.5-204-204s91.5-204,204-204c45.7,0,88.8,14.8,124.9,42.7
		c5.2,4.1,6.2,11.6,2.1,16.8s-11.6,6.2-16.8,2.1C296.75,37,258.65,24,218.35,24c-99.3,0-180,80.7-180,180s80.7,180,180,180
		s180-80.7,180-180c0-6.6,5.4-12,12-12s12,5.4,12,12C422.35,316.5,330.75,408,218.35,408z"/>
	<path style="fill:#324654;" d="M351.85,84h-56c-6.6,0-12-5.4-12-12s5.4-12,12-12h44V15.5c0-6.6,5.4-12,12-12s12,5.4,12,12v56.6
		C363.85,78.6,358.45,84,351.85,84z"/>
	<circle style="fill:#324654;" cx="219.85" cy="68" r="8"/>
</g>
</svg>