<?xml version="1.0" encoding="iso-8859-1"?>
<!-- Uploaded to: SVG Repo, www.svgrepo.com, Generator: SVG Repo Mixer Tools -->
<svg version="1.1" id="Layer_1" xmlns="http://www.w3.org/2000/svg" xmlns:xlink="http://www.w3.org/1999/xlink" 
	 viewBox="0 0 474.6 474.6" xml:space="preserve">
<path style="fill:#F7BB83;" d="M386.7,47.8L374,19.3c-1.8-4-6.9-7.3-11.3-7.3h-244c-4.4,0-9.9,3-12.3,6.8L90.7,43.9"/>
<ellipse style="opacity:0.5;fill:#B8CBCD;enable-background:new    ;" cx="237.3" cy="427.3" rx="190.7" ry="47.3"/>
<path style="fill:#F7BB83;" d="M90.7,38.8V404c0,8.8,7.2,16,16,16h264c8.8,0,16-7.2,16-16V38.8"/>
<path style="fill:#6E4123;" d="M370.7,432h-264c-15.4,0-28-12.6-28-28V47.8c0-6.6,5.4-12,12-12s12,5.4,12,12V404c0,2.2,1.8,4,4,4
	h264c2.2,0,4-1.8,4-4V55.8c0-6.6,5.4-12,12-12s12,5.4,12,12V404C398.7,419.4,386.1,432,370.7,432z"/>
<path style="fill:#FFFFFF;" d="M150.7,87.8c-8.8,0-16,7.2-16,16V352c0,8.8,7.2,16,16,16h176c8.8,0,16-7.2,16-16V103.8
	c0-8.8-7.2-16-16-16H150.7z"/>
<g>
	<rect x="91.7" y="39.3" style="fill:#6E4123;" width="300" height="17"/>
	<rect x="134.7" y="211.5" style="fill:#6E4123;" width="208" height="17"/>
	<rect x="134.7" y="283.5" style="fill:#6E4123;" width="208" height="17"/>
	<polyline style="fill:#6E4123;" points="134.7,164.3 134.7,147.3 342.7,147.3 342.7,164.3 	"/>
</g>
<g>
	<path style="fill:#F2E49B;" d="M180.7,183.8L180.7,183.8c-7.7,0-14-6.3-14-14v-24c0-7.7,6.3-14,14-14l0,0c7.7,0,14,6.3,14,14v24
		C194.7,177.5,188.4,183.8,180.7,183.8z"/>
	<path style="fill:#F2E49B;" d="M272.7,183.8L272.7,183.8c-7.7,0-14-6.3-14-14v-24c0-7.7,6.3-14,14-14l0,0c7.7,0,14,6.3,14,14v24
		C286.7,177.5,280.4,183.8,272.7,183.8z"/>
	<path style="fill:#F2E49B;" d="M228.7,252L228.7,252c-7.7,0-14-6.3-14-14v-24c0-7.7,6.3-14,14-14l0,0c7.7,0,14,6.3,14,14v24
		C242.7,245.7,236.4,252,228.7,252z"/>
	<path style="fill:#F2E49B;" d="M296.7,316L296.7,316c-7.7,0-14-6.3-14-14v-24c0-7.7,6.3-14,14-14l0,0c7.7,0,14,6.3,14,14v24
		C310.7,309.7,304.4,316,296.7,316z"/>
	<path style="fill:#F2E49B;" d="M188.7,316L188.7,316c-7.7,0-14-6.3-14-14v-24c0-7.7,6.3-14,14-14l0,0c7.7,0,14,6.3,14,14v24
		C202.7,309.7,196.4,316,188.7,316z"/>
</g>
<rect x="142.7" y="348" style="fill:#F7BB83;" width="192" height="12"/>
<g>
	<rect x="134.7" y="331.5" style="fill:#6E4123;" width="204" height="17"/>
	<path style="fill:#6E4123;" d="M326.7,370h-176c-9.9,0-18-8.1-18-18V103.8c0-9.9,8.1-18,18-18h176c9.9,0,18,8.1,18,18V352
		C344.7,361.9,336.6,370,326.7,370z M150.7,89.8c-7.7,0-14,6.3-14,14V352c0,7.7,6.3,14,14,14h176c7.7,0,14-6.3,14-14V103.8
		c0-7.7-6.3-14-14-14H150.7z"/>
	<path style="fill:#6E4123;" d="M385.7,62.8c-4.9,0-9.4-3-11.2-7.8L363,24.4c-0.2-0.2-0.5-0.3-0.7-0.4H118.8
		c-0.6,0.1-1.8,0.8-2.3,1.3l-15.7,24.9c-3.5,5.6-10.9,7.3-16.5,3.8S77,43.1,80.5,37.5l15.7-25.1C100.7,5.2,110.1,0,118.6,0h244
		c9.1,0,18.5,6.1,22.2,14.4l0.3,0.7l11.7,31.5c2.3,6.2-0.8,13.1-7.1,15.4C388.5,62.6,387.1,62.8,385.7,62.8z"/>
	<path style="fill:#6E4123;" d="M326.7,376.5h-176c-13.5,0-24.5-11-24.5-24.5V103.8c0-13.5,11-24.5,24.5-24.5h176
		c13.5,0,24.5,11,24.5,24.5V352C351.2,365.5,340.2,376.5,326.7,376.5z M150.7,96.3c-4.1,0-7.5,3.4-7.5,7.5V352
		c0,4.1,3.4,7.5,7.5,7.5h176c4.1,0,7.5-3.4,7.5-7.5V103.8c0-4.1-3.4-7.5-7.5-7.5H150.7z"/>
	<path style="fill:#6E4123;" d="M180.7,192.3c-12.4,0-22.5-10.1-22.5-22.5v-24c0-12.4,10.1-22.5,22.5-22.5s22.5,10.1,22.5,22.5v24
		C203.2,182.2,193.1,192.3,180.7,192.3z M180.7,140.3c-3,0-5.5,2.5-5.5,5.5v24c0,3,2.5,5.5,5.5,5.5s5.5-2.5,5.5-5.5v-24
		C186.2,142.8,183.6,140.3,180.7,140.3z"/>
	<path style="fill:#6E4123;" d="M272.7,192.3c-12.4,0-22.5-10.1-22.5-22.5v-24c0-12.4,10.1-22.5,22.5-22.5s22.5,10.1,22.5,22.5v24
		C295.2,182.2,285.1,192.3,272.7,192.3z M272.7,140.3c-3,0-5.5,2.5-5.5,5.5v24c0,3,2.5,5.5,5.5,5.5s5.5-2.5,5.5-5.5v-24
		C278.2,142.8,275.6,140.3,272.7,140.3z"/>
	<path style="fill:#6E4123;" d="M228.7,260.5c-12.4,0-22.5-10.1-22.5-22.5v-24c0-12.4,10.1-22.5,22.5-22.5
		c12.4,0,22.5,10.1,22.5,22.5v24C251.2,250.4,241.1,260.5,228.7,260.5z M228.7,208.5c-3,0-5.5,2.5-5.5,5.5v24c0,3,2.5,5.5,5.5,5.5
		s5.5-2.5,5.5-5.5v-24C234.2,211,231.6,208.5,228.7,208.5z"/>
	<path style="fill:#6E4123;" d="M296.7,324.5c-12.4,0-22.5-10.1-22.5-22.5v-24c0-12.4,10.1-22.5,22.5-22.5s22.5,10.1,22.5,22.5v24
		C319.2,314.4,309.1,324.5,296.7,324.5z M296.7,272.5c-3,0-5.5,2.5-5.5,5.5v24c0,3,2.5,5.5,5.5,5.5s5.5-2.5,5.5-5.5v-24
		C302.2,275,299.6,272.5,296.7,272.5z"/>
	<path style="fill:#6E4123;" d="M188.7,324.5c-12.4,0-22.5-10.1-22.5-22.5v-24c0-12.4,10.1-22.5,22.5-22.5s22.5,10.1,22.5,22.5v24
		C211.2,314.4,201.1,324.5,188.7,324.5z M188.7,272.5c-3,0-5.5,2.5-5.5,5.5v24c0,3,2.5,5.5,5.5,5.5s5.5-2.5,5.5-5.5v-24
		C194.2,275,191.6,272.5,188.7,272.5z"/>
</g>
</svg>