<?xml version="1.0" encoding="iso-8859-1"?>
<!-- Uploaded to: SVG Repo, www.svgrepo.com, Generator: SVG Repo Mixer Tools -->
<svg version="1.1" id="Layer_1" xmlns="http://www.w3.org/2000/svg" xmlns:xlink="http://www.w3.org/1999/xlink" 
	 viewBox="0 0 456 456" xml:space="preserve">
<ellipse style="opacity:0.5;fill:#B8CBCD;enable-background:new    ;" cx="230.7" cy="398" rx="190.7" ry="47.3"/>
<rect x="12" y="102.7" style="fill:#B9E3ED;" width="432" height="272"/>
<g>
	<path style="fill:#324654;" d="M444,386.7h-24c-6.6,0-12-5.4-12-12s5.4-12,12-12h12v-12c0-6.6,5.4-12,12-12s12,5.4,12,12v24
		C456,381.3,450.6,386.7,444,386.7z"/>
	<path style="fill:#324654;" d="M381.3,386.7h-41c-6.6,0-12-5.4-12-12s5.4-12,12-12h41c6.6,0,12,5.4,12,12S388,386.7,381.3,386.7z
		 M294.3,386.7h-41c-6.6,0-12-5.4-12-12s5.4-12,12-12h41c6.6,0,12,5.4,12,12S301,386.7,294.3,386.7z M207.3,386.7h-41
		c-6.6,0-12-5.4-12-12s5.4-12,12-12h41c6.6,0,12,5.4,12,12S214,386.7,207.3,386.7z M120.3,386.7h-41c-6.6,0-12-5.4-12-12
		s5.4-12,12-12h41c6.6,0,12,5.4,12,12S127,386.7,120.3,386.7z"/>
	<path style="fill:#324654;" d="M36,386.7H12c-6.6,0-12-5.4-12-12v-24c0-6.6,5.4-12,12-12s12,5.4,12,12v12h12c6.6,0,12,5.4,12,12
		S42.6,386.7,36,386.7z"/>
	<path style="fill:#324654;" d="M12,317.9c-6.6,0-12-5.4-12-12v-41c0-6.6,5.4-12,12-12s12,5.4,12,12v41
		C24,312.5,18.6,317.9,12,317.9z M12,232.9c-6.6,0-12-5.4-12-12v-41c0-6.6,5.4-12,12-12s12,5.4,12,12v41
		C24,227.5,18.6,232.9,12,232.9z"/>
	<path style="fill:#324654;" d="M12,138.7c-6.6,0-12-5.4-12-12v-24c0-6.6,5.4-12,12-12h24c6.6,0,12,5.4,12,12c0,6.6-5.4,12-12,12H24
		v12C24,133.3,18.6,138.7,12,138.7z"/>
	<path style="fill:#324654;" d="M374.7,114.7h-41c-6.6,0-12-5.4-12-12s5.4-12,12-12h41c6.6,0,12,5.4,12,12
		C386.7,109.3,381.3,114.7,374.7,114.7z M289.7,114.7h-41c-6.6,0-12-5.4-12-12s5.4-12,12-12h41c6.6,0,12,5.4,12,12
		C301.7,109.3,296.3,114.7,289.7,114.7z M204.7,114.7h-41c-6.6,0-12-5.4-12-12s5.4-12,12-12h41c6.6,0,12,5.4,12,12
		C216.7,109.3,211.3,114.7,204.7,114.7z M119.7,114.7h-41c-6.6,0-12-5.4-12-12s5.4-12,12-12h41c6.6,0,12,5.4,12,12
		C131.7,109.3,126.3,114.7,119.7,114.7z"/>
	<path style="fill:#324654;" d="M444,138.7c-6.6,0-12-5.4-12-12v-12h-12c-6.6,0-12-5.4-12-12s5.4-12,12-12h24c6.6,0,12,5.4,12,12v24
		C456,133.3,450.6,138.7,444,138.7z"/>
	<path style="fill:#324654;" d="M444,309.5c-6.6,0-12-5.4-12-12v-41c0-6.6,5.4-12,12-12s12,5.4,12,12v41
		C456,304.1,450.6,309.5,444,309.5z M444,224.5c-6.6,0-12-5.4-12-12v-41c0-6.6,5.4-12,12-12s12,5.4,12,12v41
		C456,219.1,450.6,224.5,444,224.5z"/>
	<path style="fill:#324654;" d="M80,323.2c-4.7,0-8.5-3.8-8.5-8.5v-148c0-4.7,3.8-8.5,8.5-8.5s8.5,3.8,8.5,8.5v148
		C88.5,319.4,84.7,323.2,80,323.2z"/>
	<path style="fill:#324654;" d="M188,323.2c-4.7,0-8.5-3.8-8.5-8.5v-148c0-4.7,3.8-8.5,8.5-8.5s8.5,3.8,8.5,8.5v148
		C196.5,319.4,192.7,323.2,188,323.2z"/>
	<path style="fill:#324654;" d="M212,323.2c-4.7,0-8.5-3.8-8.5-8.5v-148c0-4.7,3.8-8.5,8.5-8.5s8.5,3.8,8.5,8.5v148
		C220.5,319.4,216.7,323.2,212,323.2z"/>
	<path style="fill:#324654;" d="M352,323.2c-4.7,0-8.5-3.8-8.5-8.5v-148c0-4.7,3.8-8.5,8.5-8.5s8.5,3.8,8.5,8.5v148
		C360.5,319.4,356.7,323.2,352,323.2z"/>
	<path style="fill:#324654;" d="M376,323.2c-4.7,0-8.5-3.8-8.5-8.5v-148c0-4.7,3.8-8.5,8.5-8.5s8.5,3.8,8.5,8.5v148
		C384.5,319.4,380.7,323.2,376,323.2z"/>
	<path style="fill:#324654;" d="M280,323.2c-4.7,0-8.5-3.8-8.5-8.5v-148c0-4.7,3.8-8.5,8.5-8.5s8.5,3.8,8.5,8.5v148
		C288.5,319.4,284.7,323.2,280,323.2z"/>
	<path style="fill:#324654;" d="M112,322.5c-6.6,0-12-5.4-12-12V170.9c0-6.6,5.4-12,12-12s12,5.4,12,12v139.5
		C124,317.1,118.6,322.5,112,322.5z"/>
	<path style="fill:#324654;" d="M144,322.5c-6.6,0-12-5.4-12-12V170.9c0-6.6,5.4-12,12-12s12,5.4,12,12v139.5
		C156,317.1,150.6,322.5,144,322.5z"/>
	<path style="fill:#324654;" d="M244,322.5c-6.6,0-12-5.4-12-12V170.9c0-6.6,5.4-12,12-12s12,5.4,12,12v139.5
		C256,317.1,250.6,322.5,244,322.5z"/>
</g>
<rect x="212" y="86.7" style="fill:#FFFFFF;" width="35" height="28"/>
<g>
	<path style="fill:#324654;" d="M324,322.5c-6.6,0-12-5.4-12-12V170.9c0-6.6,5.4-12,12-12s12,5.4,12,12v139.5
		C336,317.1,330.6,322.5,324,322.5z"/>
	<path style="fill:#324654;" d="M188,158.7c-4.4,0-8.6-2.4-10.7-6.6c-3-5.9-0.6-13.1,5.4-16.1l176-88c5.9-3,13.1-0.6,16.1,5.4
		c3,5.9,0.6,13.1-5.4,16.1l-176,88C191.6,158.3,189.8,158.7,188,158.7z"/>
	<path style="fill:#324654;" d="M364,158.7c-1.8,0-3.6-0.4-5.4-1.3l-176-88c-5.9-3-8.3-10.2-5.4-16.1c3-5.9,10.2-8.3,16.1-5.4
		l176,88c5.9,3,8.3,10.2,5.4,16.1C372.6,156.3,368.4,158.7,364,158.7z"/>
</g>
<circle style="fill:#FFFFFF;" cx="184" cy="62.7" r="40"/>
<path style="fill:#324654;" d="M184,114.7c-28.7,0-52-23.3-52-52s23.3-52,52-52s52,23.3,52,52S212.7,114.7,184,114.7z M184,34.7
	c-15.4,0-28,12.6-28,28s12.6,28,28,28s28-12.6,28-28S199.4,34.7,184,34.7z"/>
<circle style="fill:#FFFFFF;" cx="184" cy="142.7" r="40"/>
<path style="fill:#324654;" d="M184,194.7c-28.7,0-52-23.3-52-52s23.3-52,52-52s52,23.3,52,52S212.7,194.7,184,194.7z M184,114.7
	c-15.4,0-28,12.6-28,28s12.6,28,28,28s28-12.6,28-28S199.4,114.7,184,114.7z"/>
</svg>