<?xml version="1.0" encoding="iso-8859-1"?>
<!-- Uploaded to: SVG Repo, www.svgrepo.com, Generator: SVG Repo Mixer Tools -->
<svg height="800px" width="800px" version="1.1" id="Layer_1" xmlns="http://www.w3.org/2000/svg" xmlns:xlink="http://www.w3.org/1999/xlink" 
	 viewBox="0 0 436.2 436.2" xml:space="preserve">
<ellipse style="opacity:0.5;fill:#B8CBCD;enable-background:new    ;" cx="220.247" cy="388.9" rx="190.7" ry="47.3"/>
<path style="fill:#F6E89A;" d="M400.847,233.7c-19.1,95.5-82.1,130.9-183.3,130.9s-166.9-35-183.3-130.9
	c-16.6-98.4,43.4-221.7,183.4-221.7S421.647,129.9,400.847,233.7z"/>
<path style="fill:#8D4520;" d="M217.647,376.6c-55.8,0-98.3-10.3-130.1-31.5c-34.7-23.1-56.6-59.9-65-109.4
	c-4.9-28.8-3.6-59.4,3.8-88.5c7.7-30.4,21.9-58.5,41.1-81.2c25.4-30.1,72.1-66,150.1-66c33.2,0,63.8,6.3,90.8,18.8
	c25.2,11.6,46.8,28.4,64.3,49.7c36.9,45.1,51.8,107.7,39.9,167.5c-10,50.1-31.6,85.7-65.9,108.9
	C315.147,366.2,272.947,376.6,217.647,376.6z M217.647,24c-54.5,0-100.1,19.9-131.8,57.4c-33.5,39.6-48.7,97.2-39.6,150.2
	c14.2,83.6,67.1,120.9,171.4,120.9c101.8,0,154.7-37.4,171.5-121.3c10.6-52.9-2.5-108.1-34.9-147.6
	C331.847,56.5,290.047,24,217.647,24z"/>
<ellipse style="fill:#F6E89A;" cx="217.647" cy="233.3" rx="183.3" ry="176.3"/>
<g>
	<path style="fill:#8D4520;" d="M217.647,64.3c-4.7,0-8.5-3.8-8.5-8.5V12c0-4.7,3.8-8.5,8.5-8.5s8.5,3.8,8.5,8.5v43.8
		C226.147,60.5,222.347,64.3,217.647,64.3z"/>
	<path style="fill:#8D4520;" d="M167.647,75.4c-4.7,0-8.5-3.8-8.5-8.5V25.3c0-4.7,3.8-8.5,8.5-8.5s8.5,3.8,8.5,8.5v41.5
		C176.147,71.6,172.347,75.4,167.647,75.4z"/>
	<path style="fill:#8D4520;" d="M117.647,94.8c-4.7,0-8.5-3.8-8.5-8.5v-45c0-4.7,3.8-8.5,8.5-8.5s8.5,3.8,8.5,8.5v45
		C126.147,91,122.347,94.8,117.647,94.8z"/>
	<path style="fill:#8D4520;" d="M269.547,76.5c-4.7,0-8.5-3.8-8.5-8.5V25.3c0-4.7,3.8-8.5,8.5-8.5s8.5,3.8,8.5,8.5V68
		C278.047,72.7,274.247,76.5,269.547,76.5z"/>
	<path style="fill:#8D4520;" d="M319.547,94.8c-4.7,0-8.5-3.8-8.5-8.5v-45c0-4.7,3.8-8.5,8.5-8.5s8.5,3.8,8.5,8.5v45
		C328.047,91,324.247,94.8,319.547,94.8z"/>
</g>
<path style="fill:#E8C980;" d="M217.647,334c-69.5,0-126.8-50.5-134.4-115.4c-0.6,4.8-0.9,9.7-0.9,14.7
	c0,71.9,60.6,130.1,135.3,130.1s135.3-58.3,135.3-130.1c0-5-0.3-9.9-0.9-14.7C344.347,283.5,287.147,334,217.647,334z"/>
<g>
	<path style="fill:#8D4520;" d="M217.647,368.1c-77.1,0-139.8-60.5-139.8-134.8c0-36.9,15.2-71.3,42.7-97c3.4-3.2,8.8-3,12,0.4
		s3,8.8-0.4,12c-24,22.4-37.3,52.4-37.3,84.5c0,65,55.1,117.8,122.8,117.8s122.8-52.8,122.8-117.8c0-33.4-14.9-65.4-40.8-87.7
		c-3.6-3.1-4-8.4-0.9-12s8.4-4,12-0.9c29.7,25.6,46.7,62.2,46.7,100.6C357.347,307.6,294.647,368.1,217.647,368.1z"/>
	<path style="fill:#8D4520;" d="M222.647,305.5c-6.6,0-12-5.4-12-12V182.9l-23,16.4c-5.4,3.9-12.9,2.6-16.7-2.8
		c-3.9-5.4-2.6-12.9,2.8-16.7l42-30c3.7-2.6,8.5-3,12.5-0.9s6.5,6.2,6.5,10.7v134C234.647,300.1,229.247,305.5,222.647,305.5z"/>
	<path style="fill:#8D4520;" d="M250.647,306.9h-61.3c-6.6,0-12-5.4-12-12c0-6.6,5.4-12,12-12h61.3c6.6,0,12,5.4,12,12
		C262.647,301.5,257.347,306.9,250.647,306.9z"/>
</g>
<path style="fill:#FFFFFF;" d="M217.647,91.3c95.2,0,173.4,69.8,182.4,159.1c0.6-5.7,0.9-11.4,0.9-17.2
	c0-97.4-82.1-176.3-183.3-176.3s-183.3,78.9-183.3,176.3c0,5.8,0.3,11.5,0.9,17.2C44.247,161.2,122.447,91.3,217.647,91.3z"/>
<path style="fill:#8D4520;" d="M217.647,421.6c-107.7,0-195.3-84.5-195.3-188.3s87.6-188.4,195.3-188.4s195.3,84.5,195.3,188.3
	S325.247,421.6,217.647,421.6z M217.647,68.9c-94.4,0-171.3,73.7-171.3,164.3s76.8,164.3,171.3,164.3c94.4,0,171.3-73.7,171.3-164.3
	S312.047,68.9,217.647,68.9z"/>
</svg>