<?xml version="1.0" encoding="iso-8859-1"?>
<!-- Uploaded to: SVG Repo, www.svgrepo.com, Generator: SVG Repo Mixer Tools -->
<svg version="1.1" id="Layer_1" xmlns="http://www.w3.org/2000/svg" xmlns:xlink="http://www.w3.org/1999/xlink" 
	 viewBox="0 0 512.477 512.477" xml:space="preserve">
<ellipse style="opacity:0.5;fill:#B8CBCD;enable-background:new    ;" cx="225.872" cy="465.177" rx="190.7" ry="47.3"/>
<path style="fill:#EBBC96;" d="M324.672,294.277c-10.9-9-26.9-7.5-35.9,3.4l-20.7,25c3.6-9.8,0.8-21.3-7.7-28.4
	c-8.3-6.9-19.8-7.6-28.7-2.6c7.1-10.7,5.1-25.3-5-33.7c-10.9-9-26.9-7.5-35.9,3.4l-112.8,136c-9,10.9-7.5,26.9,3.4,35.9
	c8.3,6.9,19.8,7.6,28.7,2.6c-7.1,10.7-5.1,25.3,5,33.7c10.9,9,26.9,7.5,35.9-3.4l20.7-25c-3.6,9.8-0.8,21.3,7.7,28.3
	c10.9,9,26.9,7.5,35.9-3.4l112.8-136C337.072,319.377,335.572,303.277,324.672,294.277z"/>
<path style="fill:#4F3625;" d="M131.372,487.477c-8.7,0-17.2-3.1-23.9-8.6c-8.6-7.2-13.3-17.4-13.6-27.9c-7.4-0.7-14.4-3.7-20.1-8.4
	c-7.7-6.4-12.5-15.4-13.4-25.3s2.1-19.7,8.5-27.4l112.8-136c7.1-8.6,17.7-13.6,28.9-13.6c8.7,0,17.2,3.1,23.9,8.6
	c8.6,7.2,13.3,17.4,13.6,27.9c7.4,0.7,14.4,3.7,20.1,8.4c3.2,2.7,5.9,5.8,8,9.2l3.5-4.2c7.1-8.7,17.7-13.6,28.9-13.6
	c8.7,0,17.2,3.1,23.9,8.6c7.8,6.4,12.6,15.5,13.5,25.5s-2.1,19.6-8.5,27.3l-113,135.8c-7.1,8.6-17.7,13.6-28.9,13.6l0,0
	c-8.7,0-17.2-3.1-23.9-8.6c-3.2-2.6-5.9-5.7-8-9.2l-3.5,4.3C153.072,482.477,142.572,487.477,131.372,487.477z M110.072,423.877
	c3.3,0,6.5,1.3,8.8,3.8c3.8,4.1,4.3,10.2,1.2,14.8c-3.8,5.7-2.7,13.4,2.7,17.8c3.1,2.6,6.4,3.1,8.6,3.1c4,0,7.8-1.8,10.4-4.9
	l20.7-25c3.7-4.5,10.2-5.7,15.2-2.8c5.1,2.9,7.3,9.1,5.3,14.5c-1.9,5.3-0.3,11.3,4.1,14.9c3.1,2.6,6.4,3.1,8.6,3.1l0,0
	c4,0,7.8-1.8,10.4-4.9l112.8-136c2.3-2.7,3.4-6.2,3.1-9.7c-0.3-3.6-2.1-6.9-4.9-9.2c-3.1-2.6-6.4-3.1-8.6-3.1c-4,0-7.8,1.8-10.4,4.9
	l-20.7,25c-3.7,4.5-10.2,5.7-15.2,2.8c-5.1-2.9-7.3-9.1-5.3-14.5c2-5.3,0.3-11.4-4.1-15.1c-3-2.5-6.3-3.1-8.5-3.1
	c-2.3,0-4.6,0.6-6.6,1.7c-4.8,2.7-10.9,1.8-14.7-2.3c-3.8-4.1-4.3-10.2-1.2-14.8c3.8-5.7,2.7-13.4-2.7-17.8
	c-3.1-2.6-6.4-3.1-8.6-3.1c-4,0-7.8,1.8-10.4,4.9l-112.9,136.2c-2.3,2.8-3.4,6.3-3.1,9.9s2.1,6.8,4.9,9.1c3.1,2.6,6.4,3.1,8.6,3.1
	c2.3,0,4.6-0.6,6.6-1.7C106.072,424.377,108.072,423.877,110.072,423.877z"/>
<path style="fill:#B2EDA6;" d="M403.172,404.377c0,8.8-7.2,16-16,16h-332c-8.8,0-16-7.2-16-16v-204c0-8.8,7.2-16,16-16h332
	c8.8,0,16,7.2,16,16V404.377z"/>
<g>
	<path style="fill:#3C663E;" d="M387.172,432.377h-332c-15.4,0-28-12.6-28-28v-204c0-15.4,12.6-28,28-28h332c15.4,0,28,12.6,28,28
		v204C415.172,419.777,402.572,432.377,387.172,432.377z M55.172,196.377c-2.2,0-4,1.8-4,4v204c0,2.2,1.8,4,4,4h332c2.2,0,4-1.8,4-4
		v-204c0-2.2-1.8-4-4-4H55.172z"/>
	<rect x="40.472" y="220.677" style="fill:#3C663E;" width="365.2" height="47.1"/>
</g>
<rect x="213.272" y="287.677" style="fill:#E7FFE1;" width="157.1" height="39.3"/>
<path style="fill:#3C663E;" d="M370.372,334.977h-157.1c-4.4,0-8-3.6-8-8v-39.3c0-4.4,3.6-8,8-8h157.1c4.4,0,8,3.6,8,8v39.3
	C378.372,331.377,374.772,334.977,370.372,334.977z M221.272,318.977h141.1v-23.3h-141.1V318.977z"/>
<path id="SVGCleanerId_0" style="fill:#EBBC96;" d="M297.072,165.577c0,0-22.3,14-52.4,24.3c-27.1,9.3-59.7,15.1-59.7,15.1
	s-1.1,43.5-5.5,64.3c-4.4,20.8-43.5,31.3-55.5,1.5s-15.1-75.9-6.7-103s36.6-46.2,59.1-58.4c10-5.4,17.2-8.5,28-11.7
	c0,0,84.6-82.3,86.2-84.3c16.2-20.5,71-4.2,122.2,36.4c51.3,40.6,79.6,90.2,63.4,110.7c-1.1,1.4-44.2,33.1-64.9,59.2"/>
<g>
	<path id="SVGCleanerId_0_1_" style="fill:#EBBC96;" d="M297.072,165.577c0,0-22.3,14-52.4,24.3c-27.1,9.3-59.7,15.1-59.7,15.1
		s-1.1,43.5-5.5,64.3c-4.4,20.8-43.5,31.3-55.5,1.5s-15.1-75.9-6.7-103s36.6-46.2,59.1-58.4c10-5.4,17.2-8.5,28-11.7
		c0,0,84.6-82.3,86.2-84.3c16.2-20.5,71-4.2,122.2,36.4c51.3,40.6,79.6,90.2,63.4,110.7c-1.1,1.4-44.2,33.1-64.9,59.2"/>
</g>
<path style="fill:#FFFFFF;" d="M412.672,49.677c-51.2-40.6-106-56.9-122.2-36.4c-0.8,1.1-33.3,18.8-52.5,42.6
	c10.6,0.6,21.3,1.4,31.9,1.7c20.5,0.7,39.5,0.1,58.8,8.1c31.5,13.1,54.7,40.8,73.4,68.4c12.7,18.9,24.5,41.4,25.7,64.5
	c17.6-22.2,47.5-37.2,48.3-38.2C492.372,139.877,463.972,90.277,412.672,49.677z"/>
<path style="opacity:0.2;fill:#1E3A1E;enable-background:new    ;" d="M154.872,300.577c0,0,34.8-1.7,56.9-33.2
	c14.4-20.6,12.7-35.5,12.7-35.5s21-1.3,52.4-18.2c27.4-14.7,40.8-42.5,40.8-42.5l-42.1-4l-89.6,30.6l-5.7,66.4L154.872,300.577z"/>
<path style="fill:#D6D0CC;" d="M370.972,79.277c-43.4-35.6-110.4-34.9-110.4-34.9l-41.6,52.8l-0.7,1.1l0.8,0.5
	c40.6-9.8,85.1-7.3,122.9,16.9c34.2,21.9,57.8,51.8,68.4,87.1c10.4-12.6,23.9-28.1,23.9-28.1S424.372,122.977,370.972,79.277z"/>
<g>
	<path style="fill:#4F3625;" d="M414.872,230.177c-3.9,0-7.3-2.8-7.9-6.7c-6.6-41.2-30.6-76.1-69.3-100.9
		c-33.7-21.5-76.8-26.8-121.6-14.7c-4.3,1.1-8.7-1.4-9.8-5.6c-1.1-4.3,1.4-8.7,5.6-9.8c49.2-13.2,96.9-7.3,134.4,16.7
		c42.7,27.3,69.2,66,76.5,111.9c0.7,4.4-2.3,8.5-6.6,9.2C415.672,230.177,415.272,230.177,414.872,230.177z"/>
	<path style="fill:#4F3625;" d="M150.472,301.277c-16.8,0-31-9.7-37.6-26c-13.1-32.6-16.2-81.4-7-111c7.6-24.5,28.8-45.8,64.8-65.4
		c10.2-5.5,17.7-8.7,27.5-11.8c29.2-28.3,71.7-69.6,75.8-73.9c5.7-7.1,14.4-11.5,25.2-12.8c28.4-3.3,73,15.3,113.6,47.5
		c26,20.5,47.3,44.1,60,66.3c14.6,25.4,16.5,47.2,5.4,61.2c-1.2,1.5-2,2.1-6.2,5.3c-9.7,7.2-35.3,26.4-51.1,46.4
		c-4.1,5.2-11.7,6.1-16.9,1.9c-5.2-4.1-6.1-11.7-1.9-16.9c17.8-22.4,45.2-42.9,55.5-50.7c0.8-0.6,1.7-1.3,2.3-1.7
		c3.5-6,0.5-18.9-7.9-33.6c-11.2-19.6-30.4-40.7-54-59.4c-40.5-32.1-78.1-44.5-95.9-42.4c-4.6,0.5-7.7,1.9-9.5,4.1l0,0
		c-0.9,1.2-6.2,6.7-79.8,78c-1.4,1.3-3.1,2.3-4.9,2.9c-9.6,2.8-16.1,5.6-25.7,10.8c-29.8,16.2-47.8,33.5-53.3,51.4
		c-7.5,24.2-4.6,67.7,6.4,95c4,9.9,11.5,11.4,17.1,10.9c7.5-0.7,14.4-5.3,15.5-10.4c4.1-19.5,5.2-61.7,5.2-62.1
		c0.1-5.7,4.3-10.5,9.9-11.5c0.3-0.1,32-5.8,57.9-14.6c28.3-9.7,49.7-23,49.9-23.1c5.6-3.5,13-1.8,16.5,3.8s1.8,13-3.8,16.5
		c-1,0.6-23.8,14.9-54.9,25.5c-18.9,6.5-40,11.2-51.9,13.7c-0.6,14.3-2.1,41.2-5.4,56.8c-3.3,15.4-18.8,27.8-36.9,29.3
		C152.972,301.177,151.672,301.277,150.472,301.277z M273.772,13.277c-0.1,0.2-0.2,0.3-0.3,0.4c0-0.1,0.1-0.1,0.1-0.2
		C273.672,13.377,273.772,13.277,273.772,13.277z"/>
	<path style="fill:#4F3625;" d="M148.472,259.577c-3.2,0-6.2-1.9-7.4-5c-3.1-7.7-16.8-8.4-16.9-8.4c-4.4-0.2-7.9-3.8-7.7-8.2
		c0.1-4.4,3.8-7.9,8.2-7.8c1,0,24.2,0.8,31.3,18.4c1.7,4.1-0.3,8.8-4.4,10.4C150.472,259.377,149.472,259.577,148.472,259.577z"/>
</g>
<circle style="fill:#E7FFE1;" cx="107.272" cy="354.377" r="31.4"/>
<path style="fill:#3C663E;" d="M107.272,393.777c-21.7,0-39.4-17.7-39.4-39.4s17.7-39.4,39.4-39.4s39.4,17.7,39.4,39.4
	S128.972,393.777,107.272,393.777z M107.272,330.977c-12.9,0-23.4,10.5-23.4,23.4s10.5,23.4,23.4,23.4s23.4-10.5,23.4-23.4
	S120.172,330.977,107.272,330.977z"/>
<circle style="fill:#E7FFE1;" cx="150.472" cy="354.377" r="31.4"/>
<path style="fill:#3C663E;" d="M150.472,393.777c-21.7,0-39.4-17.7-39.4-39.4s17.7-39.4,39.4-39.4s39.4,17.7,39.4,39.4
	S172.172,393.777,150.472,393.777z M150.472,330.977c-12.9,0-23.4,10.5-23.4,23.4s10.5,23.4,23.4,23.4s23.4-10.5,23.4-23.4
	S163.372,330.977,150.472,330.977z"/>
<path style="fill:#B2EDA6;" d="M311.472,185.577h74.3c8.8,0,16,7.2,16,16v23"/>
<path style="fill:#3C663E;" d="M401.772,236.577c-6.6,0-12-5.4-12-12v-23c0-2.2-1.8-4-4-4h-74.3c-6.6,0-12-5.4-12-12s5.4-12,12-12
	h74.3c15.4,0,28,12.6,28,28v23C413.772,231.177,408.372,236.577,401.772,236.577z"/>
</svg>