<?xml version="1.0" encoding="iso-8859-1"?>
<!-- Uploaded to: SVG Repo, www.svgrepo.com, Generator: SVG Repo Mixer Tools -->
<svg version="1.1" id="Layer_1" xmlns="http://www.w3.org/2000/svg" xmlns:xlink="http://www.w3.org/1999/xlink" 
	 viewBox="0 0 512 512" xml:space="preserve">
<g>
	<polyline style="fill:#F6E89A;" points="104,139.85 104,331.85 364,331.85 384,331.85 476,331.85 476,327.85 492,327.85 
		492,239.85 476,239.85 476,147.85 384,147.85 384,120.45 	"/>
	<path style="fill:#F6E89A;" d="M388,147.85v186.8h112c0-1.3,0-1.2,0-1.2v-69.6l-24-80h-88"/>
</g>
<path style="fill:#8D4520;" d="M500,343.15H388c-4.7,0-8.5-3.8-8.5-8.5v-186.8c0-4.7,3.8-8.5,8.5-8.5s8.5,3.8,8.5,8.5v27.5H476
	c3.8,0,7.1,2.5,8.1,6.1l24,80c0.2,0.8,0.4,1.6,0.4,2.4v69.6l0,0c0,0.4,0,0.9,0,1.4C508.4,339.45,504.6,343.15,500,343.15z
	 M493.9,339.45c0.8,0.9,1.9,1.6,3.1,2C495.8,340.95,494.8,340.25,493.9,339.45z M491.5,334.35c0.1,0.9,0.3,1.7,0.7,2.6
	C491.9,336.15,491.6,335.25,491.5,334.35L491.5,334.35z M396.5,326.15h95v-61l-21.8-72.7h-73.2V326.15z"/>
<ellipse style="opacity:0.5;fill:#B8CBCD;enable-background:new    ;" cx="286.7" cy="396.65" rx="190.7" ry="47.3"/>
<g>
	<path style="fill:#8D4520;" d="M140,347.85h-20c-15.4,0-28-12.6-28-28v-180c0-6.6,5.4-12,12-12s12,5.4,12,12v180c0,2.2,1.8,4,4,4
		h20c6.6,0,12,5.4,12,12S146.6,347.85,140,347.85z"/>
	<path style="fill:#8D4520;" d="M500,347.85h-72.9v-24H488v-66.1l-32.7-101.9H390v-24h74c5.2,0,9.8,3.4,11.4,8.3l36,112
		c0.4,1.2,0.6,2.4,0.6,3.7v80C512,342.45,506.6,347.85,500,347.85z"/>
	<rect x="224" y="323.85" style="fill:#8D4520;" width="120" height="24"/>
	<path style="fill:#8D4520;" d="M72,239.85H12c-6.6,0-12-5.4-12-12s5.4-12,12-12h60c6.6,0,12,5.4,12,12S78.6,239.85,72,239.85z"/>
	<path style="fill:#8D4520;" d="M72,187.85H32.4c-6.6,0-12-5.4-12-12s5.4-12,12-12H72c6.6,0,12,5.4,12,12S78.6,187.85,72,187.85z"/>
	<path style="fill:#8D4520;" d="M72,291.85H32.4c-6.6,0-12-5.4-12-12s5.4-12,12-12H72c6.6,0,12,5.4,12,12S78.6,291.85,72,291.85z"/>
	<path style="fill:#8D4520;" d="M214.9,222.15c-17.3,0-31.4-14.1-31.4-31.4s14.1-31.4,31.4-31.4s31.4,14.1,31.4,31.4
		S232.2,222.15,214.9,222.15z M214.9,176.35c-7.9,0-14.4,6.5-14.4,14.4s6.5,14.4,14.4,14.4s14.4-6.5,14.4-14.4
		S222.8,176.35,214.9,176.35z"/>
	<path style="fill:#8D4520;" d="M277.1,284.35c-17.3,0-31.4-14.1-31.4-31.4s14.1-31.4,31.4-31.4s31.4,14.1,31.4,31.4
		S294.4,284.35,277.1,284.35z M277.1,238.55c-7.9,0-14.4,6.5-14.4,14.4s6.5,14.4,14.4,14.4s14.4-6.5,14.4-14.4
		S285,238.55,277.1,238.55z"/>
	<path style="fill:#8D4520;" d="M198.5,277.85c-2.2,0-4.4-0.8-6-2.5c-3.3-3.3-3.3-8.7,0-12l94.9-94.9c3.3-3.3,8.7-3.3,12,0
		c3.3,3.3,3.3,8.7,0,12l-94.9,94.9C202.9,276.95,200.7,277.85,198.5,277.85z"/>
</g>
<circle style="fill:#FFFFFF;" cx="188.8" cy="336.25" r="44.4"/>
<path style="fill:#8D4520;" d="M188.8,389.25c-29.2,0-52.9-23.8-52.9-52.9s23.8-52.9,52.9-52.9c29.2,0,52.9,23.8,52.9,52.9
	S218,389.25,188.8,389.25z M188.8,300.35c-19.8,0-35.9,16.1-35.9,35.9s16.1,35.9,35.9,35.9s35.9-16.1,35.9-35.9
	S208.7,300.35,188.8,300.35z"/>
<path style="fill:#FFFFFF;" d="M236,335.85c0,26.8-20.4,46.5-47.1,46.5c-26.8,0-48.9-19.7-48.9-46.5"/>
<g>
	<path style="fill:#8D4520;" d="M188.8,394.25c-34.1,0-60.9-25.7-60.9-58.5v-12h24v12c0,19.3,16.2,34.5,36.9,34.5
		c20.4,0,35.1-14.5,35.1-34.5v-12h24v12C248,369.15,222.6,394.25,188.8,394.25z"/>
	<circle style="fill:#8D4520;" cx="188.8" cy="336.25" r="16.4"/>
</g>
<circle style="fill:#FFFFFF;" cx="384.8" cy="336.25" r="44.4"/>
<path style="fill:#8D4520;" d="M384.8,389.25c-29.2,0-52.9-23.8-52.9-52.9s23.8-52.9,52.9-52.9s52.9,23.8,52.9,52.9
	S414,389.25,384.8,389.25z M384.8,300.35c-19.8,0-35.9,16.1-35.9,35.9s16.1,35.9,35.9,35.9s35.9-16.1,35.9-35.9
	S404.7,300.35,384.8,300.35z"/>
<path style="fill:#FFFFFF;" d="M432,335.85c0,26.8-20.4,46.5-47.1,46.5c-26.8,0-48.9-19.7-48.9-46.5"/>
<g>
	<path style="fill:#8D4520;" d="M384.8,394.25c-34.1,0-60.9-25.7-60.9-58.5v-12h24v12c0,19.3,16.2,34.5,36.9,34.5
		c20.4,0,35.1-14.5,35.1-34.5v-12h24v12C444,369.15,418.6,394.25,384.8,394.25z"/>
	<circle style="fill:#8D4520;" cx="384.8" cy="336.25" r="16.4"/>
</g>
<path style="fill:#F6E89A;" d="M388,139.85l-19.2-52.3c-1.5-4.1-6.4-7.5-10.8-7.5H136.4c-4.4,0-9.4,3.3-11,7.4l-21.4,52.4"/>
<g>
	<path style="fill:#8D4520;" d="M388,151.85c-4.9,0-9.5-3-11.3-7.9l-19.1-51.9l-0.1-0.1H136.8c-0.1,0.1-0.3,0.2-0.4,0.3l-21.3,52.1
		c-2.5,6.1-9.5,9.1-15.6,6.6s-9.1-9.5-6.6-15.6l21.4-52.4c3.5-8.6,12.8-14.9,22.1-14.9H358c9.5,0,18.7,6.5,22,15.4l19.2,52.3
		c2.3,6.2-0.9,13.1-7.1,15.4C390.8,151.65,389.4,151.85,388,151.85z"/>
	<path style="fill:#8D4520;" d="M380,152.35H104c-4.7,0-8.5-3.8-8.5-8.5c0-4.7,3.8-8.5,8.5-8.5h276c4.7,0,8.5,3.8,8.5,8.5
		C388.5,148.55,384.7,152.35,380,152.35z"/>
</g>
</svg>