<?xml version="1.0" encoding="iso-8859-1"?>
<!-- Uploaded to: SVG Repo, www.svgrepo.com, Generator: SVG Repo Mixer Tools -->
<svg version="1.1" id="Layer_1" xmlns="http://www.w3.org/2000/svg" xmlns:xlink="http://www.w3.org/1999/xlink" 
	 viewBox="0 0 508.3 508.3" xml:space="preserve">
<path style="fill:#F6E89A;" d="M459.55,160.3l-17.1-44.4c-1.6-4.1-6.5-7.5-10.9-7.5H78.25c-4.4,0-9.4,3.3-11.2,7.3l-19.3,44.6"/>
<path style="fill:#8D4520;" d="M459.55,172.3c-4.8,0-9.4-2.9-11.2-7.7l-16.9-44c-0.1-0.1-0.2-0.2-0.3-0.2H78.55
	c-0.2,0.1-0.5,0.3-0.7,0.5l-19.1,44.2c-2.6,6.1-9.7,8.9-15.8,6.2c-6.1-2.6-8.9-9.7-6.2-15.8l19.3-44.6c0-0.1,0-0.1,0.1-0.2
	c3.7-8.3,13.1-14.4,22.1-14.4h353.3c9.4,0,18.7,6.4,22.1,15.1l17.1,44.5c2.4,6.2-0.7,13.1-6.9,15.5
	C462.45,172,460.95,172.3,459.55,172.3z"/>
<ellipse style="opacity:0.5;fill:#B8CBCD;enable-background:new    ;" cx="254.15" cy="451.4" rx="229.6" ry="56.9"/>
<path style="fill:#F6E89A;" d="M443.55,432.3c0,8.8-7.2,16-16,16h-344c-8.8,0-16-7.2-16-16v-220c0-8.8,7.2-16,16-16h344
	c8.8,0,16,7.2,16,16V432.3z"/>
<path style="fill:#8D4520;" d="M427.55,460.3h-344c-15.4,0-28-12.6-28-28v-220c0-15.4,12.6-28,28-28h344c15.4,0,28,12.6,28,28v220
	C455.55,447.7,442.95,460.3,427.55,460.3z M83.55,208.3c-2.2,0-4,1.8-4,4v220c0,2.2,1.8,4,4,4h344c2.2,0,4-1.8,4-4v-220
	c0-2.2-1.8-4-4-4H83.55z"/>
<rect x="79.75" y="308.3" style="fill:#E8C980;" width="351.8" height="32"/>
<path style="fill:#F6E89A;" d="M47.55,160.3v120c0,8.8,7.2,16,16,16h380c8.8,0,16-7.2,16-16v-120"/>
<g>
	<path style="fill:#8D4520;" d="M443.55,308.3h-380c-15.4,0-28-12.6-28-28v-120c0-6.6,5.4-12,12-12s12,5.4,12,12v120
		c0,2.2,1.8,4,4,4h380c2.2,0,4-1.8,4-4v-120c0-6.6,5.4-12,12-12s12,5.4,12,12v120C471.55,295.7,458.95,308.3,443.55,308.3z"/>
	<path style="fill:#8D4520;" d="M459.55,176.3h-412c-4.4,0-8-3.6-8-8s3.6-8,8-8h412c4.4,0,8,3.6,8,8S463.95,176.3,459.55,176.3z"/>
</g>
<rect x="227.75" y="128.3" style="fill:#FFFFFF;" width="52" height="316"/>
<path style="fill:#8D4520;" d="M279.75,452.3h-52c-4.4,0-8-3.6-8-8v-316c0-4.4,3.6-8,8-8h52c4.4,0,8,3.6,8,8v316
	C287.75,448.7,284.15,452.3,279.75,452.3z M235.75,436.3h36v-300h-36V436.3z"/>
<path style="fill:#FFFFFF;" d="M352.35,80.6c-15.6,15.7-100.5,43.7-100.5,43.7s28-84.9,43.7-100.6s41.1-15.7,56.8,0
	S368.05,64.9,352.35,80.6z"/>
<path style="fill:#8D4520;" d="M251.85,136.3c-3.1,0-6.2-1.2-8.5-3.5c-3.2-3.2-4.3-7.9-2.9-12.2c4.8-14.6,29.7-88.5,46.6-105.3
	c9.9-9.9,23-15.3,36.9-15.3s27,5.4,36.9,15.3s15.3,23,15.3,36.9s-5.4,27.1-15.3,36.9c-16.7,16.9-90.6,41.8-105.2,46.6
	C254.35,136.1,253.15,136.3,251.85,136.3z M323.95,23.9c-7.5,0-14.6,2.9-19.9,8.3c-7.5,7.5-21.6,41.8-32.8,72.7
	c30.9-11.2,65.2-25.3,72.6-32.7c5.4-5.4,8.3-12.4,8.3-20c0-7.5-2.9-14.6-8.3-20C338.55,26.9,331.45,23.9,323.95,23.9z"/>
<path style="fill:#FFFFFF;" d="M212.35,23.7c15.7,15.7,43.7,100.6,43.7,100.6s-84.9-28-100.6-43.7s-15.7-41.1,0-56.8
	C171.25,8.1,196.65,8.1,212.35,23.7z"/>
<path style="fill:#8D4520;" d="M256.05,136.3c-1.3,0-2.5-0.2-3.8-0.6c-14.6-4.8-88.5-29.7-105.3-46.6c-9.9-9.9-15.3-23-15.3-36.9
	s5.4-27,15.3-36.9c9.9-9.9,23.1-15.3,37-15.3s27,5.4,36.8,15.2c16.6,16.6,41.1,88.5,46.4,104.7c0.6,1.4,0.9,2.9,0.9,4.5
	c0,6.6-5.3,11.9-11.8,12C256.15,136.3,256.15,136.3,256.05,136.3z M183.95,24c-7.6,0-14.7,2.9-20.1,8.3c-5.3,5.3-8.2,12.4-8.2,19.9
	s2.9,14.6,8.3,19.9c7.5,7.5,41.8,21.6,72.7,32.8c-11.2-30.9-25.3-65.2-32.8-72.7C198.55,26.9,191.55,24,183.95,24z"/>
</svg>