<?xml version="1.0" encoding="utf-8"?>
<!-- Uploaded to: SVG Repo, www.svgrepo.com, Generator: SVG Repo Mixer Tools -->
<svg width="800px" height="800px" viewBox="0 0 1024 1024" class="icon"  version="1.1" xmlns="http://www.w3.org/2000/svg"><path d="M263.7 231.7c-13.8 0-20.7-9.8-25.7-17-5.1-7.3-7.7-10.2-12.7-10.2s-7.5 3-12.7 10.2c-5.1 7.2-12 17-25.7 17-13.8 0-20.7-9.8-25.7-17-5.1-7.3-7.7-10.2-12.7-10.2s-7.5 3-12.7 10.2c-5.1 7.2-12 17-25.7 17s-20.7-9.8-25.7-17c-5.1-7.3-7.7-10.2-12.7-10.2-4.4 0-8-3.6-8-8s3.6-8 8-8c13.8 0 20.7 9.8 25.7 17 5.1 7.3 7.7 10.2 12.7 10.2s7.5-3 12.7-10.2c5.1-7.2 12-17 25.7-17s20.7 9.8 25.7 17c5.1 7.3 7.7 10.2 12.7 10.2 5 0 7.5-3 12.7-10.2 5.1-7.2 12-17 25.7-17s20.7 9.8 25.7 17c5.1 7.3 7.7 10.2 12.7 10.2 4.4 0 8 3.6 8 8s-3.6 8-8 8zM263.7 281.7c-13.8 0-20.7-9.8-25.7-17-5.1-7.3-7.7-10.2-12.7-10.2s-7.5 3-12.7 10.2c-5.1 7.2-12 17-25.7 17-13.8 0-20.7-9.8-25.7-17-5.1-7.3-7.7-10.2-12.7-10.2s-7.5 3-12.7 10.2c-5.1 7.2-12 17-25.7 17s-20.7-9.8-25.7-17c-5.1-7.3-7.7-10.2-12.7-10.2-4.4 0-8-3.6-8-8s3.6-8 8-8c13.8 0 20.7 9.8 25.7 17 5.1 7.3 7.7 10.2 12.7 10.2s7.5-3 12.7-10.2c5.1-7.2 12-17 25.7-17s20.7 9.8 25.7 17c5.1 7.3 7.7 10.2 12.7 10.2 5 0 7.5-3 12.7-10.2 5.1-7.2 12-17 25.7-17s20.7 9.8 25.7 17c5.1 7.3 7.7 10.2 12.7 10.2 4.4 0 8 3.6 8 8s-3.6 8-8 8zM951.7 680.7c-13.8 0-20.7-9.8-25.7-17-5.1-7.3-7.7-10.2-12.7-10.2s-7.5 3-12.7 10.2c-5.1 7.2-12 17-25.7 17-13.8 0-20.7-9.8-25.7-17-5.1-7.3-7.7-10.2-12.7-10.2s-7.5 3-12.7 10.2c-5.1 7.2-12 17-25.7 17s-20.7-9.8-25.7-17c-5.1-7.3-7.7-10.2-12.7-10.2-4.4 0-8-3.6-8-8s3.6-8 8-8c13.8 0 20.7 9.8 25.7 17 5.1 7.3 7.7 10.2 12.7 10.2s7.5-3 12.7-10.2c5.1-7.2 12-17 25.7-17s20.7 9.8 25.7 17c5.1 7.3 7.7 10.2 12.7 10.2 5 0 7.5-3 12.7-10.2 5.1-7.2 12-17 25.7-17s20.7 9.8 25.7 17c5.1 7.3 7.7 10.2 12.7 10.2 4.4 0 8 3.6 8 8s-3.6 8-8 8zM951.7 730.7c-13.8 0-20.7-9.8-25.7-17-5.1-7.3-7.7-10.2-12.7-10.2s-7.5 3-12.7 10.2c-5.1 7.2-12 17-25.7 17-13.8 0-20.7-9.8-25.7-17-5.1-7.3-7.7-10.2-12.7-10.2s-7.5 3-12.7 10.2c-5.1 7.2-12 17-25.7 17s-20.7-9.8-25.7-17c-5.1-7.3-7.7-10.2-12.7-10.2-4.4 0-8-3.6-8-8s3.6-8 8-8c13.8 0 20.7 9.8 25.7 17 5.1 7.3 7.7 10.2 12.7 10.2s7.5-3 12.7-10.2c5.1-7.2 12-17 25.7-17s20.7 9.8 25.7 17c5.1 7.3 7.7 10.2 12.7 10.2 5 0 7.5-3 12.7-10.2 5.1-7.2 12-17 25.7-17s20.7 9.8 25.7 17c5.1 7.3 7.7 10.2 12.7 10.2 4.4 0 8 3.6 8 8s-3.6 8-8 8z" fill="#9A2D2F" /><path d="M351.8 104.1m-32 0a32 32 0 1 0 64 0 32 32 0 1 0-64 0Z" fill="#FFEB4D" /><path d="M351.8 144.1c-22.1 0-40-17.9-40-40s17.9-40 40-40 40 17.9 40 40-18 40-40 40z m0-64c-13.2 0-24 10.8-24 24s10.8 24 24 24 24-10.8 24-24-10.8-24-24-24z" fill="#9A2D2F" /><path d="M541.7 130.1h48v790h-48z" fill="#DAE5FF" /><path d="M815.7 594h-408c-8.8 0-16-7.2-16-16v-64c0-8.8 7.2-16 16-16h408l64 48-64 48z" fill="#C0FCD0" /><path d="M315.7 439h408c8.8 0 16-7.2 16-16v-64c0-8.8-7.2-16-16-16h-408l-64 48 64 48z" fill="#FFEB4D" /><path d="M815.7 284h-408c-8.8 0-16-7.2-16-16v-64c0-8.8 7.2-16 16-16h408l64 48-64 48z" fill="#DAE5FF" /><path d="M383.7 810.1m-80 0a80 80 0 1 0 160 0 80 80 0 1 0-160 0Z" fill="#A7F9CE" /><path d="M374.7 921.1h-196v-58c0-53.9 44.1-98 98-98s98 44.1 98 98v58z" fill="#FFACC2" /><path d="M498.7 921.1h-161v-33.5c0-44.3 36.2-80.5 80.5-80.5s80.5 36.2 80.5 80.5v33.5z" fill="#CAE8FF" /><path d="M924.7 913.1h-327V602h218c1.7 0 3.4-0.6 4.8-1.6l64-48c2-1.5 3.2-3.9 3.2-6.4s-1.2-4.9-3.2-6.4l-64-48c-1.4-1-3.1-1.6-4.8-1.6h-218v-43h126c13.2 0 24-10.8 24-24v-64c0-13.2-10.8-24-24-24h-126v-43h218c1.7 0 3.4-0.6 4.8-1.6l64-48c2-1.5 3.2-3.9 3.2-6.4s-1.2-4.9-3.2-6.4l-64-48c-1.4-1-3.1-1.6-4.8-1.6h-218v-49.9c0-4.4-3.6-8-8-8h-48c-4.4 0-8 3.6-8 8V180h-126c-13.2 0-24 10.8-24 24v64c0 13.2 10.8 24 24 24h126v43h-218c-1.7 0-3.4 0.6-4.8 1.6l-64 48c-2 1.5-3.2 3.9-3.2 6.4s1.2 4.9 3.2 6.4l64 48c1.4 1 3.1 1.6 4.8 1.6h218v43h-126c-13.2 0-24 10.8-24 24v64c0 13.2 10.8 24 24 24h126v311.1h-27v-25.5c0-28.8-13.9-54.5-35.3-70.7 0.2-2.3 0.3-4.5 0.3-6.8 0-48.5-39.5-88-88-88-31 0-58.2 16.1-73.9 40.3-10.4-3.4-21.5-5.3-33.1-5.3-58.4 0-106 47.6-106 106v50h-70c-4.4 0-8 3.6-8 8s3.6 8 8 8h824c4.4 0 8-3.6 8-8s-3.6-8-8-8z m-375-1V602h32v310.1h-32z m0-774h32V180h-32v-41.9zM407.7 276c-4.4 0-8-3.6-8-8v-64c0-4.4 3.6-8 8-8H813l53.3 40-53.3 40H407.7z m174 16v43h-32v-43h32zM318.4 431L265 391l53.3-40h405.3c4.4 0 8 3.6 8 8v64c0 4.4-3.6 8-8 8H318.4z m263.3 16v43h-32v-43h32z m-174 139c-4.4 0-8-3.6-8-8v-64c0-4.4 3.6-8 8-8H813l53.3 40-53.3 40H407.7z m-24 152.1c38.8 0 70.5 30.9 71.9 69.3-11.4-5.3-24.1-8.3-37.4-8.3-17.7 0-34.1 5.2-48 14.2-10.2-19.1-26.1-34.7-45.4-44.6 13.1-18.5 34.6-30.6 58.9-30.6z m-197 175v-50c0-49.6 40.4-90 90-90 8.9 0 17.5 1.3 25.6 3.7 5.2 1.5 10.1 3.5 14.9 5.9 17.4 8.8 31.6 23.1 40.3 40.6-11 10.4-19.3 23.6-23.8 38.4-1.8 5.8-3 11.9-3.5 18.1-0.2 2.6-0.3 5.2-0.3 7.8v25.5H186.7z m159 0v-25.5c0-5.3 0.6-10.4 1.7-15.4 7.1-32.6 36.1-57.1 70.8-57.1 13.1 0 25.4 3.5 36 9.6 5 2.9 9.7 6.4 13.9 10.4 13.9 13.2 22.6 31.9 22.6 52.5v25.5h-145z" fill="#9A2D2F" /><path d="M302.3 776.8c-8.1-2.4-16.7-3.7-25.6-3.7-46 0-84 34.6-89.3 79.2 22.7-0.7 47.4-5.4 60.9-11.7 24.3-11.3 9.5-38 43.8-42.2 10.8-1.3 21.2-3.2 32-11.8-2.2-1.4-4.5-2.7-6.9-3.9-4.8-2.4-9.8-4.4-14.9-5.9zM383.7 738.1c-21.9 0-41.6 9.9-54.8 25.4-1.4 1.7-2.8 3.4-4.1 5.2 4.9 2.5 9.5 5.3 13.9 8.5 0.6-0.2 1.3-0.5 1.9-0.7 8.8-3.2 15-9.2 21.7-12.8 11.3-6.1 27.5 1.3 45.7 1.3 7.5 0 15.3-2.3 23.6-8.7a71.865 71.865 0 0 0-47.9-18.2z" fill="#FFFFFF" /></svg>