<?xml version="1.0" encoding="UTF-8" standalone="no"?>
<!-- Created with Inkscape (http://www.inkscape.org/) -->
<!DOCTYPE svg PUBLIC "-//W3C//DTD SVG 1.1//EN" "http://www.w3.org/Graphics/SVG/1.1/DTD/svg11.dtd">
<svg
   xmlns:svg="http://www.w3.org/2000/svg"
   xmlns="http://www.w3.org/2000/svg"
   version="1.1"
   width="400"
   height="400"
   id="svg2816"
   xml:space="preserve"><defs
     id="defs2820" /><g
     transform="matrix(1.25,0,0,-1.25,0,400)"
     id="g2826"><g
       transform="translate(-518.81175,-249.76069)"
       id="g3973"><path
         d="m 830.81175,257.76069 -304,0 0,304 304,0 0,-304 z"
         id="path2914"
         style="fill:#ffffff;fill-opacity:1;fill-rule:evenodd;stroke:none" /><path
         d="m 824.13397,264.4349 -290.64801,0 0,290.64801 290.64801,0 0,-290.64801 z"
         id="path2916"
         style="fill:#ffffff;fill-opacity:1;fill-rule:nonzero;stroke:none" /><path
         d="m 533.48596,555.08291 0,-290.63729 6.60629,0 0,284.031 277.43543,0 0,-284.031 6.60629,0 0,6.60272 0,284.03457 -290.64801,0 z"
         id="path2918"
         style="fill:#ed1c24;fill-opacity:1;fill-rule:nonzero;stroke:none" /><path
         d="m 591.5698,533.89132 174.38738,0 0,-191.9112 -174.38738,0 0,191.9112 z"
         id="path2920"
         style="fill:#ffffff;fill-opacity:1;fill-rule:nonzero;stroke:none" /><path
         d="m 591.5698,533.89132 174.38738,0 0,-191.9112 -174.38738,0 0,191.9112 z"
         id="path2922"
         style="fill:none;stroke:#ed1c24;stroke-width:4.35414362;stroke-linecap:butt;stroke-linejoin:miter;stroke-miterlimit:2.61299992;stroke-opacity:1;stroke-dasharray:none" /><path
         d="m 602.99139,433.94621 65.40509,0 0,-80.74112 -65.40509,0 0,80.74112 z"
         id="path2924"
         style="fill:#ed1c24;fill-opacity:1;fill-rule:evenodd;stroke:none" /><path
         d="m 602.99139,522.94519 65.40509,0 0,-80.73755 -65.40509,0 0,80.73755 z"
         id="path2926"
         style="fill:#ed1c24;fill-opacity:1;fill-rule:evenodd;stroke:none" /><path
         d="m 677.23704,522.94519 77.79188,0 -77.79188,-80.73397 0,80.73397 z"
         id="path2928"
         style="fill:#ed1c24;fill-opacity:1;fill-rule:evenodd;stroke:none" /><path
         d="m 677.23704,433.94621 77.79188,-80.74112 -77.79188,0 0,80.74112 z"
         id="path2930"
         style="fill:#ed1c24;fill-opacity:1;fill-rule:evenodd;stroke:none" /><path
         d="m 791.68523,305.41676 c 4.28265,0 6.79218,-3.06363 6.79218,-6.67779 0,-3.72855 -2.50953,-6.57054 -6.79218,-6.57054 -4.31839,0 -6.82792,2.84199 -6.82792,6.57054 0,3.61416 2.50953,6.67779 6.82792,6.67779 m 6.45972,-21.33102 10.5529,0 0,29.30289 0,18.3067 -10.5529,0 0,-21.07362 c -2.21639,2.5846 -5.83412,3.83579 -9.26238,3.83579 -8.85843,0 -14.94994,-7.19613 -14.94994,-15.64703 0,-8.41158 6.19875,-15.68636 15.05718,-15.68636 3.50691,0 7.16039,1.29409 9.005,4.20758 l 0.15014,0 0,-3.24595 z m -48.42465,29.41371 -10.59222,0 0,-29.30289 0,-0.11082 10.59222,0 0,15.24308 c 0,3.68922 1.21902,6.82793 5.53741,6.82793 5.2407,0 4.76168,-4.94757 4.76168,-7.75024 l 0,-14.32077 10.58864,0 0,18.15657 c 0,7.23545 -3.20662,12.21519 -11.21781,12.21519 -4.13251,0 -7.12107,-1.17969 -9.5591,-4.7581 l -0.11082,0 0,3.80005 z m -15.76143,0 -10.59222,0 0,-2.87774 c -2.1735,2.5846 -5.7948,3.83579 -9.22664,3.83579 -8.85843,0 -14.94636,-7.19613 -14.94636,-15.64703 0,-8.41158 6.19875,-15.68636 15.05718,-15.68636 3.50691,0 7.16039,1.29409 9.005,4.20758 l 0.11082,0 0,-3.24595 10.59222,0 0,29.30289 0,0.11082 z m -17.01262,-8.08269 c 4.28265,0 6.79218,-3.06363 6.79218,-6.67779 0,-3.72855 -2.50953,-6.57054 -6.79218,-6.57054 -4.31839,0 -6.82792,2.84199 -6.82792,6.57054 0,3.61416 2.50953,6.67779 6.82792,6.67779 m -20.66966,26.27857 -10.59223,0 0,-29.3422 0,-18.26739 10.59223,0 0,29.30289 0,18.3067 z m -19.63297,-26.79335 7.41777,0 0,8.59747 -7.41777,0 0,4.76167 c 0,3.32102 0.95805,4.94757 3.68922,4.94757 1.36559,0 2.47378,-0.48261 3.72855,-0.99738 l 0,9.005 c -1.47641,0.77573 -2.91706,1.03312 -4.54003,1.03312 -4.02169,0 -7.82531,-1.66229 -10.44923,-4.6866 -2.87417,-3.28527 -3.02431,-6.27383 -3.02431,-10.33484 l 0,-3.72854 -3.68923,0 0,-8.59747 3.68923,0 0,-20.81624 10.5958,0 0,20.81624 z m -48.27809,8.59747 0,-17.71329 c 0,-9.70566 6.93875,-12.66205 15.908,-12.66205 8.92992,0 15.86867,2.95639 15.86867,12.66205 l 0,17.71329 -10.59222,0 0,-15.72211 c 0,-3.72497 -0.92231,-6.38464 -5.27645,-6.38464 -4.39347,0 -5.31578,2.65967 -5.31578,6.38464 l 0,15.72211 -10.59222,0 z m -4.98331,0 -10.59222,0 0,-2.87774 c -2.17708,2.5846 -5.7948,3.83579 -9.22664,3.83579 -8.85843,0 -14.94994,-7.19613 -14.94994,-15.64703 0,-8.41158 6.20233,-15.68636 15.06076,-15.68636 3.50691,0 7.16038,1.29409 9.005,4.20758 l 0.11082,0 0,-3.24595 10.59222,0 0,29.30289 0,0.11082 z m -17.01262,-8.08269 c 4.27907,0 6.7886,-3.06363 6.7886,-6.67779 0,-3.72855 -2.50953,-6.57054 -6.7886,-6.57054 -4.32197,0 -6.82793,2.84199 -6.82793,6.57054 0,3.61416 2.50596,6.67779 6.82793,6.67779 m -45.47184,5.09413 -0.14657,0 0,18.59984 -11.92206,0 0,-30.59697 0,-14.50309 11.92206,0 0,19.56147 0.14657,0 15.38964,-19.56147 15.38965,0 -19.81886,23.7333 18.23521,21.36676 -14.80337,0 -14.39227,-18.59984 z"
         id="path2932"
         style="fill:#ed1c24;fill-opacity:1;fill-rule:evenodd;stroke:none" /><path
         d="m 548.9042,277.46516 259.50052,0 0,-6.60629 -259.50052,0 0,6.60629 z"
         id="path2934"
         style="fill:#ed1c24;fill-opacity:1;fill-rule:evenodd;stroke:none" /></g></g></svg>