<?xml version="1.0" encoding="iso-8859-1"?>
<!-- Uploaded to: SVG Repo, www.svgrepo.com, Generator: SVG Repo Mixer Tools -->
<svg version="1.1" id="Layer_1" xmlns="http://www.w3.org/2000/svg" xmlns:xlink="http://www.w3.org/1999/xlink" 
	 viewBox="0 0 504 504" xml:space="preserve">
<ellipse style="opacity:0.5;fill:#B8CBCD;enable-background:new    ;" cx="254.7" cy="420.75" rx="190.7" ry="47.3"/>
<path style="fill:#F6E89A;" d="M492,389.95L492,389.95c0,18.8-15.2,34-34,34H46c-18.8,0-34-15.2-34-34l0,0"/>
<path style="fill:#8D4520;" d="M458,435.95H46c-25.4,0-46-20.6-46-46c0-6.6,5.4-12,12-12s12,5.4,12,12c0,12.1,9.9,22,22,22h412
	c12.1,0,22-9.9,22-22c0-6.6,5.4-12,12-12s12,5.4,12,12C504,415.35,483.4,435.95,458,435.95z"/>
<path style="fill:#F6E89A;" d="M44,363.95v-276c0-22,18-40,40-40h344c22,0,40,18,40,40v276"/>
<path style="fill:#8D4520;" d="M468,375.95c-6.6,0-12-5.4-12-12v-276c0-15.4-12.6-28-28-28H84c-15.4,0-28,12.6-28,28v276
	c0,6.6-5.4,12-12,12s-12-5.4-12-12v-276c0-28.7,23.3-52,52-52h344c28.7,0,52,23.3,52,52v276C480,370.55,474.6,375.95,468,375.95z"/>
<rect x="88" y="91.95" style="fill:#FFF6CA;" width="336" height="204"/>
<path style="fill:#8D4520;" d="M424,303.95H88c-4.4,0-8-3.6-8-8v-204c0-4.4,3.6-8,8-8h336c4.4,0,8,3.6,8,8v204
	C432,300.35,428.4,303.95,424,303.95z M96,287.95h320v-188H96V287.95z"/>
<polygon style="fill:#F6E89A;" points="326.7,136.65 344.8,173.25 385.3,179.15 356,207.65 362.9,247.95 326.7,228.95 290.6,247.95 
	297.5,207.65 268.2,179.15 308.7,173.25 "/>
<g>
	<path style="fill:#8D4520;" d="M362.9,255.95c-1.3,0-2.6-0.3-3.7-0.9l-32.5-17.1l-32.5,17.1c-2.7,1.4-6,1.2-8.4-0.6
		c-2.5-1.8-3.7-4.8-3.2-7.8l6.2-36.1l-26.3-25.6c-2.2-2.1-3-5.3-2-8.2s3.4-5,6.5-5.4l36.3-5.3l16.2-32.9c1.3-2.7,4.1-4.5,7.2-4.5
		s5.8,1.7,7.2,4.5l16.2,32.9l36.3,5.3c3,0.4,5.5,2.5,6.5,5.4c0.9,2.9,0.2,6.1-2,8.2l-26.3,25.6l6.2,36.1c0.5,3-0.7,6-3.2,7.8
		C366.2,255.45,364.6,255.95,362.9,255.95z M285.4,184.75l17.7,17.2c1.9,1.8,2.7,4.5,2.3,7.1l-4.2,24.3l21.8-11.5
		c2.3-1.2,5.1-1.2,7.4,0l21.8,11.5l-4.2-24.3c-0.4-2.6,0.4-5.2,2.3-7.1l17.7-17.2l-24.4-3.5c-2.6-0.4-4.9-2-6-4.4l-10.9-22.1
		l-10.9,22.1c-1.2,2.4-3.4,4-6,4.4L285.4,184.75z"/>
	<path style="fill:#8D4520;" d="M468,341.95H48c-1.1,0-2-0.9-2-2s0.9-2,2-2h420c1.1,0,2,0.9,2,2S469.1,341.95,468,341.95z"/>
	<path style="fill:#8D4520;" d="M224,167.95h-96c-4.4,0-8-3.6-8-8s3.6-8,8-8h96c4.4,0,8,3.6,8,8S228.4,167.95,224,167.95z"/>
	<path style="fill:#8D4520;" d="M204,239.95h-80c-4.4,0-8-3.6-8-8s3.6-8,8-8h80c4.4,0,8,3.6,8,8S208.4,239.95,204,239.95z"/>
	<path style="fill:#8D4520;" d="M168,203.95h-44c-4.4,0-8-3.6-8-8s3.6-8,8-8h44c4.4,0,8,3.6,8,8S172.4,203.95,168,203.95z"/>
	<path style="fill:#8D4520;" d="M220,203.95h-24c-4.4,0-8-3.6-8-8s3.6-8,8-8h24c4.4,0,8,3.6,8,8S224.4,203.95,220,203.95z"/>
	<path style="fill:#8D4520;" d="M220,167.95h-96c-4.4,0-8-3.6-8-8s3.6-8,8-8h96c4.4,0,8,3.6,8,8S224.4,167.95,220,167.95z"/>
</g>
<path style="fill:#F6E89A;" d="M484,383.95c4.4,0,6.2-3.1,4-6.9l-17.3-30.1c-2.2-3.8-7.6-6.9-12-6.9H46.5c-4.4,0-9.9,3.1-12.1,6.9
	l-18.2,30.3c-2.3,3.8-0.5,6.9,3.9,6.9H484V383.95z"/>
<g>
	<path style="fill:#8D4520;" d="M484,391.95H20c-5.1,0-9.2-2.2-11.4-6.1s-1.9-8.6,0.7-12.9l18.2-30.3c3.7-6.2,11.7-10.7,19-10.7
		h412.3c7.3,0,15.3,4.6,18.9,11l17.3,30.1c2.5,4.4,2.7,9.1,0.4,12.9C493.2,389.75,489,391.95,484,391.95z M26.1,375.95h452
		l-14.4-25.1c-0.8-1.3-3.5-2.9-5-2.9H46.5c-1.6,0-4.4,1.6-5.3,3L26.1,375.95z"/>
	<path style="fill:#8D4520;" d="M12,386.95c-0.5,0-1.1-0.1-1.5-0.4c-1.4-0.9-1.9-2.7-1-4.1l26.5-44c0.9-1.4,2.7-1.9,4.1-1
		c1.4,0.9,1.9,2.7,1,4.1l-26.5,44C14,386.45,13,386.95,12,386.95z"/>
	<path style="fill:#8D4520;" d="M492,395.95c-4.2,0-8.2-2.2-10.4-6l-25.2-44c-3.3-5.8-1.3-13.1,4.4-16.4c5.7-3.3,13.1-1.3,16.4,4.4
		l25.2,44c3.3,5.8,1.3,13.1-4.4,16.4C496.1,395.45,494,395.95,492,395.95z"/>
</g>
<g>
	<path style="fill:#B58143;" d="M436,364.95H308c-0.6,0-1-0.4-1-1s0.4-1,1-1h128c0.6,0,1,0.4,1,1S436.6,364.95,436,364.95z"/>
	<path style="fill:#B58143;" d="M252,364.95H84c-0.6,0-1-0.4-1-1s0.4-1,1-1h168c0.6,0,1,0.4,1,1S252.6,364.95,252,364.95z"/>
	<path style="fill:#B58143;" d="M368,372.95c-0.5,0-0.9-0.3-1-0.8l-4-20c-0.1-0.5,0.2-1.1,0.8-1.2c0.5-0.1,1.1,0.2,1.2,0.8l4,20
		c0.1,0.5-0.2,1.1-0.8,1.2C368.1,372.95,368.1,372.95,368,372.95z"/>
	<path style="fill:#B58143;" d="M392,372.95c-0.5,0-0.9-0.3-1-0.8l-4-20c-0.1-0.5,0.2-1.1,0.8-1.2c0.5-0.1,1.1,0.2,1.2,0.8l4,20
		c0.1,0.5-0.2,1.1-0.8,1.2C392.1,372.95,392.1,372.95,392,372.95z"/>
	<path style="fill:#B58143;" d="M420,372.95c-0.4,0-0.8-0.2-0.9-0.6l-8-20c-0.2-0.5,0-1.1,0.6-1.3c0.5-0.2,1.1,0,1.3,0.6l8,20
		c0.2,0.5,0,1.1-0.6,1.3C420.3,372.95,420.1,372.95,420,372.95z"/>
	<path style="fill:#B58143;" d="M228,372.95c-0.6,0-1-0.4-1-1v-20c0-0.6,0.4-1,1-1s1,0.4,1,1v20C229,372.55,228.6,372.95,228,372.95
		z"/>
	<path style="fill:#B58143;" d="M200,372.95c-0.1,0-0.1,0-0.2,0c-0.5-0.1-0.9-0.6-0.8-1.2l4-20c0.1-0.5,0.6-0.9,1.2-0.8
		c0.5,0.1,0.9,0.6,0.8,1.2l-4,20C200.9,372.65,200.5,372.95,200,372.95z"/>
	<path style="fill:#B58143;" d="M100,372.95c-0.1,0-0.2,0-0.4-0.1c-0.5-0.2-0.8-0.8-0.6-1.3l8-20c0.2-0.5,0.8-0.8,1.3-0.6
		c0.5,0.2,0.8,0.8,0.6,1.3l-8,20C100.8,372.75,100.4,372.95,100,372.95z"/>
</g>
</svg>