<svg xmlns="http://www.w3.org/2000/svg" width="150" height="150"><path fill="#ee2c21" d="M127.5 150h-105c-5.97 0-11.7-2.36-15.9-6.57C2.38 139.2 0 133.46 0 127.5v-105c0-5.96 2.36-11.68 6.57-15.9C10.8 2.38 16.53 0 22.5 0h105c5.96 0 11.68 2.36 15.9 6.58 4.22 4.2 6.6 9.96 6.6 15.92v105c0 5.96-2.36 11.68-6.58 15.9-4.2 4.22-9.96 6.6-15.92 6.6"/><path fill="#fff" d="M127.5 144h-105c-4.37 0-8.57-1.73-11.66-4.82-3.1-3.1-4.84-7.3-4.84-11.68v-105c0-4.37 1.73-8.57 4.82-11.66C13.92 7.74 18.12 6 22.5 6h105c4.37 0 8.57 1.73 11.66 4.82 3.1 3.1 4.84 7.3 4.84 11.68v105c0 4.37-1.73 8.57-4.82 11.66-3.1 3.1-7.3 4.84-11.68 4.84"/><path fill="#231f20" d="M81.2 103.95l1.74-6.37 5.68-1.62 13.35-25.87-19.44 9.58H66.06l-5.32 9.54 5.34 8.5-1.2 6.25-20.08-.02 1.5-5.62 5.37-3.12-4.96-12.3-11.47 15.43 1.5 5.6-17.98.02 2.37-7.66 3.46-1.53 8.14-12.82-3.38-11.4-6.37 3.1 9.45-27.1-4.3-6.28 2.38-3.65 6.22 5 3.8-6.18H25.88l.16 3.1-4.14-.08.52-6.26h17.74l-.75-2.62-9.37 1.45-2.53-8.56 11.58-.25.77-2.37 15.6-.2 9.97-3.1-3.3 10.56 3.75-3.1 1.08 27.84h49.9v-6.2H74.1L72.75 32.5l1.37-12.74h51.12V33.5l-6.14-7.3-39.17-.02-.68 6.32.68 6.53h39.15l6.16 5.2.02 22.45 6 24.37-4.32 12.9h-18.8l2.43-6.37 6.23-1.36 2.47-5.6-7.3-8.07-10.53 14.72-.83 6.68H81.2z"/><path fill="#ee2c21" d="M51.98 106.9c-1.6 0-3.08.44-4.2 1.6-1.14 1.2-1.53 2.76-1.53 4.38v11.74c0 1.65.26 3.5 1.3 4.85.92 1.2 2.24 1.7 3.75 1.7.74 0 1.46-.14 2.1-.53.53-.33.95-.8 1.28-1.32l.58 1.36h2v-11.92h-5.9v3.3h2.13v3.38c0 .56-.08 1.23-.43 1.7-.3.38-.73.5-1.2.5-.5 0-.93-.12-1.23-.52-.35-.45-.42-1.12-.42-1.68v-12.78c0-.55.07-1.22.42-1.67.3-.4.74-.53 1.22-.53s.9.13 1.2.52c.36.43.43 1.1.43 1.66v2.6h3.77v-2.28c0-1.58-.28-3.3-1.34-4.52-1-1.15-2.45-1.55-3.95-1.55zm63.15 0c-1.6 0-3.08.44-4.2 1.6-1.15 1.2-1.53 2.76-1.53 4.38v11.74c0 1.65.25 3.5 1.3 4.85.92 1.2 2.24 1.7 3.75 1.7.74 0 1.46-.14 2.1-.53.53-.33.95-.8 1.28-1.32l.58 1.36h2.02v-11.92h-5.92v3.3h2.14v3.38c0 .56-.07 1.23-.42 1.7-.3.38-.73.5-1.22.5-.48 0-.9-.12-1.2-.52-.36-.45-.43-1.12-.43-1.68v-12.78c0-.55.07-1.22.42-1.67.3-.4.72-.53 1.2-.53s.92.13 1.22.52c.35.43.42 1.1.42 1.66v2.6h3.78v-2.28c0-1.58-.28-3.3-1.34-4.52-1-1.16-2.45-1.55-3.95-1.55zm-39.3.5v23.28h3.98V107.4h-3.96zm-57.08 0v23.28h3.65v-14.65-.48l2.73 15.13h2.07l2.84-14.95V130.68h3.67V107.4h-5.1l-2.23 12.88-.12.8-.13-.84-2.33-12.84h-5.05zm16.72 0v23.28h9.6v-3.8h-5.7v-6.48h4.1v-3.68h-4.1v-5.64h5.7v-3.68h-9.6zm26.6 0l-3.84 23.28h3.85l.76-4.96h3.25l.7 4.96h4L67 107.4h-4.94zm19.06 0v23.28h3.65v-14.65-.5l2.74 15.15h2.06l2.83-14.95V130.68h3.7V107.4h-5.12l-2.23 12.88-.12.8-.13-.84-2.33-12.84h-5.04zm19.35 0l-3.83 23.28h3.84l.75-4.96h3.25l.7 4.96h4.02l-3.8-23.28h-4.94zm21.18 0v23.28h9.6v-3.8h-5.7v-6.48h4.1v-3.68h-4.1v-5.64h5.7v-3.68h-9.6zm-57.16 5.9l1.1 8.8h-2.26l1.16-8.8zm38.42 0l1.1 8.8h-2.27l1.17-8.8z"/></svg>