<?xml version="1.0" encoding="iso-8859-1"?>
<!-- Uploaded to: SVG Repo, www.svgrepo.com, Generator: SVG Repo Mixer Tools -->
<svg version="1.1" id="Layer_1" xmlns="http://www.w3.org/2000/svg" xmlns:xlink="http://www.w3.org/1999/xlink" 
	 viewBox="0 0 445.9 445.9" xml:space="preserve">
<ellipse style="opacity:0.5;fill:#B8CBCD;enable-background:new    ;" cx="218.168" cy="398.6" rx="190.7" ry="47.3"/>
<path style="fill:#B9E3ED;" d="M134.868,107.9c15.6-15.6,40.9-15.4,56.3,0.2l214.3,218c15.4,15.7,15.3,41.3-0.2,56.8l-4,4
	c-15.6,15.6-41.1,15.7-56.8,0.2l-218-214.2c-15.7-15.4-15.8-40.8-0.2-56.3L134.868,107.9z"/>
<g>
	<path style="fill:#324654;" d="M372.768,410.7c-13.9,0-26.9-5.3-36.7-15l-218-214.2c-9.9-9.7-15.4-22.7-15.4-36.7
		c0-13.9,5.3-26.9,15.1-36.7l8.6-8.7c9.8-9.8,22.8-15.2,36.6-15.2c14,0,27,5.5,36.8,15.4l214.3,218c20.1,20.4,19.9,53.5-0.3,73.7
		l-4,4C399.868,405.2,386.768,410.7,372.768,410.7z M162.868,108.3c-7.4,0-14.3,2.9-19.5,8.1l-8.6,8.7l-0.1,0.1
		c-5.2,5.2-8.1,12.2-8.1,19.6c0,7.5,3,14.4,8.2,19.6l218,214.2c5.3,5.2,12.4,8.1,19.9,8.1c7.6,0,14.7-2.9,20-8.2l4-4
		c10.9-10.9,11-28.8,0.1-39.9l-214.3-218C177.368,111.2,170.368,108.3,162.868,108.3z"/>
	
		<rect x="297.959" y="267.644" transform="matrix(0.7071 0.7071 -0.7071 0.7071 303.4103 -136.6106)" style="opacity:0.2;fill:#324654;enable-background:new    ;" width="37.3" height="60.599"/>
</g>
<circle style="fill:#B9E3ED;" cx="185.768" cy="168.9" r="156.9"/>
<path style="fill:#324654;" d="M185.768,337.8c-93.1,0-168.9-75.8-168.9-168.9S92.668,0,185.768,0s168.9,75.8,168.9,168.9
	S278.868,337.8,185.768,337.8z M185.768,24c-79.9,0-144.9,65-144.9,144.9s65,144.9,144.9,144.9s144.9-65,144.9-144.9
	S265.668,24,185.768,24z"/>
<circle style="fill:#FFFFFF;" cx="185.768" cy="168.9" r="101"/>
<g>
	<polygon style="fill:#B9E3ED;" points="87.968,212.8 242.768,58 272.368,87.6 101.168,258.9 	"/>
</g>
<g>
	
		<rect x="108.48" y="184.816" transform="matrix(0.7071 -0.7071 0.7071 0.7071 -75.4811 206.0048)" style="fill:#B9E3ED;" width="204.898" height="18.6"/>
</g>
<path style="fill:#324654;" d="M188.968,277.9c-60.1,0-109-48.9-109-109s48.9-109,109-109s109,48.9,109,109c0,4.4-3.6,8-8,8
	s-8-3.6-8-8c0-51.3-41.7-93-93-93s-93,41.7-93,93s41.7,93,93,93c4.4,0,8,3.6,8,8S193.368,277.9,188.968,277.9z"/>
</svg>