<svg xmlns="http://www.w3.org/2000/svg" id="Layer_1" viewBox="0 0 176.9 176.9">
    <style>
        .st0,.st1{fill:#fff;fill-rule:evenodd;clip-rule:evenodd}.st1{fill:#e71f01}
    </style>
    <path d="M148 176.9H28.9c-7.7 0-15-3-20.4-8.5C3.1 163 0 155.6 0 148V28.9c0-7.7 3-15 8.5-20.4C13.9 3.1 21.2 0 28.9 0H148c7.7 0 15 3 20.4 8.5 5.4 5.4 8.5 12.8 8.5 20.5v119c0 7.7-3 15-8.5 20.4-5.4 5.4-12.8 8.5-20.4 8.5" class="st0"/>
    <path d="M147.1 172.3H29.7c-6.7 0-13.1-2.6-17.8-7.4a25.2 25.2 0 0 1-7.4-17.8V29.7c0-6.7 2.6-13.1 7.4-17.8a25.2 25.2 0 0 1 17.8-7.4h117.4c6.7 0 13.1 2.6 17.8 7.4a25.2 25.2 0 0 1 7.4 17.8v117.4c0 6.7-2.6 13.1-7.4 17.8a25.2 25.2 0 0 1-17.8 7.4" class="st1"/>
    <path d="M147.1 165.6H29.7c-4.9 0-9.6-1.9-13-5.4-3.5-3.5-5.4-8.2-5.4-13.1V29.7c0-4.9 1.9-9.6 5.4-13 3.5-3.5 8.2-5.4 13.1-5.4h117.4c4.9 0 9.6 1.9 13 5.4 3.5 3.5 5.4 8.2 5.4 13.1v117.4c0 4.9-1.9 9.6-5.4 13s-8.2 5.4-13.1 5.4" class="st0"/>
    <path d="m95.4 120.8 1.9-7.1 6.4-1.8 14.9-29-21.7 10.8H78.4l-5.9 10.6 6 9.5-1.4 7H54.7l1.6-6.3 6.1-3.5-5.6-13.7L44 114.5l1.6 6.3h-20l2.6-8.6 3.9-1.7 9.1-14.3-3.8-12.7-7.1 3.4 10.5-30.3-4.8-7 2.7-4.1 6.9 5.6 4.3-6.9H33.5l.2 3.5-4.6-.1.6-7h19.8l-.8-2.9-10.5 1.6-2.9-9.6 13-.3.8-2.6 17.5-.2 11.1-3.5L74 34.9l4.2-3.5 1.2 31.2h55.8v-7H87.4l-1.5-14.7 1.6-14.2h57.1v15.4l-6.9-8.2H93.9l-.7 7 .7 7.3h43.8l6.9 5.8v25.1l6.7 27.3-4.8 14.4h-21l2.7-7.1 7-1.5 2.7-6.3-8.1-9-11.8 16.4-.9 7.5z" style="fill:#1b1c20;fill-rule:evenodd;clip-rule:evenodd"/>
    <path d="M118.3 141.1h2.5l-1.2-9.8zm3.1 4h-3.6l-.9 5.5h-4.3l4.3-26h5.5l4.3 26h-4.5zm23.6-16.3v6.3h4.5v4.1H145v7.2h6.3v4.3h-10.7v-26h10.7v4.1zM135 141h-2.4v-3.7h6.6v13.3H137l-.7-1.5c-.4.6-.8 1.1-1.4 1.5-.7.4-1.5.6-2.3.6-1.7 0-3.2-.5-4.2-1.9-1.2-1.5-1.4-3.6-1.4-5.4v-13.1c0-1.8.4-3.6 1.7-4.9s2.9-1.8 4.7-1.8c1.7 0 3.3.4 4.4 1.7 1.2 1.4 1.5 3.3 1.5 5v2.6H135v-2.9c0-.6-.1-1.4-.5-1.9-.3-.4-.8-.6-1.4-.6-.5 0-1 .2-1.4.6-.4.5-.5 1.3-.5 1.9v14.3c0 .6.1 1.4.5 1.9.3.4.8.6 1.4.6.5 0 1-.2 1.4-.6.4-.5.5-1.3.5-1.9zm-31.3-1.1c0-.3.1-.6.1-.9l2.5-14.4h5.7v26h-4.1v-16.7l-3.2 16.7h-2.3l-3.1-16.9v16.9h-4.1v-26h5.6l2.6 14.4c.2.3.2.6.3.9m-14.3-15.2h4.4v26h-4.4zm-14 16.4h2.5l-1.2-9.8zm3.1 4h-3.6l-.9 5.5h-4.3l4.3-26h5.5l4.3 26h-4.5zM64.4 141H62v-3.7h6.6v13.3h-2.2l-.7-1.5c-.4.6-.8 1.1-1.4 1.5-.7.4-1.5.6-2.3.6-1.7 0-3.2-.5-4.2-1.9-1.2-1.5-1.4-3.6-1.4-5.4v-13.1c0-1.8.4-3.6 1.7-4.9s2.9-1.8 4.7-1.8c1.7 0 3.3.4 4.4 1.7 1.2 1.4 1.5 3.3 1.5 5v2.6h-4.2v-2.9c0-.6-.1-1.4-.5-1.9-.3-.4-.8-.6-1.4-.6-.5 0-1 .2-1.4.6-.4.5-.5 1.3-.5 1.9v14.3c0 .6.1 1.4.5 1.9.3.4.8.6 1.4.6.5 0 1-.2 1.4-.6.4-.5.5-1.3.5-1.9V141zm-15.8-12.2v6.3h4.6v4.1h-4.6v7.2H55v4.3H44.2v-26H55v4.1zm-14.7 11.1c0-.3.1-.6.1-.9l2.5-14.4h5.7v26h-4.1v-16.7L35 150.7h-2.3l-3.1-16.9v16.9h-4.1v-26h5.6l2.6 14.4c.2.2.2.5.2.8" class="st1"/>
</svg>
