<?xml version="1.0" encoding="iso-8859-1"?>
<!-- Uploaded to: SVG Repo, www.svgrepo.com, Generator: SVG Repo Mixer Tools -->
<svg version="1.1" id="Layer_1" xmlns="http://www.w3.org/2000/svg" xmlns:xlink="http://www.w3.org/1999/xlink" 
	 viewBox="0 0 505.5 505.5" xml:space="preserve">
<ellipse style="opacity:0.5;fill:#B8CBCD;enable-background:new    ;" cx="190.7" cy="419.475" rx="190.7" ry="47.3"/>
<path style="fill:#324654;" d="M431.6,420.375c-24,0-46.5-9.3-63.4-26.3c-16.9-16.9-26.3-39.5-26.3-63.4c0-24,9.3-46.5,26.3-63.4
	c0,0,0,0,0.1-0.1l94-92.4c12.4-12.4,19.2-28.9,19.2-46.4s-6.8-34-19.2-46.4c-25.6-25.6-67.3-25.6-92.9,0l-84.9,84.9
	c-4.7,4.7-12.3,4.7-17,0s-4.7-12.3,0-17l84.9-84.9c35-35,91.9-35,126.8,0c16.9,16.9,26.3,39.5,26.3,63.4s-9.3,46.5-26.3,63.4
	c0,0,0,0-0.1,0.1l-94,92.4c-12.4,12.4-19.2,28.9-19.2,46.4s6.8,34,19.2,46.4c25.6,25.6,67.3,25.6,92.9,0c4.7-4.7,12.3-4.7,17,0
	s4.7,12.3,0,17C478.1,411.075,455.6,420.375,431.6,420.375z"/>
<path style="fill:#B9E3ED;" d="M80.7,358.975L80.7,358.975c-45.5-45.5-45.5-120,0-165.5l92.7-92.7c45.5-45.5,120-45.5,165.5,0l0,0
	c45.5,45.5,45.5,120,0,165.5l-92.8,92.7C200.6,404.475,126.2,404.475,80.7,358.975z"/>
<path style="fill:#FFFFFF;" d="M149.4,392.375c-10.6-5.4-20.6-12.5-29.5-21.4l0,0c-45.5-45.5-45.5-120,0-165.5l92.7-92.7
	c26-26,61.5-37.1,95.6-33.4c-44-22.3-99.4-15.2-136,21.4l-92.7,92.7c-45.5,45.6-45.5,120,0,165.5l0,0
	C99,378.475,123.8,389.675,149.4,392.375z"/>
<path style="fill:#A1D2DB;" d="M272.1,62.675c10.6,5.4,20.6,12.5,29.5,21.4l0,0c45.5,45.5,45.5,120,0,165.5l-92.7,92.7
	c-26,26-61.5,37.1-95.6,33.4c44,22.4,99.4,15.2,136-21.4l92.7-92.7c45.5-45.5,45.5-120,0-165.5l0,0
	C322.5,76.575,297.7,65.475,272.1,62.675z"/>
<g>
	<path style="fill:#324654;" d="M163.4,405.175c-34.6,0-67-13.4-91.2-37.6c-50.3-50.3-50.3-132.2,0-182.5l92.7-92.7
		c24.3-24.3,56.7-37.6,91.2-37.6c34.6,0,67,13.4,91.2,37.6c50.3,50.3,50.3,132.2,0,182.5l-92.7,92.7
		C230.4,391.775,198,405.175,163.4,405.175z M256.1,78.675c-28.1,0-54.5,10.9-74.3,30.6l-92.7,92.7c-40.9,40.9-40.9,107.6,0,148.5
		c19.7,19.7,46.1,30.6,74.3,30.6c28.1,0,54.5-10.9,74.3-30.6l92.7-92.7c40.9-40.9,40.9-107.6,0-148.5
		C310.6,89.575,284.2,78.675,256.1,78.675z"/>
	
		<rect x="278.446" y="71.591" transform="matrix(-0.7071 -0.7071 0.7071 -0.7071 380.2521 467.4857)" style="fill:#324654;" width="17" height="166.798"/>
	
		<rect x="112.116" y="199.319" transform="matrix(-0.7071 -0.7071 0.7071 -0.7071 252.7089 520.3142)" style="fill:#324654;" width="243.998" height="17"/>
</g>
<rect x="257.501" y="136.033" transform="matrix(0.7071 -0.7071 0.7071 0.7071 -22.208 249.6506)" style="fill:#FFFFFF;" width="65.499" height="31.2"/>
<path style="fill:#324654;" d="M278.1,194.275c-2.2,0-4.4-0.8-6-2.5l-22.1-22c-3.3-3.3-3.3-8.7,0-12l46.3-46.3c3.3-3.3,8.7-3.3,12,0
	l22.1,22.1c3.3,3.3,3.3,8.7,0,12l-46.3,46.3C282.5,193.475,280.3,194.275,278.1,194.275z M268.1,163.775l10,10l34.3-34.3l-10-10
	L268.1,163.775z"/>
</svg>