<svg xmlns="http://www.w3.org/2000/svg"  viewBox="0 0 100 100" width="100px" height="100px"><path fill="#78a0cf" d="M13 27A2 2 0 1 0 13 31A2 2 0 1 0 13 27Z"/><path fill="#f1bc19" d="M77 12A1 1 0 1 0 77 14A1 1 0 1 0 77 12Z"/><path fill="#cee1f4" d="M50 13A37 37 0 1 0 50 87A37 37 0 1 0 50 13Z"/><path fill="#f1bc19" d="M83 11A4 4 0 1 0 83 19A4 4 0 1 0 83 11Z"/><path fill="#78a0cf" d="M87 22A2 2 0 1 0 87 26A2 2 0 1 0 87 22Z"/><path fill="#fbcd59" d="M81 74A2 2 0 1 0 81 78 2 2 0 1 0 81 74zM15 59A4 4 0 1 0 15 67 4 4 0 1 0 15 59z"/><path fill="#78a0cf" d="M25 85A2 2 0 1 0 25 89A2 2 0 1 0 25 85Z"/><path fill="#fff" d="M18.5 51A2.5 2.5 0 1 0 18.5 56A2.5 2.5 0 1 0 18.5 51Z"/><path fill="#f1bc19" d="M21 66A1 1 0 1 0 21 68A1 1 0 1 0 21 66Z"/><path fill="#fff" d="M80 33A1 1 0 1 0 80 35A1 1 0 1 0 80 33Z"/><g><path fill="#f9e65c" d="M54.5,26.944C54.033,24.686,52.196,23,50,23s-4.034,1.686-4.5,3.944H54.5z"/><path fill="#472b29" d="M55.359,27.644H44.641l0.174-0.842C45.361,24.151,47.494,22.3,50,22.3 c2.505,0,4.638,1.852,5.186,4.502L55.359,27.644z M46.441,26.243h7.118C52.933,24.711,51.563,23.7,50,23.7 C48.437,23.7,47.066,24.711,46.441,26.243z"/></g><g><path fill="#f9e65c" d="M50,73.875c-3.515,0-6.375-2.86-6.375-6.375h12.75C56.375,71.015,53.515,73.875,50,73.875z"/><path fill="#472b29" d="M50,74.575c-3.901,0-7.075-3.174-7.075-7.075v-0.7h14.15v0.7 C57.075,71.401,53.901,74.575,50,74.575z M44.368,68.2c0.346,2.8,2.74,4.975,5.632,4.975S55.286,71,55.632,68.2H44.368z"/></g><g><path fill="#f9e65c" d="M29.529,67.3c-1.56,0-2.829-1.282-2.829-2.859c0-1.576,1.269-2.858,2.829-2.858h0.62l2.564-21.115 c0.953-7.849,7.582-13.767,15.42-13.767h3.733c7.838,0,14.467,5.918,15.419,13.767l2.564,21.115h0.62 c1.56,0,2.829,1.282,2.829,2.858c0,1.577-1.269,2.859-2.829,2.859H29.529z"/><path fill="#472b29" d="M51.867,27.4c7.484,0,13.815,5.654,14.725,13.152l2.489,20.498l0.149,1.231h1.24 c1.174,0,2.129,0.969,2.129,2.159S71.645,66.6,70.471,66.6H29.529c-1.174,0-2.129-0.969-2.129-2.159s0.955-2.159,2.129-2.159h1.24 l0.15-1.231l2.49-20.498c0.91-7.498,7.24-13.152,14.725-13.152H51.867 M51.867,26h-3.733c-8.203,0-15.118,6.171-16.115,14.383 l-2.49,20.498c-1.949,0-3.529,1.594-3.529,3.559S27.58,68,29.529,68h40.941C72.42,68,74,66.406,74,64.441s-1.58-3.559-3.529-3.559 l-2.489-20.498C66.985,32.171,60.07,26,51.867,26L51.867,26z"/></g><g><path fill="#472b29" d="M54.5,62h-25c-0.276,0-0.5-0.224-0.5-0.5s0.224-0.5,0.5-0.5h25c0.276,0,0.5,0.224,0.5,0.5 S54.776,62,54.5,62z"/></g><g><path fill="#472b29" d="M61.5,62h-4c-0.276,0-0.5-0.224-0.5-0.5s0.224-0.5,0.5-0.5h4c0.276,0,0.5,0.224,0.5,0.5 S61.776,62,61.5,62z"/></g><g><path fill="#472b29" d="M66.5,62h-2c-0.276,0-0.5-0.224-0.5-0.5s0.224-0.5,0.5-0.5h2c0.276,0,0.5,0.224,0.5,0.5 S66.776,62,66.5,62z"/></g></svg>