<?xml version="1.0" encoding="iso-8859-1"?>
<!-- Uploaded to: SVG Repo, www.svgrepo.com, Generator: SVG Repo Mixer Tools -->
<svg version="1.1" id="Layer_1" xmlns="http://www.w3.org/2000/svg" xmlns:xlink="http://www.w3.org/1999/xlink" 
	 viewBox="0 0 496.1 496.1" xml:space="preserve">
<ellipse style="opacity:0.5;fill:#B8CBCD;enable-background:new    ;" cx="246.75" cy="448.8" rx="190.7" ry="47.3"/>
<path style="fill:#B2EDA6;" d="M324.05,422c0,16.6-13.4,30-30,30h-92c-16.6,0-30-13.4-30-30l0,0c0-16.6,13.4-30,30-30h92
	C310.65,392,324.05,405.4,324.05,422L324.05,422z"/>
<path style="fill:#3C663E;" d="M294.05,464h-92c-23.2,0-42-18.8-42-42s18.8-42,42-42h92c23.2,0,42,18.8,42,42S317.25,464,294.05,464
	z M202.05,404c-9.9,0-18,8.1-18,18s8.1,18,18,18h92c9.9,0,18-8.1,18-18s-8.1-18-18-18H202.05z"/>
<path style="fill:#B2EDA6;" d="M460.05,260c0,22-18,40-40,40h-344c-22,0-40-18-40-40V52c0-22,18-40,40-40h344c22,0,40,18,40,40V260z
	"/>
<path style="fill:#3C663E;" d="M420.05,312h-344c-28.7,0-52-23.3-52-52V52c0-28.7,23.3-52,52-52h344c28.7,0,52,23.3,52,52v208
	C472.05,288.7,448.75,312,420.05,312z M76.05,24c-15.4,0-28,12.6-28,28v208c0,15.4,12.6,28,28,28h344c15.4,0,28-12.6,28-28V52
	c0-15.4-12.6-28-28-28H76.05z"/>
<polygon style="fill:#B2EDA6;" points="268.05,332 280.05,416 216.05,416 228.05,332 "/>
<path style="fill:#3C663E;" d="M280.05,428L280.05,428h-64c-3.5,0-6.8-1.5-9.1-4.1s-3.3-6.1-2.8-9.6l12-84
	c0.9-5.9,5.9-10.3,11.9-10.3h40c6,0,11,4.4,11.9,10.3l11.9,83.3c0.2,0.8,0.2,1.6,0.2,2.4C292.05,422.6,286.65,428,280.05,428z
	 M229.85,404h36.3l-8.6-60h-19.2L229.85,404z"/>
<polygon style="fill:#84C671;" points="261.15,336.2 267.75,376 228.05,376 234.75,336.2 "/>
<path style="fill:#B2EDA6;" d="M456.05,296c0,22-18,40-40,40h-336c-22,0-40-18-40-40V88c0-22,18-40,40-40h336c22,0,40,18,40,40V296z
	"/>
<g>
	<path style="fill:#3C663E;" d="M416.05,344h-336c-26.5,0-48-21.5-48-48V88c0-26.5,21.5-48,48-48h336c26.5,0,48,21.5,48,48v208
		C464.05,322.5,442.55,344,416.05,344z M80.05,56c-17.6,0-32,14.4-32,32v208c0,17.6,14.4,32,32,32h336c17.6,0,32-14.4,32-32V88
		c0-17.6-14.4-32-32-32H80.05z"/>
	<circle style="fill:#3C663E;" cx="246.05" cy="302" r="10"/>
</g>
<rect x="80.05" y="88" style="fill:#E7FFE1;" width="336" height="184"/>
<g>
	<path style="fill:#3C663E;" d="M416.05,280h-336c-4.4,0-8-3.6-8-8V88c0-4.4,3.6-8,8-8h336c4.4,0,8,3.6,8,8v184
		C424.05,276.4,420.45,280,416.05,280z M88.05,264h320V96h-320V264z"/>
	<path style="fill:#3C663E;" d="M420.05,348h-344c-28.7,0-52-23.3-52-52V52.3c0-6.6,5.4-12,12-12s12,5.4,12,12V296
		c0,15.4,12.6,28,28,28h344c15.4,0,28-12.6,28-28V51.8c0-6.6,5.4-12,12-12s12,5.4,12,12V296C472.05,324.7,448.75,348,420.05,348z"/>
	<path style="fill:#3C663E;" d="M316.05,176h-136c-4.4,0-8-3.6-8-8s3.6-8,8-8h136c4.4,0,8,3.6,8,8S320.45,176,316.05,176z"/>
	<path style="fill:#3C663E;" d="M288.05,244h-80c-15.4,0-28-12.6-28-28v-48c0-4.4,3.6-8,8-8s8,3.6,8,8v48c0,6.6,5.4,12,12,12h80
		c6.6,0,12-5.4,12-12v-48c0-4.4,3.6-8,8-8s8,3.6,8,8v48C316.05,231.4,303.45,244,288.05,244z"/>
	<path style="fill:#3C663E;" d="M220.05,220c-4.4,0-8-3.6-8-8v-20c0-4.4,3.6-8,8-8s8,3.6,8,8v20C228.05,216.4,224.45,220,220.05,220
		z"/>
	<path style="fill:#3C663E;" d="M248.05,220c-4.4,0-8-3.6-8-8v-20c0-4.4,3.6-8,8-8s8,3.6,8,8v20C256.05,216.4,252.45,220,248.05,220
		z"/>
	<path style="fill:#3C663E;" d="M276.05,220c-4.4,0-8-3.6-8-8v-20c0-4.4,3.6-8,8-8s8,3.6,8,8v20C284.05,216.4,280.45,220,276.05,220
		z"/>
	<path style="fill:#3C663E;" d="M196.05,176c-2,0-4.1-0.8-5.7-2.3c-3.1-3.1-3.1-8.2,0-11.3l38-38c3.1-3.1,8.2-3.1,11.3,0
		c3.1,3.1,3.1,8.2,0,11.3l-38,38C200.15,175.2,198.05,176,196.05,176z"/>
	<path style="fill:#3C663E;" d="M306.05,176c-2,0-4.1-0.8-5.7-2.3l-38-38c-3.1-3.1-3.1-8.2,0-11.3c3.1-3.1,8.2-3.1,11.3,0l38,38
		c3.1,3.1,3.1,8.2,0,11.3C310.15,175.2,308.05,176,306.05,176z"/>
	<path style="fill:#3C663E;" d="M280.05,428L280.05,428h-64c-3.5,0-6.8-1.5-9.1-4.2c-2.3-2.6-3.3-6.2-2.8-9.6l12-80
		c0.9-5.9,5.9-10.2,11.9-10.2h40c5.9,0,11,4.3,11.9,10.2l11.9,79.3c0.2,0.8,0.3,1.6,0.3,2.5C292.05,422.6,286.65,428,280.05,428z
		 M229.95,404h36.1l-8.4-56h-19.3L229.95,404z"/>
</g>
</svg>