<?xml version="1.0" encoding="iso-8859-1"?>
<!-- Uploaded to: SVG Repo, www.svgrepo.com, Generator: SVG Repo Mixer Tools -->
<svg height="800px" width="800px" version="1.1" id="Layer_1" xmlns="http://www.w3.org/2000/svg" xmlns:xlink="http://www.w3.org/1999/xlink" 
	 viewBox="0 0 506 506" xml:space="preserve">
<ellipse style="opacity:0.5;fill:#B8CBCD;enable-background:new    ;" cx="253.95" cy="458.7" rx="190.7" ry="47.3"/>
<path style="fill:#FFBAB0;" d="M406.55,178.6c0,92-166.6,269.9-166.6,269.9S73.35,270.1,73.35,178c0-92,74.6-166,166.6-166
	S406.55,86.6,406.55,178.6z"/>
<path style="fill:#783741;" d="M239.95,460.5L239.95,460.5c-3.3,0-6.5-1.4-8.8-3.8c-0.4-0.5-42.6-45.7-84.2-101.8
	c-56.8-76.5-85.6-136.1-85.6-176.9c0-47.7,18.6-92.4,52.3-126c33.7-33.5,78.5-52,126.3-52c98.5,0,178.6,80.1,178.6,178.6
	c0,40.8-28.8,100.2-85.7,176.6c-41.6,55.9-83.7,101-84.2,101.5C246.45,459.1,243.25,460.5,239.95,460.5z M239.95,24
	c-85.2,0-154.6,69.1-154.6,154c0,35.1,28,91.3,80.9,162.6c29.6,39.8,59.4,74,73.7,90c14.4-16,44.2-50.2,73.8-90
	c52.9-71.1,80.8-127.1,80.8-162.1C394.55,93.4,325.15,24,239.95,24z"/>
<path style="fill:#FFBAB0;" d="M398.15,207.8c0,87.3-158.1,256.2-158.1,256.2S81.85,295.2,81.85,207.8s70.8-158.1,158.1-158.1
	C327.35,49.7,398.15,120.5,398.15,207.8z"/>
<path style="fill:#783741;" d="M240.05,472c-2.2,0-4.3-0.9-5.8-2.5c-6.5-7-160.4-172.1-160.4-261.7c0-91.6,74.5-166.1,166.1-166.1
	s166.2,74.5,166.2,166.1c0,89.4-153.7,254.7-160.3,261.7C244.35,471.1,242.25,472,240.05,472L240.05,472z M239.95,57.7
	c-82.8,0-150.1,67.3-150.1,150.1c0,73.9,121.8,213,150.2,244.3c28.3-31.4,150.1-170.5,150.1-244.3
	C390.15,125,322.75,57.7,239.95,57.7z"/>
<path style="fill:#FFBAB0;" d="M401.65,207.8c0,87.4-161.7,256.2-161.7,256.2S78.15,295.2,78.15,207.8"/>
<g>
	<path style="fill:#783741;" d="M239.95,476c-3.3,0-6.4-1.3-8.7-3.7c-0.4-0.4-41.4-43.3-81.8-96.4c-55.3-72.6-83.4-129.2-83.4-168.1
		c0-6.6,5.4-12,12-12s12,5.4,12,12c0,33.1,27.1,86.2,78.4,153.6c28.6,37.5,57.4,69.8,71.3,85c14-15.2,42.9-47.6,71.4-85.2
		c51.2-67.3,78.3-120.4,78.3-153.4c0-6.6,5.4-12,12-12s12,5.4,12,12c0,38.9-28,95.5-83.3,168.1c-40.4,53.1-81.3,95.9-81.7,96.4
		C246.35,474.7,243.25,476,239.95,476z"/>
	<path style="opacity:0.2;fill:#783741;enable-background:new    ;" d="M240.55,285.3c-55,0-100.2-39.9-106.2-91.3
		c-0.4,3.8-0.7,7.7-0.7,11.6c0,56.8,47.9,102.9,106.9,102.9c59.1,0,106.9-46.1,106.9-102.9c0-3.9-0.3-7.8-0.7-11.6
		C340.75,245.3,295.55,285.3,240.55,285.3z"/>
	<path style="fill:#783741;" d="M240.55,316.9c-61.6,0-111.8-48.4-111.8-107.9c0-29.5,12.1-57.1,34.1-77.6c3.2-3,8.3-2.8,11.3,0.4
		s2.8,8.3-0.4,11.3c-18.7,17.5-29.1,40.9-29.1,66c0,50.7,43,91.9,95.8,91.9s95.8-41.2,95.8-91.9c0-26.1-11.6-51.1-31.8-68.4
		c-3.4-2.9-3.7-7.9-0.9-11.3c2.9-3.4,7.9-3.7,11.3-0.9c23.8,20.4,37.4,49.8,37.4,80.6C352.35,268.5,302.15,316.9,240.55,316.9z"/>
	<path style="fill:#783741;" d="M213.75,207.4c-16,0-29.1-13.1-29.1-29.1s13.1-29.1,29.1-29.1s29.1,13.1,29.1,29.1
		S229.75,207.4,213.75,207.4z M213.75,165.2c-7.2,0-13.1,5.9-13.1,13.1c0,7.2,5.9,13.1,13.1,13.1s13.1-5.9,13.1-13.1
		C226.85,171.1,220.95,165.2,213.75,165.2z"/>
	<path style="fill:#783741;" d="M271.15,264.8c-16,0-29.1-13.1-29.1-29.1s13.1-29.1,29.1-29.1s29.1,13.1,29.1,29.1
		S287.15,264.8,271.15,264.8z M271.15,222.6c-7.2,0-13.1,5.9-13.1,13.1c0,7.2,5.9,13.1,13.1,13.1s13.1-5.9,13.1-13.1
		S278.35,222.6,271.15,222.6z"/>
	<path style="fill:#783741;" d="M198.65,258.8c-2,0-4.1-0.8-5.7-2.3c-3.1-3.1-3.1-8.2,0-11.3l87.6-87.6c3.1-3.1,8.2-3.1,11.3,0
		c3.1,3.1,3.1,8.2,0,11.3l-87.6,87.6C202.75,258,200.65,258.8,198.65,258.8z"/>
</g>
</svg>