<?xml version="1.0" encoding="UTF-8"?>
<svg xmlns="http://www.w3.org/2000/svg" xmlns:xlink="http://www.w3.org/1999/xlink" width="785.33pt" height="301.72pt" viewBox="0 0 785.33 301.72" version="1.1">
<defs>
<clipPath id="clip1">
  <path d="M 0 0 L 785.328125 0 L 785.328125 301.71875 L 0 301.71875 Z M 0 0 "/>
</clipPath>
</defs>
<g id="surface1">
<g clip-path="url(#clip1)" clip-rule="nonzero">
<path style=" stroke:none;fill-rule:nonzero;fill:rgb(100%,100%,100%);fill-opacity:1;" d="M 785.304688 96.765625 C 784.601563 85.707031 781.0625 76.199219 774.785156 68.476563 C 774.265625 67.847656 770.515625 64.097656 769.851563 63.5625 C 761.785156 57.066406 751.878906 53.582031 740.410156 53.214844 C 740.265625 53.210938 268.25 53.222656 267.898438 53.253906 C 258.066406 54.019531 249.480469 57.542969 241.65625 64.019531 C 241.007813 64.558594 238.046875 67.523438 237.527344 68.136719 C 232.082031 74.613281 228.761719 81.558594 227.367188 89.367188 C 219.480469 93.203125 225.667969 73.507813 218.382813 58.453125 C 215.128906 45.847656 203.988281 38.183594 188.246094 37.742188 C 186.554688 37.496094 165.671875 37.5 165.671875 37.5 C 168.609375 29.953125 168.0625 21.738281 164.03125 14.53125 C 159.691406 6.746094 151.835938 1.390625 143.265625 0.25 C 141.878906 -0.0585938 135.625 -0.0390625 134.1875 0.292969 C 127.804688 1.195313 122.496094 3.773438 118.601563 7.714844 C 116.265625 5.414063 113.472656 3.542969 110.289063 2.21875 C 106.78125 0.757813 103.085938 0.0117188 99.320313 0.00390625 C 83.941406 0.00390625 70.867188 12.742188 70.765625 27.824219 C 70.75 31.613281 71.347656 34.578125 72.238281 37.027344 C 70.449219 36.992188 51.011719 36.8125 48.234375 37.160156 C 37.625 38.503906 29.5625 46.132813 26.285156 53.097656 C 25.183594 55.40625 24.691406 57.496094 24.417969 59.078125 C 24.109375 59.472656 23.773438 59.910156 23.445313 60.390625 C 23.445313 60.390625 20.441406 64.664063 19.382813 68.246094 C 15.464844 81.300781 22.769531 90.492188 25.523438 93.957031 C 25.53125 93.976563 25.550781 94 25.570313 94.015625 C 26.546875 95.226563 35.796875 104.75 35.828125 104.8125 C 36.714844 106.5 37.320313 107.6875 37.699219 108.753906 C 37.035156 109.671875 36.109375 110.796875 35.472656 111.578125 C 34.804688 112.402344 23.046875 128.023438 21.449219 130.015625 C 12.03125 141.800781 -0.867188 157.929688 3.109375 183.519531 C 4.761719 194.15625 9.609375 204.027344 17.945313 213.71875 C 18.375 214.214844 22.394531 218.25 22.929688 218.714844 C 26.265625 221.574219 29.679688 224.0625 33.1875 226.199219 C 32.511719 226.097656 31.828125 226.039063 31.121094 226.039063 L 21.152344 226.039063 C 14.261719 226.039063 8.425781 231.132813 7.511719 237.96875 C 7.433594 238.480469 6.9375 241.34375 3.847656 255.554688 C 0 273.234375 0 273.613281 0 275.4375 C 0 283.039063 6.164063 289.199219 13.757813 289.199219 L 96.113281 289.191406 C 99.320313 289.066406 102.242188 287.828125 104.519531 285.875 C 107.046875 288.1875 110.359375 289.480469 113.804688 289.480469 C 113.992188 289.480469 133.929688 290.003906 137.933594 290.003906 C 138.519531 290.003906 139.09375 289.972656 139.667969 289.945313 L 140.796875 292.886719 C 142.863281 298.285156 148.035156 301.71875 153.640625 301.71875 C 154.5 301.71875 155.371094 301.640625 156.242188 301.476563 C 160.4375 300.664063 168.949219 297.839844 173.601563 288.046875 C 176.042969 289.085938 179.050781 289.785156 182.742188 289.785156 C 185.097656 289.785156 217.144531 288.855469 218.429688 288.394531 C 219.246094 288.738281 220.105469 289.011719 220.972656 289.183594 C 221.816406 291.398438 223.21875 293.375 225.078125 294.910156 L 227.304688 296.742188 C 229.847656 298.84375 232.949219 299.886719 236.058594 299.886719 C 239.3125 299.886719 242.578125 298.730469 245.167969 296.433594 C 248.945313 293.097656 251.960938 289.777344 254.253906 286.453125 C 256.675781 288.394531 259.6875 289.480469 262.824219 289.480469 C 263.015625 289.480469 344.28125 289.191406 344.28125 289.191406 C 347.492188 289.066406 350.410156 287.828125 352.691406 285.867188 C 355.222656 288.179688 358.523438 289.480469 361.972656 289.480469 C 362.179688 289.480469 362.386719 289.476563 362.59375 289.464844 C 362.59375 289.464844 432.460938 288.855469 433.742188 288.394531 C 434.566406 288.738281 435.414063 289.007813 436.285156 289.183594 C 437.128906 291.390625 438.523438 293.359375 440.371094 294.890625 L 442.574219 296.722656 C 445.136719 298.832031 448.242188 299.886719 451.359375 299.886719 C 454.613281 299.886719 457.871094 298.730469 460.464844 296.441406 C 464.246094 293.097656 467.269531 289.777344 469.5625 286.453125 C 471.984375 288.394531 474.996094 289.480469 478.136719 289.480469 C 478.324219 289.480469 559.59375 289.191406 559.59375 289.191406 C 563.613281 289.027344 567.191406 287.140625 569.613281 284.242188 C 573.277344 287.898438 578.253906 289.976563 583.761719 289.976563 C 585.867188 289.976563 587.898438 289.726563 589.828125 289.222656 C 589.972656 289.269531 590.117188 289.277344 590.257813 289.308594 C 590.546875 292.179688 591.714844 294.914063 593.664063 297.105469 C 596.277344 300.046875 600.019531 301.71875 603.945313 301.71875 C 604.035156 301.71875 611.332031 301.574219 611.332031 301.574219 C 618.300781 301.4375 624.042969 296.117188 624.753906 289.230469 C 626.253906 288.867188 697.144531 289.726563 699.078125 289.222656 C 699.21875 289.269531 699.359375 289.277344 699.5 289.308594 C 699.789063 292.179688 700.957031 294.914063 702.90625 297.105469 C 705.523438 300.046875 709.261719 301.71875 713.1875 301.71875 L 713.457031 301.71875 L 720.578125 301.574219 C 727.546875 301.4375 733.285156 296.117188 733.992188 289.230469 C 736.746094 288.554688 739.320313 287.433594 741.6875 285.914063 C 745.617188 288.554688 750.445313 290.003906 755.820313 290.003906 C 762.832031 290.003906 768.964844 288.214844 774.035156 284.675781 C 777.113281 282.53125 779.179688 279.21875 779.757813 275.515625 C 779.757813 275.515625 782.910156 258.660156 782.910156 255.101563 C 782.910156 248.527344 779.917969 242.601563 774.695313 238.839844 C 771.203125 236.300781 766.980469 234.863281 762.113281 234.542969 L 762.113281 222.667969 C 765.023438 221.167969 767.769531 219.402344 770.308594 217.3125 C 770.917969 216.808594 774.441406 213.277344 774.964844 212.644531 C 781.101563 205.066406 784.578125 195.867188 785.296875 185.269531 C 785.332031 184.914063 785.34375 97.179688 785.304688 96.765625 "/>
</g>
<path style=" stroke:none;fill-rule:nonzero;fill:rgb(89.7995%,0%,1.199341%);fill-opacity:1;" d="M 183.628906 162.46875 C 182.449219 161.777344 180.535156 160.707031 180.535156 160.707031 C 180.535156 160.707031 181.152344 158.980469 181.203125 157.839844 L 181.203125 155.425781 C 181.148438 154.738281 180.984375 154.175781 180.761719 153.65625 C 174.925781 158.015625 168.257813 163.460938 160.5 166.65625 C 154.707031 179.695313 143.058594 189.820313 125.488281 191.097656 C 103.382813 192.699219 88.714844 181.945313 82.320313 166.878906 C 74.53125 163.285156 67.691406 158.765625 61.613281 153.449219 C 60.875 156.066406 61.324219 159.0625 62.289063 161.148438 C 61.734375 162.285156 60.449219 162.683594 59.199219 163.136719 C 55.402344 154.410156 60.242188 145.265625 69.109375 145.078125 L 69.109375 148.371094 C 67.960938 148.523438 64.382813 149.40625 64.261719 150.363281 C 64.191406 150.992188 68.148438 153.671875 69.328125 154.539063 C 81.257813 163.210938 97.566406 169.992188 116.019531 171.046875 C 116.898438 171.195313 124.636719 171.1875 125.488281 171.046875 C 143.460938 170.269531 160.804688 163.054688 173.054688 154.316406 C 174.183594 153.515625 178.109375 150.65625 178.109375 150.363281 C 178.152344 149.164063 175.523438 148.535156 173.710938 148.601563 L 173.710938 144.859375 C 182.53125 144.027344 186.949219 154.589844 183.628906 162.46875 M 91.136719 103.667969 C 91.582031 95.503906 96.011719 84.246094 105.886719 86.054688 C 116.714844 88.03125 119.601563 108.863281 113.597656 118.863281 C 111.503906 122.347656 107.808594 126.253906 101.921875 125.25 C 95.660156 124.1875 91.40625 115.429688 91.136719 107.636719 Z M 145.746094 137.589844 C 146.566406 139.671875 146.757813 142.320313 146.191406 144.636719 C 144.351563 152.160156 134.128906 156.507813 124.167969 157.191406 C 121.644531 157.273438 121.125 157.320313 118.871094 157.191406 C 109.378906 156.363281 98.796875 152.761719 96.859375 144.1875 C 95.398438 137.691406 99.441406 133.167969 103.453125 130.542969 C 115.554688 122.636719 140.742188 124.800781 145.746094 137.589844 M 125.929688 103.003906 C 126.527344 95.640625 130.011719 87.851563 135.832031 86.269531 C 146.011719 83.519531 150.355469 94.484375 151.25 103.003906 C 151.371094 104.527344 151.34375 106.914063 151.25 108.289063 C 150.390625 117.125 146.011719 127.226563 136.285156 125.023438 C 129.503906 123.503906 126.964844 116.117188 125.929688 108.289063 C 125.8125 106.78125 125.917969 105.664063 125.929688 104.101563 Z M 223.039063 170.824219 C 222.582031 159.917969 217.128906 152.957031 212.25 146.613281 C 206.601563 139.25 201.074219 132.359375 195.515625 125.023438 C 193.054688 126.894531 190.824219 128.992188 188.25 130.761719 C 187.238281 131.566406 186.636719 131.9375 185.828125 132.519531 C 179.996094 121.773438 169.871094 115.304688 167.984375 100.585938 L 167.984375 97.722656 C 168.714844 88.121094 174.484375 83.339844 178.996094 77.683594 C 180.273438 76.097656 185.828125 70.023438 186.996094 67.773438 C 144.046875 67.410156 97.851563 67.410156 54.914063 67.773438 C 55.546875 69.441406 60.019531 74.078125 60.960938 75.269531 C 66.460938 82.128906 74.800781 89.617188 74.621094 101.023438 C 74.570313 104.035156 73.742188 107.085938 72.628906 109.398438 C 70.691406 113.441406 67.558594 117.351563 64.925781 121.285156 C 62.214844 125.347656 56.777344 132.953125 56.777344 132.953125 L 53.917969 131.203125 C 53.410156 131.011719 52.910156 130.773438 52.417969 130.515625 L 45.335938 127.226563 C 45.335938 127.226563 35.320313 140.597656 30.355469 147.273438 C 25.445313 153.875 19.75 160.554688 19.554688 171.503906 L 19.554688 175.242188 C 20.558594 188.871094 26.933594 198.664063 34.761719 205.632813 C 42.667969 212.675781 53.070313 218.296875 67.128906 218.839844 C 69.226563 218.839844 70.378906 219.097656 71.976563 218.839844 C 88.835938 217.421875 100.859375 211.726563 118.664063 210.683594 C 119.472656 210.59375 119.972656 210.578125 121.082031 210.472656 C 135.316406 209.511719 144.445313 215.839844 155.886719 218.183594 C 167.101563 220.480469 178.703125 219.125 188.476563 215.761719 C 206.355469 209.609375 220.335938 196.625 223.039063 175.242188 C 223.164063 173.902344 223.164063 172.027344 223.039063 170.824219 "/>
<path style=" stroke:none;fill-rule:nonzero;fill:rgb(100%,100%,100%);fill-opacity:1;" d="M 178.996094 99.488281 C 178.851563 98.578125 178.824219 98.007813 178.996094 97.0625 C 180.304688 90.964844 185.640625 86.925781 190.011719 81.878906 C 191.984375 79.59375 194.203125 77.503906 196.289063 75.164063 C 198.484375 72.714844 200.640625 70.300781 201.46875 67.113281 C 203.660156 58.492188 194.855469 55.277344 187.148438 54.566406 C 164.539063 54.410156 141.339844 54.863281 119.101563 54.335938 C 111.945313 53.945313 107.714844 50.613281 106.550781 44.882813 C 104.863281 36.558594 110.703125 32.523438 110.078125 26.140625 C 109.453125 19.882813 102.789063 16.597656 97.53125 17.125 C 91.257813 17.742188 86.179688 25.539063 89.152344 32.523438 C 90.871094 36.601563 95.183594 37.675781 97.082031 42.007813 C 99.421875 47.382813 96.707031 54.394531 90.683594 54.335938 C 77.992188 54.863281 64.332031 54.410156 51.273438 54.566406 C 46.535156 54.566406 42.667969 57.664063 41.582031 61.835938 C 39.765625 68.855469 44.941406 73.007813 47.96875 76.582031 C 49.777344 78.710938 51.742188 80.925781 53.472656 82.96875 C 57.039063 87.160156 60.605469 90.628906 62.664063 95.753906 C 62.941406 96.304688 63.121094 96.765625 63.160156 97.0625 C 63.285156 97.5625 63.316406 98.019531 63.3125 98.449219 C 63.335938 99.035156 63.269531 99.265625 63.160156 99.929688 C 62.964844 101.269531 60.949219 105.097656 59.199219 107.636719 C 54.480469 114.5 50.261719 121.488281 45.332031 127.226563 C 47.757813 127.53125 50.046875 129.277344 52.417969 130.515625 L 53.917969 131.203125 C 53.917969 131.203125 59.183594 123.289063 61.84375 119.308594 C 64.480469 115.363281 67.792969 111.550781 69.769531 107.199219 C 75.738281 94.101563 64.316406 85.085938 58.765625 78.351563 C 57.167969 76.414063 55.578125 74.332031 53.917969 72.410156 C 47.648438 65.863281 51.167969 63.777344 52.597656 63.808594 C 97.738281 63.453125 144.425781 63.453125 189.574219 63.808594 C 195.234375 64.710938 189.445313 70.222656 188.03125 71.964844 C 186.203125 74.207031 184.601563 75.988281 183.1875 77.683594 C 177.867188 84.035156 172.410156 88.898438 171.296875 97.941406 L 171.296875 100.367188 C 173.339844 114.109375 182.527344 120.691406 188.25 130.761719 C 190.824219 128.992188 193.054688 126.894531 195.515625 125.023438 C 193.578125 122.179688 185.835938 111.027344 185.160156 110.054688 C 182.796875 106.746094 180.042969 103.617188 178.996094 99.488281 M 118.222656 174.800781 C 105.820313 174.800781 96.214844 172 86.953125 168.847656 C 87.941406 171.609375 89.832031 173.460938 91.351563 175.679688 C 91.988281 176.507813 92.730469 177.238281 93.550781 177.890625 C 100.023438 183.160156 107.9375 186.996094 119.101563 187.566406 L 123.503906 187.566406 C 134.652344 186.980469 142.636719 183.21875 149.054688 177.890625 C 149.980469 176.960938 150.585938 176.347656 151.25 175.679688 C 153.164063 173.523438 155.308594 171.070313 155.660156 168.40625 C 146.117188 172.003906 135.566406 174.609375 122.628906 174.800781 Z M 119.976563 129.65625 C 114.144531 130.203125 108.546875 134.1875 110.289063 140.449219 C 112.910156 149.863281 133.105469 149.25 132.972656 138.242188 C 132.914063 132.503906 125.941406 129.101563 119.976563 129.65625 M 145.3125 101.253906 C 146.453125 101.902344 147.304688 102.472656 148.160156 103.007813 C 147.089844 97.5 145.546875 92.378906 141.128906 90.675781 C 133.847656 87.871094 129.535156 96.628906 128.792969 103.230469 C 131.886719 99.855469 140.328125 98.417969 145.3125 101.253906 M 103.453125 90.242188 C 97.394531 90.585938 94.875 97.75 94.21875 103.441406 C 98.09375 98.449219 109.257813 98.480469 113.378906 103.230469 C 112.535156 96.84375 109.804688 89.875 103.453125 90.242188 M 50.136719 95.917969 C 52.535156 99.164063 54.339844 103.128906 55.308594 107.675781 C 57.421875 104.492188 60.914063 99.902344 59.199219 95.730469 C 58.351563 93.699219 56.027344 91.105469 54.246094 89.023438 C 48.894531 82.726563 42.046875 76.691406 38.28125 69.980469 C 36.390625 71.539063 34.761719 73.777344 34.761719 76.367188 C 34.761719 80.773438 38.988281 83.492188 40.921875 86.054688 C 41.054688 86.160156 41.246094 86.339844 41.476563 86.5625 C 42.101563 87.117188 42.703125 87.699219 43.257813 88.328125 C 44.960938 90.066406 46.992188 92.226563 47.53125 92.882813 C 48.472656 93.816406 49.347656 94.824219 50.136719 95.917969 M 204.542969 68.441406 C 203.804688 71.359375 202.222656 73.453125 200.574219 75.488281 C 199.9375 76.304688 193.355469 83.363281 192.21875 84.515625 C 191.566406 85.335938 183.027344 92.1875 182.527344 96.84375 C 182.046875 101.140625 185.308594 103.425781 187.148438 106.539063 C 187.640625 103.863281 188.292969 101.601563 189.285156 99.558594 C 190.304688 97.375 191.617188 95.492188 193.3125 93.984375 C 194.085938 93.039063 194.945313 92.1875 195.871094 91.398438 C 195.984375 91.28125 196.09375 91.171875 196.214844 91.050781 C 196.316406 90.679688 196.78125 90.660156 196.84375 90.242188 C 197.703125 89.1875 200.429688 86.785156 200.574219 86.269531 C 201.417969 85.425781 202.335938 84.691406 203.226563 83.625 C 205.164063 81.441406 207.664063 78.316406 207.40625 74.382813 C 207.246094 71.824219 205.605469 70.410156 204.542969 68.441406 M 146.679688 51.101563 C 146.59375 51.308594 146.101563 51.371094 144.867188 51.1875 L 141.210938 51.261719 C 140.714844 50.191406 140.367188 48.824219 140.222656 47.390625 C 140.199219 47.226563 140.183594 47.054688 140.171875 46.886719 C 140.167969 46.828125 140.167969 46.777344 140.160156 46.726563 C 140.121094 46.214844 140.117188 45.703125 140.140625 45.191406 L 140.140625 45.078125 C 140.152344 44.898438 140.167969 44.707031 140.183594 44.523438 C 140.191406 44.398438 140.203125 44.273438 140.222656 44.152344 C 140.230469 44.070313 140.234375 43.992188 140.253906 43.917969 C 140.453125 42.425781 140.886719 41.078125 141.636719 40.144531 C 141.785156 39.941406 141.941406 39.753906 142.121094 39.589844 C 142.300781 39.355469 142.550781 39.085938 142.828125 38.808594 C 143.328125 38.273438 143.851563 37.761719 144.425781 37.304688 C 144.425781 37.304688 146.171875 35.601563 147.058594 34.882813 C 148.140625 33.140625 149.28125 31.460938 149.648438 29.019531 C 149.667969 28.875 149.691406 28.730469 149.703125 28.582031 L 149.703125 26.285156 C 148.488281 14.105469 128.40625 14.824219 128.347656 27.113281 C 128.355469 27.90625 128.4375 28.65625 128.578125 29.375 C 129.335938 33.335938 131.878906 36.472656 132.265625 40.542969 C 132.265625 40.574219 132.269531 40.605469 132.277344 40.640625 C 132.289063 40.816406 132.296875 40.992188 132.296875 41.167969 C 132.300781 41.308594 132.320313 41.4375 132.320313 41.566406 L 132.320313 41.714844 C 132.320313 41.933594 132.296875 42.167969 132.277344 42.394531 C 132.265625 42.558594 132.265625 42.714844 132.246094 42.878906 C 131.9375 45.839844 130.632813 48.738281 128.347656 51.1875 L 128.347656 51.402344 L 146.648438 51.402344 C 146.660156 51.308594 146.671875 51.183594 146.679688 51.101563 "/>
<path style=" stroke:none;fill-rule:nonzero;fill:rgb(10.198975%,10.598755%,12.199402%);fill-opacity:1;" d="M 171.296875 97.941406 C 172.410156 88.898438 177.867188 84.035156 183.1875 77.683594 C 184.601563 75.988281 186.203125 74.207031 188.03125 71.964844 C 189.445313 70.222656 195.234375 64.710938 189.570313 63.808594 C 144.425781 63.453125 97.734375 63.453125 52.601563 63.808594 C 51.167969 63.777344 47.648438 65.863281 53.917969 72.410156 C 55.671875 74.242188 57.171875 76.414063 58.761719 78.351563 C 64.316406 85.085938 75.738281 94.101563 69.769531 107.199219 C 67.792969 111.546875 64.480469 115.363281 61.84375 119.308594 C 59.1875 123.292969 53.917969 131.203125 53.917969 131.203125 L 56.777344 132.957031 C 56.777344 132.957031 62.214844 125.347656 64.925781 121.285156 C 67.558594 117.351563 70.691406 113.441406 72.628906 109.398438 C 73.738281 107.085938 74.570313 104.035156 74.617188 101.023438 C 74.800781 89.621094 66.460938 82.128906 60.960938 75.269531 C 60.019531 74.082031 55.546875 69.441406 54.914063 67.773438 C 97.851563 67.410156 144.046875 67.410156 186.996094 67.773438 C 185.828125 70.023438 180.273438 76.097656 178.992188 77.683594 C 174.480469 83.339844 168.714844 88.125 167.984375 97.722656 L 167.984375 100.585938 C 169.867188 115.304688 179.996094 121.773438 185.828125 132.519531 C 186.636719 131.9375 187.234375 131.566406 188.25 130.761719 C 182.527344 120.691406 173.339844 114.109375 171.296875 100.367188 Z M 223.039063 175.242188 C 220.335938 196.625 206.355469 209.609375 188.472656 215.761719 C 178.703125 219.125 167.101563 220.480469 155.886719 218.183594 C 144.445313 215.839844 135.316406 209.511719 121.082031 210.472656 C 119.972656 210.578125 119.472656 210.59375 118.664063 210.683594 C 100.859375 211.726563 88.835938 217.421875 71.976563 218.839844 C 70.378906 219.097656 69.222656 218.839844 67.128906 218.839844 C 53.070313 218.296875 42.667969 212.675781 34.761719 205.632813 C 26.933594 198.664063 20.558594 188.871094 19.554688 175.242188 L 19.554688 171.503906 C 19.75 160.554688 25.445313 153.875 30.355469 147.273438 C 35.320313 140.597656 40.183594 133.980469 45.335938 127.226563 C 50.261719 121.488281 54.480469 114.5 59.199219 107.636719 C 60.949219 105.097656 62.964844 101.269531 63.160156 99.929688 C 63.234375 99.460938 63.300781 98.972656 63.3125 98.449219 C 63.316406 98.019531 63.285156 97.5625 63.160156 97.0625 C 63.015625 96.605469 62.835938 96.183594 62.664063 95.753906 C 60.609375 90.628906 57.035156 87.160156 53.472656 82.96875 C 51.742188 80.925781 49.777344 78.710938 47.96875 76.582031 C 44.941406 73.007813 39.765625 68.855469 41.585938 61.835938 C 42.667969 57.664063 46.535156 54.566406 51.273438 54.566406 C 64.332031 54.410156 77.992188 54.863281 90.683594 54.335938 C 96.710938 54.394531 99.421875 47.378906 97.082031 42.011719 C 95.183594 37.671875 90.871094 36.601563 89.152344 32.523438 C 86.183594 25.539063 91.257813 17.742188 97.53125 17.125 C 102.789063 16.597656 109.453125 19.882813 110.074219 26.140625 C 110.703125 32.523438 104.859375 36.558594 106.550781 44.882813 C 107.714844 50.613281 111.945313 53.945313 119.101563 54.335938 C 141.339844 54.863281 164.539063 54.410156 187.148438 54.566406 C 194.855469 55.277344 203.660156 58.492188 201.46875 67.113281 C 200.640625 70.300781 198.484375 72.714844 196.289063 75.164063 C 194.207031 77.503906 191.984375 79.59375 190.011719 81.878906 C 185.640625 86.921875 180.304688 90.964844 178.992188 97.0625 C 178.820313 98.007813 178.851563 98.578125 178.992188 99.488281 C 180.042969 103.617188 182.792969 106.746094 185.160156 110.054688 C 187.335938 113.082031 193.578125 122.179688 195.515625 125.023438 C 201.074219 132.359375 206.601563 139.25 212.25 146.613281 C 217.128906 152.960938 222.578125 159.921875 223.039063 170.824219 C 223.132813 172.539063 223.164063 173.902344 223.039063 175.242188 M 50.136719 95.917969 C 49.347656 94.824219 48.472656 93.816406 47.53125 92.882813 C 46.992188 92.226563 44.960938 90.066406 43.257813 88.328125 C 42.570313 87.625 41.933594 87 41.476563 86.5625 C 41.242188 86.339844 41.054688 86.160156 40.921875 86.054688 C 38.988281 83.492188 34.761719 80.773438 34.761719 76.367188 C 34.761719 73.777344 36.390625 71.539063 38.28125 69.980469 C 42.046875 76.695313 48.894531 82.726563 54.246094 89.023438 C 56.027344 91.105469 58.351563 93.699219 59.199219 95.730469 C 60.917969 99.902344 57.421875 104.492188 55.3125 107.675781 C 55.117188 107.96875 54.933594 108.242188 54.769531 108.503906 C 54.21875 103.25 52.527344 99.195313 50.136719 95.917969 M 204.542969 68.445313 C 205.601563 70.410156 207.246094 71.824219 207.40625 74.386719 C 207.664063 78.316406 205.164063 81.441406 203.226563 83.625 C 201.800781 85.246094 199.023438 88.171875 196.214844 91.050781 C 196.09375 91.171875 195.984375 91.28125 195.867188 91.398438 C 195.007813 92.285156 194.136719 93.160156 193.3125 93.984375 C 191.527344 95.765625 190.25 97.5625 189.28125 99.558594 C 188.289063 101.601563 187.640625 103.863281 187.148438 106.539063 C 185.308594 103.425781 182.046875 101.140625 182.527344 96.84375 C 183.027344 92.1875 191.566406 85.335938 192.214844 84.515625 C 193.355469 83.363281 199.9375 76.304688 200.574219 75.488281 C 202.222656 73.453125 203.800781 71.359375 204.542969 68.445313 M 216.878906 147.195313 C 211.808594 140.46875 205.902344 132.683594 200.351563 125.382813 C 195.597656 119.121094 185.890625 108.882813 193.3125 98.3125 C 194.65625 96.484375 205.699219 85.414063 207.1875 83.992188 C 212.554688 78.652344 210.410156 70.554688 206.527344 65.714844 C 205.421875 64.316406 205.714844 64.992188 205.203125 62.628906 C 203.5 54.800781 195.90625 51.65625 186.921875 51.628906 C 183.660156 51.367188 181.671875 51.46875 178.992188 51.402344 L 128.347656 51.402344 L 128.347656 51.1875 C 130.632813 48.738281 131.9375 45.839844 132.242188 42.878906 C 132.265625 42.714844 132.265625 42.558594 132.277344 42.394531 C 132.292969 42.167969 132.320313 41.933594 132.320313 41.714844 L 132.320313 41.628906 C 132.320313 41.464844 132.300781 41.324219 132.296875 41.167969 C 132.292969 40.992188 132.292969 40.816406 132.277344 40.640625 C 132.269531 40.609375 132.265625 40.574219 132.265625 40.542969 C 131.878906 36.472656 129.335938 33.335938 128.578125 29.375 C 128.4375 28.667969 128.347656 27.945313 128.347656 27.175781 L 128.347656 27.113281 C 128.40625 14.824219 148.488281 14.105469 149.703125 26.285156 L 149.703125 28.71875 C 149.691406 28.828125 149.667969 28.917969 149.648438 29.019531 C 149.28125 31.460938 148.140625 33.140625 147.054688 34.886719 C 146.171875 35.601563 144.425781 37.304688 144.425781 37.304688 C 144.3125 37.394531 144.21875 37.507813 144.105469 37.601563 C 143.746094 37.921875 143.265625 38.371094 142.828125 38.808594 C 142.546875 39.105469 142.257813 39.40625 142 39.730469 C 141.871094 39.851563 141.746094 39.992188 141.636719 40.144531 C 140.886719 41.078125 140.453125 42.425781 140.253906 43.917969 C 140.234375 43.992188 140.230469 44.070313 140.21875 44.152344 C 140.203125 44.273438 140.191406 44.398438 140.183594 44.523438 C 140.164063 44.707031 140.144531 44.898438 140.140625 45.078125 L 140.140625 45.191406 C 140.117188 45.699219 140.128906 46.214844 140.160156 46.726563 C 140.164063 46.777344 140.164063 46.828125 140.171875 46.886719 C 140.183594 47.054688 140.199219 47.226563 140.21875 47.390625 C 140.367188 48.824219 140.710938 50.191406 141.207031 51.261719 L 144.863281 51.1875 C 146.101563 51.371094 146.59375 51.308594 146.679688 51.101563 C 146.683594 51.078125 146.683594 51.046875 146.683594 51.035156 L 146.671875 51.035156 C 146.710938 50.523438 144.726563 49.347656 144.425781 48.980469 C 139.183594 42.386719 149.582031 39.070313 152.128906 34.21875 C 157.191406 24.628906 149.542969 14.554688 140.679688 13.960938 C 139.773438 13.84375 138.445313 13.84375 136.933594 13.960938 C 129.871094 14.683594 125.800781 18.386719 125.050781 25.417969 C 124.953125 26.207031 124.9375 27.773438 125.050781 28.71875 C 125.796875 34.378906 130.078125 39.601563 127.695313 45.445313 C 126.664063 47.964844 125.285156 49.449219 122.84375 50.949219 C 122.648438 51.054688 122.441406 51.152344 122.402344 51.402344 C 115.675781 51.898438 112.421875 50.40625 110.511719 46.550781 C 107.128906 39.746094 112.710938 33.800781 112.722656 27.394531 C 112.726563 21.285156 109.515625 16.941406 105.007813 15.066406 C 95.058594 10.910156 84.589844 18.550781 84.527344 28.054688 C 84.507813 31.851563 85.558594 33.617188 86.71875 35.539063 C 88.953125 39.214844 94.136719 40.335938 94.65625 46.117188 C 95.238281 52.703125 82.0625 50.949219 74.617188 50.949219 C 66.378906 50.949219 57.171875 50.039063 49.953125 50.949219 C 44.96875 51.585938 40.425781 55.507813 38.730469 59.105469 C 37.636719 61.398438 38.039063 63.15625 37.40625 64.832031 C 36.933594 66.082031 35.574219 67.160156 34.761719 68.359375 C 33.941406 69.542969 33.039063 70.707031 32.566406 72.324219 C 30.789063 78.222656 33.667969 82.230469 36.296875 85.539063 C 37.015625 86.429688 44.21875 93.546875 44.445313 94.121094 C 45.238281 95.09375 51.710938 101.664063 51.710938 108.433594 L 51.710938 111.304688 C 50.800781 115.28125 47.054688 119.152344 44.445313 122.527344 C 41.734375 126.078125 39.257813 129.566406 36.957031 132.65625 C 27.304688 145.671875 13.097656 158.320313 16.707031 181.550781 C 18.1875 191.101563 22.992188 198.621094 28.375 204.886719 C 29.628906 205.984375 30.820313 207.144531 31.898438 208.40625 C 40.5625 215.851563 51.425781 221.738281 66.03125 222.289063 C 80.835938 222.84375 95.46875 217.636719 107.644531 215.683594 C 111.472656 214.972656 115.554688 214.1875 119.976563 213.917969 C 121.5625 213.828125 123.105469 213.828125 124.167969 213.917969 C 139.214844 214.882813 148.429688 221.65625 164.019531 222.070313 L 171.507813 222.070313 C 189.058594 221.125 201.222656 214.777344 211.148438 206.210938 C 212.722656 204.820313 213.78125 203.585938 215.113281 202.25 C 221.371094 194.917969 226.257813 186.695313 226.792969 175.605469 C 227.363281 163.652344 222.691406 154.921875 216.878906 147.195313 M 151.25 175.679688 C 150.601563 176.480469 149.925781 177.019531 149.054688 177.890625 C 142.636719 183.21875 134.652344 186.980469 123.503906 187.566406 L 119.101563 187.566406 C 107.941406 186.996094 100.023438 183.160156 93.550781 177.890625 C 92.730469 177.238281 91.988281 176.507813 91.351563 175.679688 C 89.832031 173.460938 87.941406 171.609375 86.953125 168.847656 C 96.214844 172 105.816406 174.800781 118.21875 174.800781 L 122.628906 174.800781 C 135.566406 174.609375 146.117188 172.003906 155.660156 168.40625 C 155.304688 171.070313 153.164063 173.523438 151.25 175.679688 M 173.707031 144.859375 L 173.707031 148.601563 C 175.523438 148.535156 178.152344 149.167969 178.109375 150.367188 C 178.109375 150.65625 174.179688 153.515625 173.054688 154.316406 C 160.804688 163.054688 143.460938 170.269531 125.484375 171.046875 C 124.636719 171.1875 116.898438 171.195313 116.019531 171.046875 C 97.566406 169.996094 81.257813 163.214844 69.328125 154.542969 C 68.148438 153.671875 64.191406 150.992188 64.261719 150.367188 C 64.382813 149.40625 67.960938 148.523438 69.109375 148.371094 L 69.109375 145.078125 C 60.242188 145.265625 55.40625 154.414063 59.199219 163.136719 C 60.449219 162.683594 61.734375 162.285156 62.285156 161.148438 C 61.324219 159.0625 60.875 156.066406 61.613281 153.449219 C 67.695313 158.765625 74.53125 163.289063 82.320313 166.878906 C 88.714844 181.945313 103.382813 192.699219 125.484375 191.097656 C 143.054688 189.824219 154.707031 179.695313 160.5 166.65625 C 168.257813 163.460938 174.925781 158.015625 180.761719 153.65625 C 180.984375 154.175781 181.148438 154.738281 181.203125 155.425781 L 181.203125 157.839844 C 181.152344 158.980469 180.535156 160.710938 180.535156 160.710938 C 180.535156 160.710938 182.449219 161.78125 183.628906 162.46875 C 186.949219 154.589844 182.53125 144.027344 173.707031 144.859375 M 94.21875 103.441406 C 94.875 97.75 97.394531 90.585938 103.453125 90.242188 C 109.804688 89.875 112.535156 96.84375 113.378906 103.230469 C 109.257813 98.480469 98.09375 98.449219 94.21875 103.441406 M 105.886719 86.054688 C 96.011719 84.25 91.582031 95.503906 91.132813 103.671875 L 91.132813 107.636719 C 91.40625 115.429688 95.660156 124.1875 101.921875 125.25 C 107.808594 126.253906 111.503906 122.347656 113.597656 118.863281 C 119.601563 108.867188 116.714844 88.03125 105.886719 86.054688 M 132.972656 138.242188 C 133.105469 149.25 112.910156 149.863281 110.289063 140.449219 C 108.546875 134.1875 114.144531 130.203125 119.976563 129.65625 C 125.941406 129.101563 132.914063 132.503906 132.972656 138.242188 M 103.453125 130.542969 C 99.441406 133.167969 95.398438 137.691406 96.859375 144.1875 C 98.796875 152.761719 109.378906 156.363281 118.871094 157.191406 C 121.125 157.320313 121.644531 157.273438 124.167969 157.191406 C 134.128906 156.507813 144.351563 152.160156 146.191406 144.636719 C 146.757813 142.320313 146.566406 139.671875 145.746094 137.589844 C 140.742188 124.800781 115.554688 122.636719 103.453125 130.542969 M 141.128906 90.675781 C 145.546875 92.378906 147.089844 97.5 148.15625 103.007813 C 147.300781 102.472656 146.453125 101.902344 145.3125 101.253906 C 140.328125 98.417969 131.886719 99.855469 128.792969 103.230469 C 129.53125 96.628906 133.84375 87.871094 141.128906 90.675781 M 136.285156 125.023438 C 146.011719 127.226563 150.390625 117.125 151.25 108.289063 C 151.34375 106.914063 151.371094 104.527344 151.25 103.007813 C 150.355469 94.484375 146.011719 83.519531 135.832031 86.269531 C 130.011719 87.851563 126.527344 95.640625 125.929688 103.007813 C 125.941406 103.398438 125.9375 103.757813 125.929688 104.101563 C 125.914063 105.664063 125.808594 106.785156 125.929688 108.289063 C 126.964844 116.117188 129.5 123.503906 136.285156 125.023438 "/>
<path style=" stroke:none;fill-rule:evenodd;fill:rgb(89.7995%,0%,1.199341%);fill-opacity:1;" d="M 434.863281 113.203125 L 422.28125 113.203125 L 422.28125 131.21875 L 433.847656 131.21875 C 444.8125 131.96875 445.386719 113.390625 434.863281 113.203125 M 340.183594 114.054688 C 338.988281 113.492188 337.914063 112.804688 336.277344 112.691406 L 322.675781 112.691406 L 322.675781 130.710938 L 336.277344 130.710938 C 343.140625 130.515625 345.617188 121.050781 341.890625 115.75 C 341.238281 115.261719 340.679688 114.6875 340.183594 114.054688 M 529.535156 107.253906 L 527.15625 107.253906 C 519.777344 108.0625 521.378906 117.316406 521.378906 125.4375 L 521.378906 157.902344 C 521.378906 162.320313 520.832031 169.84375 522.902344 172.695313 C 524.0625 174.277344 526.71875 176.019531 530.21875 175.242188 C 536.796875 173.777344 535.652344 164.511719 535.652344 156.558594 L 535.652344 125.9375 C 535.652344 117.359375 536.933594 107.699219 529.535156 107.253906 M 729.425781 197.34375 L 687.777344 197.34375 L 687.777344 82.605469 C 687.773438 82.3125 687.910156 82.160156 688.121094 82.089844 C 701.890625 82.207031 716.117188 81.867188 729.59375 82.269531 C 729.484375 120.566406 729.828125 159.328125 729.425781 197.34375 M 676.058594 112.515625 L 676.058594 112.691406 L 628.972656 112.691406 L 628.972656 130.035156 C 640.027344 130.140625 651.519531 129.800781 662.289063 130.203125 L 662.289063 159.605469 C 651.578125 160.015625 640.136719 159.664063 629.140625 159.78125 L 629.140625 197.171875 C 615.101563 197.464844 599.847656 197.464844 585.816406 197.171875 L 585.816406 82.945313 L 609.761719 82.945313 C 619.457031 82.554688 629.878906 82.890625 639.855469 82.777344 L 669.941406 82.777344 C 670.570313 83.183594 675 81.726563 676.058594 82.605469 C 676.738281 83.175781 676.21875 89.003906 676.21875 90.089844 C 676.230469 97.445313 676.367188 106.457031 676.058594 112.515625 M 573.394531 177.621094 C 572.460938 188.757813 567.683594 196.054688 556.742188 197.171875 C 539.054688 197.464844 520.191406 197.464844 502.511719 197.171875 C 496.980469 196.976563 492.898438 195.320313 489.761719 192.746094 C 489.066406 192.203125 488.453125 191.578125 487.890625 190.878906 C 485.398438 187.828125 483.769531 183.890625 483.636719 178.464844 C 483.355469 153.488281 483.355469 127.316406 483.636719 102.328125 C 484.203125 90.921875 488.964844 83.726563 500.472656 83.277344 C 518.441406 83.007813 537.578125 83.007813 555.554688 83.277344 C 567.296875 83.765625 572.867188 90.445313 573.394531 102.15625 C 573.675781 126.910156 573.675781 152.871094 573.394531 177.621094 M 472.09375 197.171875 C 459.957031 197.464844 446.644531 197.464844 434.519531 197.171875 C 434.023438 186.738281 436.480469 173.347656 430.621094 168.277344 C 429.863281 167.660156 429.167969 166.988281 428.574219 166.230469 C 426.589844 164.714844 424.589844 163.183594 422.28125 161.980469 L 422.28125 197.171875 C 409.882813 197.578125 396.722656 197.226563 384.03125 197.34375 C 383.632813 159.664063 383.984375 121.246094 383.878906 83.277344 C 405.394531 83.007813 428.113281 83.007813 449.640625 83.277344 C 462.96875 83.496094 471.054688 88.964844 471.398438 102.15625 C 471.691406 102.507813 471.691406 104.015625 471.398438 104.363281 L 471.398438 106.066406 C 471.289063 117.964844 471.632813 130.3125 471.222656 141.929688 C 470.453125 153.277344 464.070313 159.019531 452.878906 159.953125 C 452.878906 160.230469 453.351563 160.042969 453.386719 160.28125 C 458.664063 160.734375 462.667969 162.441406 465.796875 165.054688 C 466.429688 165.539063 467.003906 166.109375 467.496094 166.742188 C 473.460938 172.453125 471.925781 185.644531 472.09375 197.171875 M 372.644531 141.761719 C 372.496094 146.9375 370.753906 150.53125 368.390625 153.488281 C 367.84375 154.175781 367.226563 154.808594 366.53125 155.355469 C 358.222656 163.089844 338.257813 159.148438 323.179688 160.113281 C 322.789063 172.125 323.128906 184.878906 323.019531 197.171875 C 309.8125 197.464844 295.429688 197.464844 282.214844 197.171875 L 282.214844 82.777344 C 304.144531 82.496094 327.261719 82.496094 349.183594 82.777344 C 362.792969 83.230469 372.0625 88.003906 372.644531 101.480469 C 372.929688 114.511719 372.929688 128.734375 372.644531 141.761719 M 771.753906 99.945313 C 771.363281 99.589844 771.679688 98.53125 771.585938 97.90625 C 771.0625 89.007813 768.335938 82.355469 764.109375 77.167969 C 763.070313 76.273438 762.105469 75.316406 761.21875 74.277344 C 755.945313 70.027344 749.191406 67.261719 739.96875 66.96875 L 268.960938 66.96875 C 260.871094 67.601563 255.203125 70.667969 250.433594 74.621094 C 249.710938 75.480469 248.921875 76.273438 248.054688 76.996094 C 244.746094 80.933594 242.027344 85.527344 240.917969 91.78125 C 239.800781 98.050781 240.394531 105.613281 240.394531 113.203125 L 240.394531 157.054688 C 240.394531 172.277344 239.34375 186.960938 243.976563 197.34375 C 248.476563 207.40625 256.804688 213.808594 270.484375 214.675781 L 738.273438 214.675781 C 748.371094 214.351563 755.84375 211.402344 761.554688 206.691406 C 762.394531 205.714844 763.296875 204.804688 764.273438 203.976563 C 768.335938 198.960938 771.054688 192.621094 771.585938 184.089844 C 771.679688 183.507813 771.363281 182.5 771.753906 182.214844 "/>
<path style=" stroke:none;fill-rule:evenodd;fill:rgb(100%,100%,100%);fill-opacity:1;" d="M 128.347656 51.035156 C 130.933594 48.273438 132.320313 44.925781 132.320313 41.566406 C 132.320313 36.449219 128.347656 32.828125 128.347656 27.035156 C 128.347656 14.683594 148.488281 13.941406 149.703125 26.140625 L 149.703125 28.582031 C 149.554688 31.1875 148.183594 33.066406 147.054688 34.886719 C 146.175781 35.597656 145.453125 36.355469 144.644531 37.164063 C 144.570313 37.164063 142.835938 38.679688 142.121094 39.589844 C 139.730469 41.855469 139.589844 47.566406 141.128906 50.8125 L 141.570313 50.8125 C 141.933594 51.335938 145.941406 50.898438 146.683594 51.035156 C 146.683594 51.109375 146.636719 51.503906 146.636719 51.503906 L 128.347656 51.523438 "/>
<path style=" stroke:none;fill-rule:evenodd;fill:rgb(100%,100%,100%);fill-opacity:1;" d="M 200.574219 75.488281 C 202.222656 73.453125 203.804688 71.359375 204.542969 68.441406 C 205.605469 70.410156 207.246094 71.824219 207.40625 74.382813 C 207.664063 78.316406 205.183594 81.5 203.226563 83.625 C 202.335938 84.691406 201.417969 85.425781 200.574219 86.269531 C 200.429688 86.785156 197.703125 89.1875 196.84375 90.242188 C 196.773438 90.683594 196.238281 90.664063 196.179688 91.117188 C 195.128906 91.980469 194.167969 92.933594 193.3125 93.984375 C 190.011719 96.921875 188.121094 101.261719 187.148438 106.539063 C 185.308594 103.425781 182.046875 101.140625 182.527344 96.84375 C 183.027344 92.1875 191.566406 85.335938 192.21875 84.515625 C 192.277344 84.066406 199.9375 76.304688 200.574219 75.488281 "/>
<path style=" stroke:none;fill-rule:evenodd;fill:rgb(100%,100%,100%);fill-opacity:1;" d="M 40.921875 86.054688 C 38.988281 83.492188 34.761719 80.773438 34.761719 76.367188 C 34.761719 73.777344 36.390625 71.539063 38.28125 69.980469 C 42.046875 76.695313 48.894531 82.726563 54.246094 89.023438 C 56.027344 91.105469 58.351563 93.699219 59.199219 95.730469 C 61.070313 100.28125 57.355469 104.8125 55.382813 107.988281 C 54.117188 101.753906 51.273438 96.617188 47.53125 92.882813 C 46.667969 91.828125 45.714844 90.878906 44.667969 90.019531 C 44.523438 89.507813 43.941406 89.425781 43.789063 88.914063 C 42.929688 87.871094 41.96875 86.917969 40.921875 86.054688 "/>
<path style=" stroke:none;fill-rule:evenodd;fill:rgb(100%,100%,100%);fill-opacity:1;" d="M 113.378906 103.230469 C 109.257813 98.480469 98.09375 98.449219 94.21875 103.441406 C 94.875 97.75 97.394531 90.582031 103.453125 90.242188 C 109.804688 89.875 112.535156 96.84375 113.378906 103.230469 "/>
<path style=" stroke:none;fill-rule:evenodd;fill:rgb(100%,100%,100%);fill-opacity:1;" d="M 148.15625 103.003906 C 147.183594 102.417969 146.453125 101.902344 145.3125 101.253906 C 140.328125 98.417969 131.886719 99.855469 128.792969 103.230469 C 129.53125 96.625 133.84375 87.871094 141.128906 90.675781 C 145.546875 92.378906 147.089844 97.5 148.15625 103.003906 "/>
<path style=" stroke:none;fill-rule:evenodd;fill:rgb(100%,100%,100%);fill-opacity:1;" d="M 119.976563 129.65625 C 125.941406 129.101563 132.914063 132.503906 132.972656 138.242188 C 133.105469 149.25 112.910156 149.863281 110.289063 140.449219 C 108.546875 134.1875 114.144531 130.203125 119.976563 129.65625 "/>
<path style=" stroke:none;fill-rule:evenodd;fill:rgb(100%,100%,100%);fill-opacity:1;" d="M 122.628906 174.800781 C 135.566406 174.609375 146.117188 172.003906 155.660156 168.40625 C 155.304688 171.070313 153.207031 173.730469 151.25 175.679688 C 150.585938 176.347656 149.980469 176.960938 149.054688 177.890625 C 142.636719 183.21875 134.652344 186.980469 123.503906 187.566406 L 119.101563 187.566406 C 107.941406 186.996094 100.023438 183.160156 93.550781 177.890625 C 92.617188 177.410156 92.121094 176.480469 91.355469 175.679688 C 89.832031 173.460938 87.941406 171.609375 86.953125 168.847656 C 96.214844 171.996094 105.816406 174.800781 118.21875 174.800781 C 119.929688 174.503906 121.4375 174.800781 122.628906 174.800781 "/>
<path style=" stroke:none;fill-rule:evenodd;fill:rgb(100%,100%,100%);fill-opacity:1;" d="M 195.515625 125.023438 C 193.054688 126.894531 190.824219 128.992188 188.25 130.761719 C 182.527344 120.691406 173.339844 114.109375 171.296875 100.367188 L 171.296875 97.941406 C 172.410156 88.898438 177.867188 84.035156 183.1875 77.683594 C 184.601563 75.988281 186.203125 74.207031 188.03125 71.960938 C 189.445313 70.222656 195.234375 64.710938 189.570313 63.808594 C 144.425781 63.453125 97.738281 63.453125 52.601563 63.808594 C 51.167969 63.777344 52.234375 70.441406 53.914063 72.410156 C 55.582031 74.332031 57.167969 76.414063 58.765625 78.351563 C 64.3125 85.085938 75.738281 94.101563 69.769531 107.199219 C 67.792969 111.546875 64.480469 115.363281 61.84375 119.308594 C 59.1875 123.292969 56.75 127.277344 53.914063 131.203125 C 50.988281 130.078125 48.265625 127.601563 45.335938 127.226563 C 50.261719 121.488281 54.480469 114.5 59.203125 107.636719 C 60.949219 105.097656 62.992188 100.949219 63.160156 99.929688 C 63.332031 98.902344 63.40625 98.941406 63.160156 97.0625 C 62.921875 95.1875 57.335938 87.511719 53.472656 82.96875 C 51.742188 80.925781 49.777344 78.710938 47.96875 76.582031 C 44.941406 73.007813 39.765625 68.855469 41.585938 61.835938 C 42.667969 57.664063 46.535156 54.566406 51.269531 54.566406 C 64.332031 54.410156 77.992188 54.863281 90.683594 54.335938 C 96.710938 54.394531 99.421875 47.378906 97.082031 42.011719 C 95.183594 37.671875 90.871094 36.601563 89.152344 32.523438 C 86.183594 25.539063 91.257813 17.742188 97.53125 17.125 C 102.789063 16.597656 109.453125 19.882813 110.074219 26.140625 C 110.703125 32.523438 104.863281 36.558594 106.550781 44.882813 C 107.714844 50.613281 111.945313 53.945313 119.101563 54.335938 C 141.339844 54.863281 164.539063 54.410156 187.148438 54.566406 C 194.855469 55.277344 203.660156 58.492188 201.46875 67.113281 C 200.640625 70.300781 198.484375 72.710938 196.289063 75.164063 C 194.207031 77.503906 191.984375 79.59375 190.011719 81.878906 C 185.640625 86.921875 180.304688 90.964844 178.992188 97.0625 C 178.992188 97.730469 178.84375 98.699219 178.992188 99.488281 C 180.042969 103.617188 182.847656 106.710938 185.160156 110.054688 C 185.835938 111.027344 193.578125 122.179688 195.515625 125.023438 "/>
<path style=" stroke:none;fill-rule:nonzero;fill:rgb(89.7995%,0%,1.199341%);fill-opacity:1;" d="M 55.054688 239.796875 C 54.445313 245.003906 54.15625 251.496094 54.15625 259.292969 C 54.15625 264.425781 54.28125 269.800781 54.558594 275.4375 L 46.757813 275.4375 C 46.757813 267.867188 47.296875 257.996094 48.394531 245.816406 L 47.960938 245.816406 C 47.683594 246.96875 47.097656 248.835938 46.203125 251.410156 C 45.308594 253.976563 43.527344 258.324219 40.839844 264.453125 C 38.15625 270.585938 36.75 274.230469 36.625 275.4375 L 30.683594 275.4375 C 30.683594 274.003906 29.992188 270.203125 28.617188 264.058594 C 27.238281 257.90625 26.40625 253.910156 26.125 252.101563 C 25.832031 250.269531 25.589844 248.179688 25.371094 245.816406 L 24.960938 245.816406 C 24.722656 247.925781 23.980469 253.152344 22.714844 261.539063 C 21.445313 269.914063 20.824219 274.550781 20.824219 275.4375 L 13.757813 275.4375 C 13.757813 274.957031 14.933594 269.296875 17.292969 258.484375 C 19.644531 247.664063 20.925781 241.4375 21.152344 239.796875 L 31.121094 239.796875 C 31.121094 242.296875 31.789063 246.820313 33.140625 253.371094 C 34.472656 259.90625 35.152344 264.359375 35.152344 266.710938 L 35.554688 266.710938 C 35.730469 264.9375 37.328125 260.417969 40.304688 253.152344 C 43.285156 245.894531 44.867188 241.4375 45.03125 239.796875 "/>
<path style=" stroke:none;fill-rule:nonzero;fill:rgb(89.7995%,0%,1.199341%);fill-opacity:1;" d="M 77.910156 253.785156 C 74.101563 253.828125 71.289063 254.941406 69.503906 257.125 C 67.71875 259.316406 66.8125 262.277344 66.8125 266 C 66.8125 269.363281 67.878906 271.058594 69.992188 271.058594 C 71.640625 271.058594 73.152344 269.867188 74.527344 267.472656 C 75.910156 265.082031 76.777344 262.800781 77.144531 260.609375 C 77.503906 258.449219 77.769531 256.160156 77.910156 253.785156 M 84.925781 248.199219 C 83.460938 258.09375 82.734375 264.929688 82.734375 268.710938 C 82.734375 270.621094 82.882813 272.785156 83.203125 275.175781 L 76.464844 275.929688 C 76.351563 274.417969 76.296875 272.664063 76.296875 270.644531 L 75.882813 270.644531 C 73.855469 274.351563 70.847656 276.210938 66.851563 276.210938 C 64.554688 276.210938 62.820313 275.34375 61.648438 273.625 C 60.480469 271.898438 59.898438 269.542969 59.898438 266.546875 C 59.898438 262.242188 61.398438 258.355469 64.40625 254.902344 C 67.414063 251.433594 72.109375 249.621094 78.457031 249.464844 L 79.660156 248.617188 "/>
<path style=" stroke:none;fill-rule:nonzero;fill:rgb(89.7995%,0%,1.199341%);fill-opacity:1;" d="M 100.308594 240.644531 C 100.308594 242.070313 99.816406 243.28125 98.824219 244.308594 C 97.84375 245.308594 96.628906 245.816406 95.183594 245.816406 C 94.066406 245.816406 93.214844 245.484375 92.609375 244.792969 C 92.003906 244.109375 91.707031 243.257813 91.707031 242.234375 C 91.707031 240.792969 92.195313 239.578125 93.191406 238.601563 C 94.171875 237.613281 95.378906 237.113281 96.832031 237.113281 C 99.148438 237.113281 100.308594 238.292969 100.308594 240.644531 M 98.195313 248.886719 C 98.210938 249.375 98.003906 251.253906 97.570313 254.511719 C 97.128906 257.769531 96.800781 260.414063 96.585938 262.4375 C 96.175781 266.230469 95.851563 270.574219 95.566406 275.4375 L 88.589844 275.714844 C 88.953125 273.34375 89.527344 268.921875 90.316406 262.4375 C 90.679688 258.972656 90.863281 255.730469 90.863281 252.71875 C 90.863281 251.496094 90.824219 250.484375 90.757813 249.675781 "/>
<path style=" stroke:none;fill-rule:nonzero;fill:rgb(89.7995%,0%,1.199341%);fill-opacity:1;" d="M 125.523438 240.644531 C 125.523438 242.070313 125.03125 243.28125 124.042969 244.308594 C 123.058594 245.308594 121.847656 245.816406 120.402344 245.816406 C 119.296875 245.816406 118.4375 245.484375 117.824219 244.792969 C 117.230469 244.109375 116.925781 243.257813 116.925781 242.234375 C 116.925781 240.792969 117.421875 239.578125 118.394531 238.601563 C 119.386719 237.613281 120.597656 237.113281 122.046875 237.113281 C 124.367188 237.113281 125.523438 238.292969 125.523438 240.644531 M 123.410156 248.886719 C 123.433594 249.375 123.222656 251.253906 122.785156 254.511719 C 122.351563 257.769531 122.023438 260.414063 121.800781 262.4375 C 121.394531 266.230469 121.058594 270.574219 120.785156 275.4375 L 113.804688 275.714844 C 114.171875 273.34375 114.746094 268.921875 115.53125 262.4375 C 115.898438 258.972656 116.078125 255.730469 116.078125 252.71875 C 116.078125 251.496094 116.03125 250.484375 115.972656 249.675781 "/>
<path style=" stroke:none;fill-rule:nonzero;fill:rgb(89.7995%,0%,1.199341%);fill-opacity:1;" d="M 145.15625 255.648438 C 145.15625 253.878906 143.792969 252.996094 141.070313 252.996094 C 139.519531 252.996094 138.054688 253.5625 136.671875 254.707031 C 135.277344 255.847656 134.371094 257.476563 133.949219 259.621094 C 141.421875 259.46875 145.15625 258.144531 145.15625 255.648438 M 151.257813 255.101563 C 151.257813 260.539063 145.410156 263.371094 133.707031 263.589844 C 133.707031 266 134.152344 267.804688 135.050781 268.996094 C 135.933594 270.195313 137.503906 270.785156 139.730469 270.785156 C 142.65625 270.785156 145.777344 269.851563 149.117188 267.96875 L 148.273438 273.382813 C 145.550781 275.28125 142.105469 276.234375 137.933594 276.234375 C 134.199219 276.234375 131.449219 275.113281 129.667969 272.878906 C 127.890625 270.644531 126.988281 267.683594 126.988281 264 C 126.988281 259.238281 128.488281 255.425781 131.476563 252.542969 C 134.453125 249.667969 137.992188 248.226563 142.085938 248.226563 C 144.917969 248.226563 147.128906 248.820313 148.730469 249.980469 C 150.421875 251.1875 151.257813 252.894531 151.257813 255.101563 "/>
<path style=" stroke:none;fill-rule:nonzero;fill:rgb(89.7995%,0%,1.199341%);fill-opacity:1;" d="M 173.433594 236.515625 L 172.285156 241.214844 C 171.324219 241.136719 170.3125 241.082031 169.273438 241.082031 C 168.039063 241.082031 167.117188 241.683594 166.511719 242.886719 C 165.902344 244.097656 165.425781 246.433594 165.058594 249.894531 C 166.609375 249.894531 168.746094 249.828125 171.46875 249.675781 L 170.703125 255.128906 C 168.054688 255.027344 165.996094 254.96875 164.539063 254.96875 C 164.136719 260.800781 163.601563 267.5 162.917969 275.046875 C 162.246094 282.597656 159.15625 286.894531 153.640625 287.960938 L 152.164063 284.097656 C 153.585938 282.996094 154.640625 281.371094 155.320313 279.191406 C 156.007813 277.019531 156.605469 273.578125 157.109375 268.875 C 157.605469 264.160156 158.050781 259.535156 158.433594 254.96875 C 157.40625 254.96875 155.898438 255.027344 153.882813 255.128906 L 154.679688 249.714844 C 156.484375 249.84375 157.925781 249.894531 158.980469 249.894531 C 159.941406 240.71875 163.355469 236.128906 169.21875 236.128906 C 170.976563 236.128906 172.390625 236.253906 173.433594 236.515625 "/>
<path style=" stroke:none;fill-rule:nonzero;fill:rgb(89.7995%,0%,1.199341%);fill-opacity:1;" d="M 190.136719 249.675781 L 189.394531 255.128906 C 186.824219 255.027344 184.710938 254.96875 183.066406 254.96875 C 182.304688 259.929688 181.929688 263.621094 181.929688 266.03125 C 181.929688 267.855469 182.121094 269.105469 182.523438 269.777344 C 182.929688 270.453125 183.648438 270.785156 184.6875 270.785156 C 186.296875 270.785156 188.003906 270.226563 189.808594 269.105469 L 188.878906 274.070313 C 187.238281 275.375 185.183594 276.019531 182.738281 276.019531 C 180.15625 276.019531 178.3125 275.382813 177.21875 274.113281 C 176.113281 272.851563 175.566406 270.707031 175.566406 267.691406 C 175.566406 265.472656 176.023438 261.222656 176.9375 254.96875 C 176.0625 254.96875 174.8125 255.027344 173.191406 255.128906 L 173.960938 249.746094 C 175.347656 249.84375 176.617188 249.894531 177.757813 249.894531 C 177.949219 248.621094 178.335938 246.078125 178.941406 242.265625 L 185.011719 241.460938 C 184.707031 243.203125 184.285156 246.011719 183.734375 249.894531 C 185.183594 249.894531 187.328125 249.832031 190.136719 249.675781 "/>
<path style=" stroke:none;fill-rule:nonzero;fill:rgb(89.7995%,0%,1.199341%);fill-opacity:1;" d="M 205.277344 240.644531 C 205.277344 242.070313 204.785156 243.28125 203.800781 244.308594 C 202.8125 245.308594 201.605469 245.816406 200.15625 245.816406 C 199.046875 245.816406 198.1875 245.484375 197.585938 244.792969 C 196.988281 244.109375 196.6875 243.257813 196.6875 242.234375 C 196.6875 240.792969 197.175781 239.578125 198.15625 238.601563 C 199.144531 237.613281 200.355469 237.113281 201.800781 237.113281 C 204.125 237.113281 205.277344 238.292969 205.277344 240.644531 M 203.171875 248.886719 C 203.1875 249.375 202.980469 251.253906 202.539063 254.511719 C 202.101563 257.769531 201.777344 260.414063 201.550781 262.4375 C 201.15625 266.230469 200.8125 270.574219 200.535156 275.4375 L 193.558594 275.714844 C 193.925781 273.34375 194.496094 268.921875 195.28125 262.4375 C 195.644531 258.972656 195.835938 255.730469 195.835938 252.71875 C 195.835938 251.496094 195.800781 250.484375 195.722656 249.675781 "/>
<path style=" stroke:none;fill-rule:nonzero;fill:rgb(89.7995%,0%,1.199341%);fill-opacity:1;" d="M 232.335938 256.714844 C 232.335938 258.320313 232.078125 261.339844 231.589844 265.75 C 231.097656 270.167969 230.851563 273.402344 230.851563 275.4375 L 223.78125 275.714844 C 223.78125 274.835938 224.085938 272.226563 224.691406 267.90625 C 225.296875 263.566406 225.589844 260.503906 225.589844 258.714844 C 225.589844 256.816406 225.320313 255.503906 224.777344 254.769531 C 224.21875 254.042969 223.3125 253.671875 222.039063 253.671875 C 220.441406 253.671875 218.898438 254.757813 217.398438 256.9375 C 215.902344 259.109375 215.003906 261.757813 214.691406 264.875 C 214.292969 268.804688 213.996094 272.316406 213.785156 275.4375 L 206.917969 275.714844 C 208.195313 266.261719 208.839844 259.871094 208.839844 256.550781 C 208.839844 254.632813 208.691406 252.304688 208.40625 249.539063 L 215.1875 248.863281 C 215.324219 250.414063 215.378906 252.207031 215.378906 254.277344 L 215.765625 254.277344 C 217.90625 250.464844 221.0625 248.570313 225.238281 248.570313 C 229.960938 248.570313 232.335938 251.277344 232.335938 256.714844 "/>
<path style=" stroke:none;fill-rule:nonzero;fill:rgb(89.7995%,0%,1.199341%);fill-opacity:1;" d="M 245.878906 270.574219 C 245.878906 275.152344 242.605469 280.335938 236.058594 286.132813 L 233.835938 284.289063 C 236.5 281.527344 237.992188 278.546875 238.328125 275.339844 C 237.289063 274.625 236.761719 273.496094 236.761719 271.972656 C 236.761719 270.378906 237.28125 269.050781 238.308594 267.953125 C 239.34375 266.867188 240.570313 266.328125 241.992188 266.328125 C 243.359375 266.328125 244.359375 266.742188 244.964844 267.59375 C 245.566406 268.433594 245.878906 269.421875 245.878906 270.574219 "/>
<path style=" stroke:none;fill-rule:nonzero;fill:rgb(89.7995%,0%,1.199341%);fill-opacity:1;" d="M 304.007813 256.714844 C 304.007813 258.617188 303.757813 261.714844 303.273438 266.03125 C 302.773438 270.332031 302.53125 273.472656 302.53125 275.4375 L 295.550781 275.714844 C 295.550781 274.550781 295.84375 271.816406 296.433594 267.523438 C 297.027344 263.25 297.332031 260.347656 297.332031 258.847656 C 297.332031 256.921875 297.097656 255.570313 296.636719 254.8125 C 296.183594 254.0625 295.394531 253.671875 294.261719 253.671875 C 292.515625 253.671875 290.949219 254.71875 289.546875 256.792969 C 288.148438 258.882813 287.289063 261.570313 286.957031 264.875 C 286.527344 268.988281 286.265625 272.507813 286.183594 275.4375 L 279.175781 275.714844 C 279.175781 274.769531 279.476563 272.09375 280.074219 267.683594 C 280.679688 263.269531 280.976563 260.320313 280.976563 258.847656 C 280.976563 256.898438 280.75 255.546875 280.28125 254.796875 C 279.820313 254.054688 279.023438 253.671875 277.914063 253.671875 C 276.203125 253.671875 274.640625 254.75 273.214844 256.878906 C 271.804688 259.011719 270.933594 261.679688 270.613281 264.875 C 270.1875 268.960938 269.886719 272.488281 269.695313 275.4375 L 262.828125 275.714844 C 264.109375 266.261719 264.746094 259.871094 264.746094 256.550781 C 264.746094 254.632813 264.597656 252.304688 264.308594 249.539063 L 271.097656 248.863281 C 271.214844 250.277344 271.289063 252.101563 271.289063 254.277344 L 271.671875 254.277344 C 273.695313 250.464844 276.757813 248.570313 280.867188 248.570313 C 282.929688 248.570313 284.511719 249.089844 285.609375 250.152344 C 286.699219 251.199219 287.289063 252.578125 287.328125 254.277344 L 287.660156 254.277344 C 289.832031 250.464844 292.984375 248.570313 297.109375 248.570313 C 299.65625 248.570313 301.449219 249.246094 302.472656 250.621094 C 303.488281 252.003906 304.007813 254.027344 304.007813 256.714844 "/>
<path style=" stroke:none;fill-rule:nonzero;fill:rgb(89.7995%,0%,1.199341%);fill-opacity:1;" d="M 326.074219 253.785156 C 322.265625 253.828125 319.460938 254.941406 317.671875 257.125 C 315.886719 259.316406 314.988281 262.277344 314.988281 266 C 314.988281 269.363281 316.046875 271.058594 318.15625 271.058594 C 319.804688 271.058594 321.316406 269.867188 322.691406 267.472656 C 324.066406 265.082031 324.941406 262.800781 325.308594 260.609375 C 325.671875 258.449219 325.929688 256.160156 326.074219 253.785156 M 333.085938 248.199219 C 331.621094 258.09375 330.886719 264.929688 330.886719 268.710938 C 330.886719 270.621094 331.046875 272.785156 331.359375 275.175781 L 324.621094 275.929688 C 324.511719 274.417969 324.464844 272.664063 324.464844 270.644531 L 324.050781 270.644531 C 322.023438 274.351563 319.015625 276.210938 315.015625 276.210938 C 312.707031 276.210938 310.988281 275.34375 309.8125 273.625 C 308.648438 271.898438 308.054688 269.542969 308.054688 266.546875 C 308.054688 262.242188 309.554688 258.355469 312.578125 254.902344 C 315.589844 251.433594 320.273438 249.621094 326.621094 249.464844 L 327.824219 248.617188 "/>
<path style=" stroke:none;fill-rule:nonzero;fill:rgb(89.7995%,0%,1.199341%);fill-opacity:1;" d="M 348.476563 240.644531 C 348.476563 242.070313 347.976563 243.28125 346.992188 244.308594 C 346.007813 245.308594 344.789063 245.816406 343.351563 245.816406 C 342.234375 245.816406 341.371094 245.484375 340.773438 244.792969 C 340.171875 244.109375 339.867188 243.257813 339.867188 242.234375 C 339.867188 240.792969 340.363281 239.578125 341.351563 238.601563 C 342.335938 237.613281 343.550781 237.113281 344.988281 237.113281 C 347.304688 237.113281 348.476563 238.292969 348.476563 240.644531 M 346.355469 248.886719 C 346.382813 249.375 346.164063 251.253906 345.734375 254.511719 C 345.296875 257.769531 344.964844 260.414063 344.75 262.4375 C 344.335938 266.230469 344.007813 270.574219 343.726563 275.4375 L 336.746094 275.714844 C 337.117188 273.34375 337.6875 268.921875 338.472656 262.4375 C 338.84375 258.972656 339.023438 255.730469 339.023438 252.71875 C 339.023438 251.496094 338.988281 250.484375 338.914063 249.675781 "/>
<path style=" stroke:none;fill-rule:nonzero;fill:rgb(89.7995%,0%,1.199341%);fill-opacity:1;" d="M 381.769531 260.570313 C 381.769531 255.972656 380.28125 253.671875 377.324219 253.671875 C 375.5625 253.671875 373.902344 254.855469 372.359375 257.226563 C 370.8125 259.578125 369.890625 262.132813 369.609375 264.875 L 369.058594 269.964844 C 370.414063 270.785156 371.890625 271.199219 373.492188 271.199219 C 376.265625 271.199219 378.339844 270.15625 379.714844 268.050781 C 381.078125 265.960938 381.769531 263.460938 381.769531 260.570313 M 388.695313 259.15625 C 388.695313 263.875 387.425781 267.910156 384.894531 271.242188 C 382.371094 274.566406 379.023438 276.234375 374.859375 276.234375 C 372.238281 276.234375 370.304688 275.609375 369.058594 274.378906 L 368.703125 274.378906 L 368.097656 275.4375 L 361.972656 275.714844 C 362.316406 273.328125 363.121094 266.453125 364.402344 255.101563 C 365.136719 248.152344 365.496094 242.105469 365.496094 236.941406 L 373.027344 236.515625 C 373.027344 237.273438 372.703125 240.011719 372.054688 244.710938 C 371.410156 249.410156 370.9375 252.609375 370.648438 254.277344 L 370.972656 254.277344 C 373.015625 250.464844 376.128906 248.570313 380.28125 248.570313 C 382.988281 248.570313 385.058594 249.519531 386.519531 251.453125 C 387.96875 253.375 388.695313 255.941406 388.695313 259.15625 "/>
<path style=" stroke:none;fill-rule:nonzero;fill:rgb(89.7995%,0%,1.199341%);fill-opacity:1;" d="M 418.425781 248.886719 C 417.144531 258.988281 416.511719 265.722656 416.511719 269.039063 C 416.511719 270.957031 416.652344 273.023438 416.945313 275.226563 L 410.210938 275.992188 C 410.097656 274.519531 410.042969 272.707031 410.042969 270.574219 L 409.664063 270.574219 C 407.601563 274.378906 404.472656 276.292969 400.300781 276.292969 C 395.59375 276.292969 393.238281 273.574219 393.238281 268.128906 C 393.238281 266.535156 393.476563 263.519531 393.957031 259.113281 C 394.441406 254.707031 394.6875 251.472656 394.6875 249.4375 L 401.800781 248.886719 C 401.800781 249.761719 401.496094 252.382813 400.871094 256.75 C 400.253906 261.105469 399.9375 264.179688 399.9375 265.972656 C 399.9375 267.890625 400.207031 269.226563 400.71875 269.992188 C 401.246094 270.769531 402.132813 271.148438 403.390625 271.148438 C 404.976563 271.148438 406.527344 270.0625 408.023438 267.90625 C 409.511719 265.738281 410.429688 263.089844 410.734375 259.976563 C 411.238281 254.902344 411.496094 251.382813 411.496094 249.4375 "/>
<path style=" stroke:none;fill-rule:nonzero;fill:rgb(89.7995%,0%,1.199341%);fill-opacity:1;" d="M 447.636719 256.714844 C 447.636719 258.320313 447.390625 261.339844 446.898438 265.75 C 446.410156 270.167969 446.160156 273.402344 446.160156 275.4375 L 439.101563 275.714844 C 439.101563 274.835938 439.398438 272.226563 440 267.90625 C 440.601563 263.566406 440.910156 260.503906 440.910156 258.714844 C 440.910156 256.816406 440.628906 255.503906 440.078125 254.769531 C 439.527344 254.042969 438.621094 253.671875 437.347656 253.671875 C 435.753906 253.671875 434.210938 254.757813 432.722656 256.9375 C 431.214844 259.109375 430.3125 261.757813 430.007813 264.875 C 429.601563 268.804688 429.304688 272.316406 429.105469 275.4375 L 422.234375 275.714844 C 423.503906 266.261719 424.136719 259.871094 424.136719 256.550781 C 424.136719 254.632813 423.996094 252.304688 423.699219 249.539063 L 430.492188 248.863281 C 430.621094 250.414063 430.695313 252.207031 430.695313 254.277344 L 431.074219 254.277344 C 433.210938 250.464844 436.359375 248.570313 440.539063 248.570313 C 445.273438 248.570313 447.636719 251.277344 447.636719 256.714844 "/>
<path style=" stroke:none;fill-rule:nonzero;fill:rgb(89.7995%,0%,1.199341%);fill-opacity:1;" d="M 461.1875 270.574219 C 461.1875 275.152344 457.910156 280.335938 451.359375 286.132813 L 449.144531 284.289063 C 451.800781 281.527344 453.304688 278.546875 453.632813 275.339844 C 452.59375 274.625 452.074219 273.496094 452.074219 271.972656 C 452.074219 270.378906 452.585938 269.050781 453.621094 267.953125 C 454.644531 266.867188 455.878906 266.328125 457.304688 266.328125 C 458.664063 266.328125 459.660156 266.742188 460.273438 267.59375 C 460.886719 268.433594 461.1875 269.421875 461.1875 270.574219 "/>
<path style=" stroke:none;fill-rule:nonzero;fill:rgb(89.7995%,0%,1.199341%);fill-opacity:1;" d="M 519.3125 256.714844 C 519.3125 258.617188 519.070313 261.714844 518.578125 266.03125 C 518.082031 270.332031 517.839844 273.472656 517.839844 275.4375 L 510.851563 275.714844 C 510.851563 274.550781 511.148438 271.816406 511.746094 267.523438 C 512.335938 263.25 512.632813 260.347656 512.632813 258.847656 C 512.632813 256.921875 512.410156 255.570313 511.949219 254.8125 C 511.484375 254.0625 510.699219 253.671875 509.574219 253.671875 C 507.84375 253.671875 506.257813 254.71875 504.867188 256.792969 C 503.453125 258.882813 502.589844 261.570313 502.257813 264.875 C 501.839844 268.988281 501.582031 272.507813 501.484375 275.4375 L 494.484375 275.714844 C 494.484375 274.769531 494.785156 272.09375 495.390625 267.683594 C 495.988281 263.269531 496.289063 260.320313 496.289063 258.847656 C 496.289063 256.898438 496.054688 255.546875 495.59375 254.796875 C 495.128906 254.054688 494.339844 253.671875 493.222656 253.671875 C 491.503906 253.671875 489.945313 254.75 488.523438 256.878906 C 487.109375 259.011719 486.246094 261.679688 485.917969 264.875 C 485.492188 268.960938 485.183594 272.488281 485.011719 275.4375 L 478.132813 275.714844 C 479.417969 266.261719 480.046875 259.871094 480.046875 256.550781 C 480.046875 254.632813 479.902344 252.304688 479.613281 249.539063 L 486.410156 248.863281 C 486.53125 250.277344 486.597656 252.101563 486.597656 254.277344 L 486.980469 254.277344 C 489.007813 250.464844 492.0625 248.570313 496.179688 248.570313 C 498.25 248.570313 499.816406 249.089844 500.921875 250.152344 C 502.011719 251.199219 502.589844 252.578125 502.644531 254.277344 L 502.96875 254.277344 C 505.144531 250.464844 508.292969 248.570313 512.421875 248.570313 C 514.972656 248.570313 516.753906 249.246094 517.785156 250.621094 C 518.804688 252.003906 519.3125 254.027344 519.3125 256.714844 "/>
<path style=" stroke:none;fill-rule:nonzero;fill:rgb(89.7995%,0%,1.199341%);fill-opacity:1;" d="M 541.382813 253.785156 C 537.570313 253.828125 534.765625 254.941406 532.972656 257.125 C 531.1875 259.316406 530.289063 262.277344 530.289063 266 C 530.289063 269.363281 531.351563 271.058594 533.476563 271.058594 C 535.109375 271.058594 536.625 269.867188 537.996094 267.472656 C 539.386719 265.082031 540.253906 262.800781 540.613281 260.609375 C 540.972656 258.449219 541.234375 256.160156 541.382813 253.785156 M 548.394531 248.199219 C 546.933594 258.09375 546.195313 264.929688 546.195313 268.710938 C 546.195313 270.621094 546.351563 272.785156 546.664063 275.175781 L 539.933594 275.929688 C 539.820313 274.417969 539.761719 272.664063 539.761719 270.644531 L 539.355469 270.644531 C 537.335938 274.351563 534.3125 276.210938 530.324219 276.210938 C 528.023438 276.210938 526.28125 275.34375 525.113281 273.625 C 523.949219 271.898438 523.363281 269.542969 523.363281 266.546875 C 523.363281 262.242188 524.875 258.355469 527.890625 254.902344 C 530.898438 251.433594 535.574219 249.621094 541.929688 249.464844 L 543.136719 248.617188 "/>
<path style=" stroke:none;fill-rule:nonzero;fill:rgb(89.7995%,0%,1.199341%);fill-opacity:1;" d="M 563.777344 240.644531 C 563.777344 242.070313 563.285156 243.28125 562.304688 244.308594 C 561.308594 245.308594 560.09375 245.816406 558.660156 245.816406 C 557.542969 245.816406 556.691406 245.484375 556.085938 244.792969 C 555.488281 244.109375 555.183594 243.257813 555.183594 242.234375 C 555.183594 240.792969 555.671875 239.578125 556.652344 238.601563 C 557.652344 237.613281 558.855469 237.113281 560.300781 237.113281 C 562.621094 237.113281 563.777344 238.292969 563.777344 240.644531 M 561.664063 248.886719 C 561.691406 249.375 561.484375 251.253906 561.039063 254.511719 C 560.601563 257.769531 560.277344 260.414063 560.058594 262.4375 C 559.652344 266.230469 559.3125 270.574219 559.039063 275.4375 L 552.054688 275.714844 C 552.429688 273.34375 553 268.921875 553.785156 262.4375 C 554.152344 258.972656 554.335938 255.730469 554.335938 252.71875 C 554.335938 251.496094 554.296875 250.484375 554.21875 249.675781 "/>
<path style=" stroke:none;fill-rule:nonzero;fill:rgb(89.7995%,0%,1.199341%);fill-opacity:1;" d="M 594.828125 253.785156 C 591.003906 253.828125 588.210938 254.941406 586.421875 257.125 C 584.636719 259.316406 583.738281 262.277344 583.738281 266 C 583.738281 269.363281 584.789063 271.058594 586.914063 271.058594 C 588.558594 271.058594 590.066406 269.867188 591.441406 267.472656 C 592.824219 265.082031 593.699219 262.800781 594.058594 260.609375 C 594.414063 258.449219 594.683594 256.160156 594.828125 253.785156 M 601.839844 248.199219 C 600.378906 258.09375 599.640625 264.929688 599.640625 268.710938 C 599.640625 270.621094 599.800781 272.785156 600.109375 275.175781 L 593.371094 275.929688 C 593.261719 274.417969 593.21875 272.664063 593.21875 270.644531 L 592.804688 270.644531 C 590.769531 274.351563 587.769531 276.210938 583.761719 276.210938 C 581.46875 276.210938 579.726563 275.34375 578.558594 273.625 C 577.394531 271.898438 576.8125 269.542969 576.8125 266.546875 C 576.8125 262.242188 578.316406 258.355469 581.328125 254.902344 C 584.339844 251.433594 589.019531 249.621094 595.378906 249.464844 L 596.585938 248.617188 "/>
<path style=" stroke:none;fill-rule:nonzero;fill:rgb(89.7995%,0%,1.199341%);fill-opacity:1;" d="M 625.21875 260.570313 C 625.21875 255.972656 623.726563 253.671875 620.75 253.671875 C 618.976563 253.671875 617.328125 254.855469 615.804688 257.226563 C 614.269531 259.578125 613.351563 262.132813 613.054688 264.875 L 612.507813 269.964844 C 613.851563 270.785156 615.308594 271.199219 616.917969 271.199219 C 619.699219 271.199219 621.773438 270.148438 623.152344 268.039063 C 624.523438 265.929688 625.21875 263.445313 625.21875 260.570313 M 632.109375 259.15625 C 632.109375 263.875 630.855469 267.910156 628.320313 271.242188 C 625.796875 274.566406 622.449219 276.234375 618.292969 276.234375 C 615.664063 276.234375 613.757813 275.609375 612.5625 274.378906 L 612.242188 274.378906 C 611.769531 278.851563 611.375 283.324219 611.0625 287.824219 L 603.945313 287.960938 C 606.242188 271.128906 607.390625 260.386719 607.390625 255.730469 C 607.390625 253.996094 607.238281 251.964844 606.957031 249.621094 L 613.6875 248.863281 C 613.851563 250.269531 613.929688 252.074219 613.929688 254.277344 L 614.269531 254.277344 C 616.421875 250.464844 619.570313 248.570313 623.738281 248.570313 C 626.449219 248.570313 628.515625 249.519531 629.949219 251.453125 C 631.398438 253.375 632.109375 255.941406 632.109375 259.15625 "/>
<path style=" stroke:none;fill-rule:nonzero;fill:rgb(89.7995%,0%,1.199341%);fill-opacity:1;" d="M 655.554688 249.140625 L 653.394531 255.558594 C 652.164063 255.199219 650.882813 255.027344 649.558594 255.027344 C 646.25 255.027344 644.410156 256.835938 644.03125 260.460938 C 643.441406 265.976563 642.992188 270.976563 642.691406 275.4375 L 635.816406 275.714844 C 637.09375 266.261719 637.726563 259.871094 637.726563 256.550781 C 637.726563 254.632813 637.585938 252.304688 637.300781 249.539063 L 644.082031 248.863281 C 644.195313 250.058594 644.246094 251.265625 644.246094 252.46875 L 644.664063 252.46875 C 646.519531 249.84375 648.785156 248.527344 651.445313 248.527344 C 652.699219 248.527344 654.074219 248.730469 655.554688 249.140625 "/>
<path style=" stroke:none;fill-rule:nonzero;fill:rgb(89.7995%,0%,1.199341%);fill-opacity:1;" d="M 675.976563 261.050781 C 675.976563 258.777344 675.496094 256.921875 674.523438 255.472656 C 673.546875 254.023438 672.214844 253.296875 670.527344 253.296875 C 668.371094 253.296875 666.628906 254.382813 665.289063 256.550781 C 663.949219 258.730469 663.269531 261.121094 663.269531 263.722656 C 663.269531 265.984375 663.765625 267.84375 664.746094 269.296875 C 665.742188 270.746094 667.082031 271.472656 668.78125 271.472656 C 670.992188 271.472656 672.742188 270.394531 674.035156 268.257813 C 675.328125 266.109375 675.976563 263.707031 675.976563 261.050781 M 682.902344 260.4375 C 682.902344 264.890625 681.488281 268.683594 678.652344 271.816406 C 675.808594 274.949219 672.15625 276.511719 667.710938 276.511719 C 664.605469 276.511719 661.945313 275.375 659.71875 273.101563 C 657.492188 270.828125 656.371094 267.824219 656.371094 264.085938 C 656.371094 259.640625 657.796875 255.894531 660.648438 252.828125 C 663.492188 249.761719 667.15625 248.226563 671.621094 248.226563 C 674.746094 248.226563 677.402344 249.332031 679.609375 251.527344 C 681.800781 253.726563 682.902344 256.695313 682.902344 260.4375 "/>
<path style=" stroke:none;fill-rule:nonzero;fill:rgb(89.7995%,0%,1.199341%);fill-opacity:1;" d="M 704.0625 253.785156 C 700.253906 253.828125 697.457031 254.941406 695.664063 257.125 C 693.875 259.316406 692.980469 262.277344 692.980469 266 C 692.980469 269.363281 694.035156 271.058594 696.152344 271.058594 C 697.808594 271.058594 699.308594 269.867188 700.6875 267.472656 C 702.070313 265.082031 702.933594 262.800781 703.300781 260.609375 C 703.664063 258.449219 703.925781 256.160156 704.0625 253.785156 M 711.078125 248.199219 C 709.613281 258.09375 708.886719 264.929688 708.886719 268.710938 C 708.886719 270.621094 709.042969 272.785156 709.351563 275.175781 L 702.621094 275.929688 C 702.503906 274.417969 702.449219 272.664063 702.449219 270.644531 L 702.042969 270.644531 C 700.011719 274.351563 697.007813 276.210938 693.007813 276.210938 C 690.707031 276.210938 688.976563 275.34375 687.804688 273.625 C 686.644531 271.898438 686.050781 269.542969 686.050781 266.546875 C 686.050781 262.242188 687.554688 258.355469 690.566406 254.902344 C 693.578125 251.433594 698.261719 249.621094 704.617188 249.464844 L 705.816406 248.617188 "/>
<path style=" stroke:none;fill-rule:nonzero;fill:rgb(89.7995%,0%,1.199341%);fill-opacity:1;" d="M 734.460938 260.570313 C 734.460938 255.972656 732.964844 253.671875 729.992188 253.671875 C 728.234375 253.671875 726.566406 254.855469 725.039063 257.226563 C 723.503906 259.578125 722.597656 262.132813 722.296875 264.875 L 721.753906 269.964844 C 723.085938 270.785156 724.550781 271.199219 726.164063 271.199219 C 728.933594 271.199219 731.015625 270.148438 732.390625 268.039063 C 733.773438 265.929688 734.460938 263.445313 734.460938 260.570313 M 741.359375 259.15625 C 741.359375 263.875 740.09375 267.910156 737.5625 271.242188 C 735.035156 274.566406 731.699219 276.234375 727.527344 276.234375 C 724.902344 276.234375 722.992188 275.609375 721.8125 274.378906 L 721.480469 274.378906 C 721.007813 278.851563 720.609375 283.324219 720.308594 287.824219 L 713.1875 287.960938 C 715.484375 271.128906 716.640625 260.386719 716.640625 255.730469 C 716.640625 253.996094 716.492188 251.964844 716.195313 249.621094 L 722.933594 248.863281 C 723.09375 250.269531 723.175781 252.074219 723.175781 254.277344 L 723.503906 254.277344 C 725.660156 250.464844 728.816406 248.570313 732.988281 248.570313 C 735.6875 248.570313 737.761719 249.519531 739.191406 251.453125 C 740.632813 253.375 741.359375 255.941406 741.359375 259.15625 "/>
<path style=" stroke:none;fill-rule:nonzero;fill:rgb(89.7995%,0%,1.199341%);fill-opacity:1;" d="M 763.035156 255.648438 C 763.035156 253.878906 761.691406 252.996094 758.960938 252.996094 C 757.40625 252.996094 755.945313 253.5625 754.554688 254.707031 C 753.167969 255.847656 752.265625 257.476563 751.84375 259.621094 C 759.308594 259.46875 763.035156 258.144531 763.035156 255.648438 M 769.152344 255.101563 C 769.152344 260.539063 763.296875 263.371094 751.601563 263.589844 C 751.601563 266 752.046875 267.804688 752.9375 268.996094 C 753.828125 270.195313 755.398438 270.785156 757.621094 270.785156 C 760.542969 270.785156 763.675781 269.851563 767.011719 267.96875 L 766.160156 273.382813 C 763.445313 275.28125 759.996094 276.234375 755.820313 276.234375 C 752.09375 276.234375 749.339844 275.113281 747.5625 272.878906 C 745.785156 270.644531 744.894531 267.683594 744.894531 264 C 744.894531 259.238281 746.375 255.425781 749.367188 252.542969 C 752.351563 249.667969 755.890625 248.226563 759.980469 248.226563 C 762.808594 248.226563 765.023438 248.820313 766.625 249.980469 C 768.308594 251.1875 769.152344 252.894531 769.152344 255.101563 "/>
</g>
</svg>
