<?xml version="1.0" encoding="iso-8859-1"?>
<!-- Uploaded to: SVG Repo, www.svgrepo.com, Generator: SVG Repo Mixer Tools -->
<svg height="800px" width="800px" version="1.1" id="Layer_1" xmlns="http://www.w3.org/2000/svg" xmlns:xlink="http://www.w3.org/1999/xlink" 
	 viewBox="0 0 506.9 506.9" xml:space="preserve">
<ellipse style="fill:#F6E89A;" cx="256.654" cy="77.4" rx="68" ry="65.4"/>
<path style="fill:#8D4520;" d="M256.654,154.8c-44.1,0-80-34.7-80-77.4s35.9-77.4,80-77.4s80,34.7,80,77.4
	S300.754,154.8,256.654,154.8z M256.654,24c-30.9,0-56,24-56,53.4s25.1,53.4,56,53.4s56-24,56-53.4S287.554,24,256.654,24z"/>
<ellipse style="opacity:0.5;fill:#B8CBCD;enable-background:new    ;" cx="255.354" cy="459.6" rx="190.7" ry="47.3"/>
<path style="fill:#FFFFFF;" d="M256.654,37.4c35.3,0,64.3,25.9,67.6,59c0.2-2.1,0.3-4.2,0.3-6.4c0-36.1-30.4-65.4-68-65.4
	s-68,29.3-68,65.4c0,2.2,0.1,4.3,0.3,6.4C192.354,63.3,221.354,37.4,256.654,37.4z"/>
<path style="fill:#8D4520;" d="M256.654,118.6c-22.3,0-40.4-17.6-40.4-39.2c0-10.8,4.4-20.8,12.4-28.3c3.2-3,8.3-2.8,11.3,0.4
	s2.8,8.3-0.4,11.3c-4.7,4.4-7.3,10.3-7.3,16.6c0,12.8,11,23.2,24.4,23.2c13.5,0,24.4-10.4,24.4-23.2c0-6.5-2.9-12.8-8-17.2
	c-3.3-2.9-3.7-7.9-0.8-11.3c2.9-3.3,7.9-3.7,11.3-0.8c8.6,7.4,13.6,18.1,13.6,29.3C297.054,101,278.954,118.6,256.654,118.6z"/>
<path style="fill:#FFBAB0;" d="M383.754,273.2c5.3-4.5,8.6-10.9,8.6-18.1c0-13.4-11.5-24.3-25.7-24.3h-227.8
	c-14.2,0-25.7,10.9-25.7,24.3c0,7.4,3.5,14,9.1,18.5c-108.2,112.9-27.4,221.2,130.9,221.2
	C411.654,494.8,492.454,386.3,383.754,273.2z"/>
<g>
	<path style="fill:#783741;" d="M253.154,506.8c-89.9,0-160.4-34.4-184-89.9c-9.6-22.5-10.9-47.8-3.8-73.2
		c6.7-23.7,20.4-47.4,40.9-70.5c-3.3-5.5-5.1-11.7-5.1-18.2c0-20,16.9-36.3,37.7-36.3h227.8c20.8,0,37.7,16.3,37.7,36.3
		c0,6.2-1.7,12.2-4.7,17.6c20.7,23.2,34.6,47,41.3,70.9c7.2,25.4,5.9,50.8-3.7,73.4C413.654,472.3,343.054,506.8,253.154,506.8z
		 M138.854,242.8c-7.6,0-13.7,5.5-13.7,12.3c0,3.5,1.6,6.8,4.6,9.1c2.6,2.1,4.2,5.2,4.5,8.6c0.2,3.4-1,6.7-3.3,9.1
		c-41.6,43.4-55.7,88.1-39.7,125.6c19.8,46.5,81.8,75.3,161.9,75.3s142.2-28.9,162-75.3c16-37.7,1.8-82.4-40.1-126
		c-2.3-2.4-3.5-5.6-3.3-8.9s1.7-6.4,4.2-8.5c2.8-2.4,4.4-5.6,4.4-9c0-6.8-6.1-12.3-13.7-12.3L138.854,242.8L138.854,242.8z"/>
	<path style="opacity:0.2;fill:#783741;enable-background:new    ;" d="M293.254,460.8c-158.3,0-239.1-108.3-131-221.2
		c-3-2.4-5.3-5.4-6.9-8.8h-10.4c-14.2,0-25.7,10.9-25.7,24.3c0,7.4,3.5,14,9.1,18.5c-108.2,112.9-27.4,221.2,130.9,221.2
		c79.2,0,139-27.1,165.4-68.3C393.154,448,347.754,460.8,293.254,460.8z"/>
</g>
<circle style="fill:#FFBAB0;" cx="223.354" cy="197.4" r="29.4"/>
<path style="fill:#783741;" d="M223.354,238.8c-22.8,0-41.4-18.6-41.4-41.4s18.6-41.4,41.4-41.4s41.4,18.6,41.4,41.4
	S246.154,238.8,223.354,238.8z M223.354,180c-9.6,0-17.4,7.8-17.4,17.4s7.8,17.4,17.4,17.4c9.6,0,17.4-7.8,17.4-17.4
	S232.954,180,223.354,180z"/>
<circle style="fill:#FFBAB0;" cx="282.154" cy="197.4" r="29.4"/>
<path style="fill:#783741;" d="M282.154,238.8c-22.8,0-41.4-18.6-41.4-41.4s18.6-41.4,41.4-41.4s41.4,18.6,41.4,41.4
	S304.954,238.8,282.154,238.8z M282.154,180c-9.6,0-17.4,7.8-17.4,17.4s7.8,17.4,17.4,17.4s17.4-7.8,17.4-17.4
	S291.754,180,282.154,180z"/>
<path style="fill:#8D4520;" d="M256.654,154.8c-44.1,0-80-34.7-80-77.4s35.9-77.4,80-77.4s80,34.7,80,77.4
	S300.754,154.8,256.654,154.8z M256.654,24c-30.9,0-56,24-56,53.4s25.1,53.4,56,53.4s56-24,56-53.4S287.554,24,256.654,24z"/>
<g>
	<path style="fill:#783741;" d="M376.754,282.8h-248c-4.4,0-8-3.6-8-8c0-4.4,3.6-8,8-8h248c4.4,0,8,3.6,8,8
		C384.754,279.2,381.154,282.8,376.754,282.8z"/>
	<path style="fill:#783741;" d="M137.254,369.6c-0.6-1.5-13-36.9,33.2-95.8c2.7-3.5,7.8-4.1,11.2-1.3c3.5,2.7,4.1,7.8,1.3,11.2
		c-40,50.9-30.9,80.1-30.8,80.4V364L137.254,369.6z"/>
</g>
<path style="fill:#FFBAB0;" d="M332.754,274.8c0,0,79.6,84,0,152"/>
<path style="fill:#783741;" d="M332.754,434.8c-2.3,0-4.5-1-6.1-2.8c-2.9-3.4-2.5-8.4,0.9-11.3c20.3-17.4,31.3-37.4,32.5-59.4
	c2.3-42.9-32.7-80.6-33.1-81c-3-3.2-2.9-8.3,0.3-11.3c3.2-3,8.3-2.9,11.3,0.3c1.6,1.7,40.1,42.9,37.4,92.8
	c-1.4,26.6-14.2,50.5-38,70.8C336.454,434.2,334.554,434.8,332.754,434.8z"/>
<path style="fill:#FFBAB0;" d="M208.754,282.8c0,0-8,20-8,44"/>
<path style="fill:#783741;" d="M200.754,334.8c-4.4,0-8-3.6-8-8c0-25.3,8.2-46.1,8.6-47c1.6-4.1,6.3-6.1,10.4-4.5
	c4.1,1.6,6.1,6.3,4.5,10.4c-0.1,0.4-7.4,19.1-7.4,41C208.754,331.2,205.154,334.8,200.754,334.8z"/>
</svg>