<?xml version="1.0" encoding="iso-8859-1"?>
<!-- Uploaded to: SVG Repo, www.svgrepo.com, Generator: SVG Repo Mixer Tools -->
<svg height="800px" width="800px" version="1.1" id="Layer_1" xmlns="http://www.w3.org/2000/svg" xmlns:xlink="http://www.w3.org/1999/xlink" 
	 viewBox="0 0 512.04 512.04" xml:space="preserve">
<ellipse style="opacity:0.5;fill:#B8CBCD;enable-background:new    ;" cx="250.714" cy="451.02" rx="190.7" ry="47.3"/>
<path style="fill:#F6E89A;" d="M380.014,117.72L380.014,117.72h-2.3l0,0l0,0h-65.8c-2.1,31.3-28,56-59.8,56s-57.7-24.7-59.8-56
	h-58.4l0,0l0,0h-1.9l0,0l-120,129.8l63.3,71.3l56.7-56.7v191.6h248v-191.1l56.2,56.2l63.8-73.1L380.014,117.72z"/>
<path style="fill:#8D4520;" d="M508.814,237.52l-120-128c-2.3-2.4-5.5-3.8-8.8-3.8h-68.1c-6.3,0-11.6,4.9-12,11.2
	c-0.1,1.6-0.3,3.2-0.6,4.8h-35.3v-12c0-5.3,5.4-11.4,11-17.9c8-9.2,17-19.6,17-34.1c0-26.7-17.3-44-44-44c-27.5,0-44,22.4-44,44
	c0,6.6,5.4,12,12,12s12-5.4,12-12c0-9.7,7-20,20-20c13.5,0,20,6.5,20,20c0,5.5-5.4,11.8-11.1,18.3c-7.9,9.1-16.9,19.4-16.9,33.7v12
	h-35.1c-0.3-1.6-0.5-3.2-0.6-4.8c-0.4-6.3-5.7-11.2-12-11.2h-60.3c-3.3,0-6.5,1.4-8.8,3.9l-120,129.8c-4.2,4.5-4.3,11.5-0.2,16.1
	l63.4,71.3c2.2,2.4,5.3,3.9,8.6,4c3.3,0.1,6.5-1.2,8.8-3.5l36.2-36.2v162.6c0,6.6,5.4,12,12,12h248c6.6,0,12-5.4,12-12v-162.1
	l35.7,35.7c2.4,2.3,5.6,3.6,8.9,3.5s6.4-1.6,8.6-4.1l63.9-73.1C513.113,249.02,513.013,242.02,508.814,237.52z M287.714,145.72
	c-8.8,9.8-21.6,16-35.6,16s-26.8-6.2-35.6-16H287.714z M252.114,185.72c33.9,0,62.8-23.8,70.1-56h20.7c-6.8,44.1-45,78-90.9,78
	s-84.2-33.9-90.9-78h20.9C189.314,161.92,218.214,185.72,252.114,185.72z M75.814,301.32l-47.6-53.6l8.8-9.6l51,51L75.814,301.32z
	 M388.514,254.12c-3.5-3.4-8.6-4.5-13.1-2.6s-7.4,6.2-7.4,11.1v179.1h-224v-179.6c0-4.9-2.9-9.2-7.4-11.1c-4.5-1.9-9.7-0.8-13.1,2.6
	l-24.2,24.2l-51.4-51.4l89.4-96.7h7.6c6.9,53,52.2,94,107.1,94s100.2-41,107.1-94h15.7l88,93.9l-52.4,52.4L388.514,254.12z
	 M435.614,301.22l-13.9-13.9l52-52l10.1,10.7L435.614,301.22z"/>
<path style="fill:#FFFFFF;" d="M226.914,317.72c11.6,0,21.1-9.5,21.1-21.1s-9.5-21.1-21.1-21.1s-21.1,9.5-21.1,21.1
	C205.814,308.22,215.314,317.72,226.914,317.72z"/>
<path style="fill:#8D4520;" d="M226.914,327.52c17.1,0,30.9-13.9,30.9-30.9s-13.9-30.9-30.9-30.9s-30.9,13.9-30.9,30.9
	S209.914,327.52,226.914,327.52z M226.914,281.72c8.2,0,14.9,6.7,14.9,14.9c0,8.2-6.7,14.9-14.9,14.9s-14.9-6.7-14.9-14.9
	S218.714,281.72,226.914,281.72z"/>
<path style="fill:#FFFFFF;" d="M289.114,337.42c-11.8,0-21.4,9.6-21.4,21.4s9.6,21.4,21.4,21.4s21.4-9.6,21.4-21.4
	C310.514,347.02,300.914,337.42,289.114,337.42z"/>
<g>
	<path style="fill:#8D4520;" d="M289.114,327.92c-17,0-30.9,13.9-30.9,30.9s13.9,30.9,30.9,30.9s30.9-13.8,30.9-30.9
		S306.114,327.92,289.114,327.92z M289.114,373.72c-8.2,0-14.9-6.7-14.9-14.9c0-8.2,6.7-14.9,14.9-14.9c8.2,0,14.9,6.7,14.9,14.9
		S297.314,373.72,289.114,373.72z"/>
	<path style="fill:#8D4520;" d="M311.014,274.72c-3.1-3.1-8.2-3.1-11.3,0l-94.9,94.9c-3.1,3.1-3.1,8.2,0,11.3
		c1.6,1.5,3.7,2.3,5.7,2.3c2.1,0,4.1-0.8,5.6-2.3l94.9-94.9C314.114,282.92,314.114,277.82,311.014,274.72z"/>
</g>
</svg>