<?xml version="1.0" encoding="iso-8859-1"?>
<!-- Uploaded to: SVG Repo, www.svgrepo.com, Generator: SVG Repo Mixer Tools -->
<svg height="800px" width="800px" version="1.1" id="Layer_1" xmlns="http://www.w3.org/2000/svg" xmlns:xlink="http://www.w3.org/1999/xlink" 
	 viewBox="0 0 508.008 508.008" xml:space="preserve">
<ellipse style="opacity:0.5;fill:#B8CBCD;enable-background:new    ;" cx="310.7" cy="434.754" rx="190.7" ry="47.3"/>
<polyline style="fill:#B9E3ED;" points="448,305.954 204,305.954 160,157.954 496,157.954 "/>
<g>
	<path style="fill:#88AFBF;" d="M408,209.954H176c-2.2,0-4-1.8-4-4s1.8-4,4-4h232c2.2,0,4,1.8,4,4S410.2,209.954,408,209.954z"/>
	<path style="fill:#88AFBF;" d="M456,241.954H256c-2.2,0-4-1.8-4-4s1.8-4,4-4h200c2.2,0,4,1.8,4,4S458.2,241.954,456,241.954z"/>
	<path style="fill:#88AFBF;" d="M432,273.954H200c-2.2,0-4-1.8-4-4s1.8-4,4-4h232c2.2,0,4,1.8,4,4S434.2,273.954,432,273.954z"/>
</g>
<g>
	<path style="fill:#324654;" d="M448,317.954H208c-6.6,0-12-5.4-12-12s5.4-12,12-12h231.3l40.2-124H164c-6.6,0-12-5.4-12-12
		s5.4-12,12-12h332c3.8,0,7.4,1.8,9.7,4.9c2.3,3.1,2.9,7.1,1.7,10.8l-48,148C457.8,314.554,453.2,317.954,448,317.954z"/>
	<path style="fill:#324654;" d="M416,413.954H228c-5.4,0-10.2-3.7-11.6-8.9l-89.6-339.1H20c-6.6,0-12-5.4-12-12s5.4-12,12-12h116
		c5.4,0,10.2,3.7,11.6,8.9l89.6,339.1H416c6.6,0,12,5.4,12,12S422.6,413.954,416,413.954z"/>
</g>
<path style="fill:#B9E3ED;" d="M112,57.954c0,11-9,20-20,20H32c-11,0-20-9-20-20l0,0c0-11,9-20,20-20h60
	C103.1,37.954,112,46.954,112,57.954L112,57.954z"/>
<path style="fill:#324654;" d="M92,89.954H32c-17.6,0-32-14.4-32-32s14.4-32,32-32h60c17.6,0,32,14.4,32,32S109.6,89.954,92,89.954z
	 M32,49.954c-4.3,0-8,3.7-8,8s3.7,8,8,8h60c4.3,0,8-3.7,8-8c0-4.4-3.6-8-8-8H32z"/>
<circle style="fill:#B9E3ED;" cx="224" cy="393.954" r="40"/>
<path style="fill:#324654;" d="M224,445.954c-28.7,0-52-23.3-52-52s23.3-52,52-52s52,23.3,52,52S252.7,445.954,224,445.954z
	 M224,365.954c-15.4,0-28,12.6-28,28s12.6,28,28,28s28-12.6,28-28S239.4,365.954,224,365.954z"/>
<circle style="fill:#B9E3ED;" cx="412" cy="393.954" r="40"/>
<g>
	<path style="fill:#324654;" d="M412,445.954c-28.7,0-52-23.3-52-52s23.3-52,52-52s52,23.3,52,52S440.7,445.954,412,445.954z
		 M412,365.954c-15.4,0-28,12.6-28,28s12.6,28,28,28c15.4,0,28-12.6,28-28S427.4,365.954,412,365.954z"/>
	<path style="fill:#324654;" d="M496,169.954c-4.5,0-8.7-2.5-10.8-6.8l-21.6-44.6c-0.2-0.2-0.7-0.5-1-0.6H160c-6.6,0-12-5.4-12-12
		s5.4-12,12-12h302.8c9.1,0,18.5,5.9,22.3,14.1l21.7,44.7c2.9,6,0.4,13.1-5.6,16C499.5,169.554,497.8,169.954,496,169.954z"/>
	<path style="fill:#324654;" d="M380,373.954H252c-4.4,0-8-3.6-8-8s3.6-8,8-8h128c4.4,0,8,3.6,8,8S384.4,373.954,380,373.954z"/>
</g>
</svg>