<?xml version="1.0" encoding="iso-8859-1"?>
<!-- Uploaded to: SVG Repo, www.svgrepo.com, Generator: SVG Repo Mixer Tools -->
<svg version="1.1" id="Layer_1" xmlns="http://www.w3.org/2000/svg" xmlns:xlink="http://www.w3.org/1999/xlink" 
	 viewBox="0 0 436.1 436.1" xml:space="preserve">
<ellipse style="opacity:0.5;fill:#B8CBCD;enable-background:new    ;" cx="216.65" cy="388.8" rx="190.7" ry="47.3"/>
<path style="fill:#B9E3ED;" d="M390.05,348c0,8.8-7.2,16-16,16h-312c-8.8,0-16-7.2-16-16V112c0-8.8,7.2-16,16-16h312
	c8.8,0,16,7.2,16,16V348z"/>
<path style="fill:#324654;" d="M374.05,376h-312c-15.4,0-28-12.6-28-28V112c0-15.4,12.6-28,28-28h312c15.4,0,28,12.6,28,28v236
	C402.05,363.4,389.45,376,374.05,376z M62.05,108c-2.2,0-4,1.8-4,4v236c0,2.2,1.8,4,4,4h312c2.2,0,4-1.8,4-4V112c0-2.2-1.8-4-4-4
	H62.05z"/>
<path style="fill:#B9E3ED;" d="M408.95,123.1c2.8,8.4-2.2,15.2-11,15.2h-360c-8.8,0-13.5-6.8-10.5-15l35-96.3c3-8.3,12.7-15,21.5-15
	h272.4c8.8,0,18.3,6.8,21,15.2L408.95,123.1z"/>
<path style="fill:#324654;" d="M397.95,150.3h-360c-8.2,0-15.3-3.5-19.5-9.5c-4.2-6.1-5.1-13.9-2.3-21.6l35-96.3
	C55.85,9.9,69.95,0,83.95,0h272.4c14.2,0,28.1,10.1,32.4,23.5l31.6,95.8c2.5,7.6,1.5,15.5-2.8,21.5
	C413.25,146.8,406.05,150.3,397.95,150.3z M39.15,126.3h358.2L365.95,31c-1.1-3.5-6-7-9.6-7H83.95c-3.8,0-8.9,3.6-10.2,7.1
	L39.15,126.3z"/>
<g>
	<path style="fill:#B9E3ED;" d="M206.05,282l94-94h42l-131,131C211.05,319,202.05,314,206.05,282z"/>
</g>
<polygon style="fill:#B9E3ED;" points="238.05,318 360.05,196 366.05,206 254.05,322 "/>
<rect x="202.05" y="176" style="fill:#FFFFFF;" width="148" height="136"/>
<path style="fill:#324654;" d="M350.05,320h-148c-4.4,0-8-3.6-8-8V176c0-4.4,3.6-8,8-8h148c4.4,0,8,3.6,8,8v136
	C358.05,316.4,354.45,320,350.05,320z M210.05,304h132V184h-132L210.05,304L210.05,304z"/>
<rect x="86.05" y="168" style="fill:#FFFFFF;" width="80" height="180"/>
<path style="fill:#324654;" d="M166.05,356h-80c-4.4,0-8-3.6-8-8V168c0-4.4,3.6-8,8-8h80c4.4,0,8,3.6,8,8v180
	C174.05,352.4,170.45,356,166.05,356z M94.05,340h64V176h-64V340z"/>
<path style="fill:#B9E3ED;" d="M22.05,132v24h0.7c0.5,26.6,22.2,48,48.9,48s45.9-21.4,46.4-48l0,0c0.5,26.6,24.7,48,51.4,48
	s48.1-22.8,48.6-49.4l0,0c0.5,26.6,22.5,49.4,49.2,49.4s50.3-21.4,50.8-48l0,0c0.5,26.6,20.4,48,47.1,48s48.4-21.4,48.9-48l0,0v-24
	H22.05z"/>
<g>
	<path style="fill:#324654;" d="M365.05,212c-15,0-28.9-5.9-39.1-16.5c-3.3-3.4-6.1-7.2-8.4-11.3c-2.6,4.2-5.9,8.1-9.6,11.6
		c-11.2,10.5-25.6,16.2-40.7,16.2c-15,0-29.3-6.1-40.1-17.1c-3.5-3.6-6.5-7.5-9-11.7c-9.9,17.2-28.1,28.8-48.7,28.8
		c-21,0-40.1-11.3-50.7-27.8c-9.3,16.9-26.6,27.8-47.1,27.8c-15,0-29.2-5.8-39.9-16.3c-9.8-9.7-15.7-22.4-16.8-36
		c-0.6-1.1-0.9-2.3-0.9-3.7v-24c0-4.4,3.6-8,8-8h392c4.4,0,8,3.6,8,8v24c0,0.4,0,0.7-0.1,1.1c-0.5,14.6-6.5,28.3-17,38.6
		C394.25,206.2,380.15,212,365.05,212z M318.05,148c4.4,0,7.9,3.5,8,7.9c0.4,22.9,17.2,40.1,39.1,40.1c22.1,0,40.5-18,40.9-40.1
		c0-0.2,0-0.5,0-0.7V140h-376v12.7c0.4,1,0.7,2,0.7,3.2c0.4,22.1,18.7,40.1,40.9,40.1c21.5,0,38-17.3,38.4-40.1
		c0.1-4.4,3.6-7.9,8-7.9s7.9,3.5,8,7.9c0.4,21.8,20.3,40.1,43.4,40.1c22,0,40.2-18.6,40.6-41.5c0.1-4.4,3.6-7.9,8-7.9s7.9,3.5,8,7.9
		c0.4,22.5,19.3,41.5,41.2,41.5c22.8,0,42.4-18.4,42.8-40.1C310.15,151.5,313.65,148,318.05,148z"/>
	<path style="fill:#324654;" d="M218.05,161.1c-4.4,0-8-3.6-8-8V12c0-4.4,3.6-8,8-8s8,3.6,8,8v141.1
		C226.05,157.6,222.45,161.1,218.05,161.1z"/>
	<path style="fill:#324654;" d="M318.05,164.9c-4.4,0-8-3.6-8-8v-28.2l-27.8-114.8c-1-4.3,1.6-8.6,5.9-9.7c4.3-1,8.6,1.6,9.7,5.9
		l28,115.7c0.1,0.6,0.2,1.2,0.2,1.9v29.1C326.05,161.3,322.45,164.9,318.05,164.9z"/>
	<path style="fill:#324654;" d="M118.05,176c-4.4,0-8-3.6-8-8v-40.3c0-0.7,0.1-1.4,0.3-2.1l32-115.7c1.2-4.3,5.6-6.8,9.8-5.6
		c4.3,1.2,6.8,5.6,5.6,9.8l-31.7,114.7V168C126.05,172.4,122.45,176,118.05,176z"/>
</g>
<rect x="22.05" y="348" style="fill:#B9E3ED;" width="392" height="44"/>
<g>
	<path style="fill:#324654;" d="M414.05,400h-392c-4.4,0-8-3.6-8-8v-44c0-4.4,3.6-8,8-8h392c4.4,0,8,3.6,8,8v44
		C422.05,396.4,418.45,400,414.05,400z M30.05,384h376v-28h-376L30.05,384L30.05,384z"/>
	<path style="fill:#324654;" d="M414.05,400.1h-392c-6.6,0-12-5.4-12-12v-44c0-6.6,5.4-12,12-12h12V207.8
		c-13.4-11.6-22.9-32-23.3-51.5l-0.7-23.9c0-1.6,0.2-3.2,0.8-4.6l40.3-105C55.95,9.8,70.05,0,83.85,0h272.5c14,0,27.9,10,32.4,23.3
		l36.6,104.7c0.4,1.3,0.7,2.6,0.7,4v24c0,0.1,0,0.2,0,0.3c-0.5,20.1-10.1,40.4-24,51.9v123.9h12c6.6,0,12,5.4,12,12v44
		C426.05,394.7,420.65,400.1,414.05,400.1z M34.05,376.1h368v-20h-12c-6.6,0-12-5.4-12-12V202c0-4.2,2.2-8.1,5.9-10.3
		c9.8-5.8,17.8-21.6,18.1-35.8V134l-36-102.9c0-0.1,0-0.1-0.1-0.2c-1.2-3.5-6-7-9.6-7H83.85c-3.7,0-9,3.7-10.2,7.1
		c0,0.1,0,0.1-0.1,0.2l-39.4,102.9l0.6,21.6v0.1c0.2,14.1,8,29.8,17.6,35.8c3.5,2.2,5.7,6,5.7,10.2v142.3c0,6.6-5.4,12-12,12h-12
		V376.1z"/>
	<circle style="fill:#324654;" cx="142.05" cy="264" r="8"/>
</g>
</svg>