<?xml version="1.0" encoding="iso-8859-1"?>
<!-- Uploaded to: SVG Repo, www.svgrepo.com, Generator: SVG Repo Mixer Tools -->
<svg height="800px" width="800px" version="1.1" id="Layer_1" xmlns="http://www.w3.org/2000/svg" xmlns:xlink="http://www.w3.org/1999/xlink" 
	 viewBox="0 0 428.4 428.4" xml:space="preserve">
<ellipse style="opacity:0.5;fill:#B8CBCD;enable-background:new    ;" cx="214.2" cy="381.1" rx="190.7" ry="47.3"/>
<path style="fill:#FFBAB0;" d="M76.9,66.5L58,352.4c-0.6,8.8,6.1,16,14.9,16h291.4c8.8,0,15.4-7.2,14.7-16L356.3,62.3"/>
<path style="fill:#783741;" d="M364.3,380.4H72.9c-7.6,0-14.6-3-19.7-8.5s-7.7-12.7-7.1-20.3L64.9,65.7c0.4-6.6,6.1-11.6,12.8-11.2
	c6.6,0.4,11.6,6.2,11.2,12.8L70,353.2c-0.1,1.2,0.4,1.9,0.7,2.3c0.4,0.4,1.1,0.9,2.2,0.9h291.4c0.9,0,1.6-0.3,2.1-0.8
	c0.4-0.4,0.8-1.1,0.7-2.2L344.4,63.3c-0.5-6.6,4.4-12.4,11-12.9s12.4,4.4,12.9,11L391,351.5c0.6,7.5-1.9,15-7,20.4
	C378.9,377.4,371.9,380.4,364.3,380.4z"/>
<circle style="fill:#FFFFFF;" cx="148.9" cy="132.3" r="28"/>
<path style="fill:#783741;" d="M148.9,168.3c-19.9,0-36-16.1-36-36s16.1-36,36-36s36,16.1,36,36S168.8,168.3,148.9,168.3z
	 M148.9,112.3c-11,0-20,9-20,20s9,20,20,20s20-9,20-20S159.9,112.3,148.9,112.3z"/>
<circle style="fill:#FFFFFF;" cx="280.9" cy="132.3" r="28"/>
<g>
	<path style="fill:#783741;" d="M280.9,168.3c-19.9,0-36-16.1-36-36s16.1-36,36-36s36,16.1,36,36S300.8,168.3,280.9,168.3z
		 M280.9,112.3c-11,0-20,9-20,20s9,20,20,20s20-9,20-20S291.9,112.3,280.9,112.3z"/>
	<path style="fill:#783741;" d="M214.9,278.3c-40.8,0-74-33.2-74-74v-68c0-4.4,3.6-8,8-8s8,3.6,8,8v68c0,32,26,58,58,58s58-26,58-58
		v-68c0-4.4,3.6-8,8-8s8,3.6,8,8v68C288.9,245.1,255.7,278.3,214.9,278.3z"/>
	<polygon style="opacity:0.2;fill:#783741;enable-background:new    ;" points="116.9,64.3 100.9,364.3 52.9,360.3 76.9,64.3 	"/>
</g>
<path style="fill:#FFBAB0;" d="M356.9,64.3l-17.1-44.9c-1.6-4.1-6.5-7.5-10.9-7.5h-220c-4.4,0-9.5,3.3-11.3,7.3L76.9,64.3"/>
<g>
	<path style="fill:#783741;" d="M356.9,76.3c-4.8,0-9.4-2.9-11.2-7.7l-16.9-44.4c-0.1-0.1-0.2-0.2-0.3-0.2H109.2
		c-0.3,0.1-0.6,0.3-0.8,0.5L87.8,69.4c-2.8,6-9.9,8.7-15.9,5.9s-8.7-9.9-5.9-15.9l20.7-45.1C90.4,6.1,99.8,0,108.9,0h220
		c9.4,0,18.7,6.4,22.1,15.1l17.1,45c2.4,6.2-0.8,13.1-6.9,15.5C359.8,76,358.3,76.3,356.9,76.3z"/>
	<path style="fill:#783741;" d="M356.9,72.3h-280c-4.4,0-8-3.6-8-8s3.6-8,8-8h280c4.4,0,8,3.6,8,8C364.9,68.7,361.3,72.3,356.9,72.3
		z"/>
</g>
</svg>