<?xml version="1.0" encoding="iso-8859-1"?>
<!-- Uploaded to: SVG Repo, www.svgrepo.com, Generator: SVG Repo Mixer Tools -->
<svg version="1.1" id="Layer_1" xmlns="http://www.w3.org/2000/svg" xmlns:xlink="http://www.w3.org/1999/xlink" 
	 viewBox="0 0 492.03 492.03" xml:space="preserve">
<path style="fill:#84C671;" d="M459.6,106.794c-2-3.9-7.2-7.2-11.6-7.2H48c-4.4,0-9.8,3.1-12,6.9l-24,41.4l468,0.1L459.6,106.794z"
	/>
<path style="fill:#3C663E;" d="M480,159.994c-4.4,0-8.7-2.4-10.8-6.7l-20.2-40.9c-0.3-0.3-0.9-0.7-1.3-0.8H48.2
	c-0.5,0.1-1.5,0.7-1.9,1.1l-23.9,41.3c-3.3,5.7-10.7,7.7-16.4,4.4s-7.7-10.7-4.4-16.4l24-41.4c4.3-7.5,13.7-12.9,22.4-12.9h400
	c8.8,0,18.2,5.8,22.3,13.7c0,0.1,0.1,0.1,0.1,0.2l20.4,41.2c2.9,5.9,0.5,13.1-5.4,16.1C483.6,159.594,481.8,159.994,480,159.994z"/>
<ellipse style="opacity:0.5;fill:#B8CBCD;enable-background:new    ;" cx="245.3" cy="432.794" rx="190.7" ry="47.3"/>
<polygon style="fill:#B2EDA6;" points="400,419.994 92,419.994 44,179.994 448,179.994 "/>
<rect x="56" y="203.994" style="fill:#84C671;" width="380" height="32"/>
<polygon style="fill:#B2EDA6;" points="12,151.994 12,207.994 49.6,207.994 92,419.994 400,419.994 442.4,207.994 480,207.994 
	480,151.994 "/>
<rect x="60.2" y="211.994" style="fill:#84C671;" width="375.8" height="32"/>
<g>
	<path style="fill:#3C663E;" d="M164,183.994c-1.4,0-2.8-0.3-4.2-0.8c-6.2-2.3-9.3-9.3-7-15.5l56-148c2.3-6.2,9.3-9.3,15.5-7
		s9.3,9.3,7,15.5l-56,148C173.4,180.994,168.8,183.994,164,183.994z"/>
	<path style="fill:#3C663E;" d="M336,183.994c-4.8,0-9.4-3-11.2-7.8l-56-148c-2.3-6.2,0.8-13.1,7-15.5c6.2-2.3,13.1,0.8,15.5,7
		l56,148c2.3,6.2-0.8,13.1-7,15.5C338.8,183.794,337.4,183.994,336,183.994z"/>
</g>
<path style="fill:#FFFFFF;" d="M134,355.994L134,355.994c-9.9,0-18-8.1-18-18v-52c0-9.9,8.1-18,18-18l0,0c9.9,0,18,8.1,18,18v52
	C152,347.894,143.9,355.994,134,355.994z"/>
<path style="fill:#3C663E;" d="M134,363.994c-14.3,0-26-11.7-26-26v-52c0-14.3,11.7-26,26-26s26,11.7,26,26v52
	C160,352.394,148.3,363.994,134,363.994z M134,275.994c-5.5,0-10,4.5-10,10v52c0,5.5,4.5,10,10,10s10-4.5,10-10v-52
	C144,280.494,139.5,275.994,134,275.994z"/>
<path style="fill:#FFFFFF;" d="M210,355.994L210,355.994c-9.9,0-18-8.1-18-18v-52c0-9.9,8.1-18,18-18l0,0c9.9,0,18,8.1,18,18v52
	C228,347.894,219.9,355.994,210,355.994z"/>
<path style="fill:#3C663E;" d="M210,363.994c-14.3,0-26-11.7-26-26v-52c0-14.3,11.7-26,26-26s26,11.7,26,26v52
	C236,352.394,224.3,363.994,210,363.994z M210,275.994c-5.5,0-10,4.5-10,10v52c0,5.5,4.5,10,10,10s10-4.5,10-10v-52
	C220,280.494,215.5,275.994,210,275.994z"/>
<path style="fill:#FFFFFF;" d="M286,355.994L286,355.994c-9.9,0-18-8.1-18-18v-52c0-9.9,8.1-18,18-18l0,0c9.9,0,18,8.1,18,18v52
	C304,347.894,295.9,355.994,286,355.994z"/>
<path style="fill:#3C663E;" d="M286,363.994c-14.3,0-26-11.7-26-26v-52c0-14.3,11.7-26,26-26s26,11.7,26,26v52
	C312,352.394,300.3,363.994,286,363.994z M286,275.994c-5.5,0-10,4.5-10,10v52c0,5.5,4.5,10,10,10s10-4.5,10-10v-52
	C296,280.494,291.5,275.994,286,275.994z"/>
<path style="fill:#FFFFFF;" d="M362,355.994L362,355.994c-9.9,0-18-8.1-18-18v-52c0-9.9,8.1-18,18-18l0,0c9.9,0,18,8.1,18,18v52
	C380,347.894,371.9,355.994,362,355.994z"/>
<g>
	<path style="fill:#3C663E;" d="M362,363.994c-14.3,0-26-11.7-26-26v-52c0-14.3,11.7-26,26-26s26,11.7,26,26v52
		C388,352.394,376.3,363.994,362,363.994z M362,275.994c-5.5,0-10,4.5-10,10v52c0,5.5,4.5,10,10,10s10-4.5,10-10v-52
		C372,280.494,367.5,275.994,362,275.994z"/>
	<rect x="40" y="195.994" style="fill:#3C663E;" width="416" height="16"/>
	<rect x="4" y="135.994" style="fill:#3C663E;" width="484" height="16"/>
	<path style="fill:#3C663E;" d="M400,431.994H92c-5.7,0-10.6-4-11.8-9.6l-40.4-202.4H12c-6.6,0-12-5.4-12-12v-56c0-6.6,5.4-12,12-12
		s12,5.4,12,12v44h25.6c5.7,0,10.6,4,11.8,9.6l40.5,202.4h288.3l40.5-202.4c1.1-5.6,6-9.6,11.8-9.6H468v-44c0-6.6,5.4-12,12-12
		s12,5.4,12,12v56c0,6.6-5.4,12-12,12h-27.8l-40.5,202.4C410.6,427.994,405.7,431.994,400,431.994z"/>
</g>
</svg>