<?xml version="1.0" encoding="iso-8859-1"?>
<!-- Uploaded to: SVG Repo, www.svgrepo.com, Generator: SVG Repo Mixer Tools -->
<svg version="1.1" id="Layer_1" xmlns="http://www.w3.org/2000/svg" xmlns:xlink="http://www.w3.org/1999/xlink" 
	 viewBox="0 0 474.6 474.6" xml:space="preserve">
<ellipse style="opacity:0.5;fill:#B8CBCD;enable-background:new    ;" cx="237.3" cy="427.3" rx="190.7" ry="47.3"/>
<path style="fill:#B9E3ED;" d="M372,388c0,22-18,40-40,40H144c-22,0-40-18-40-40V52c0-22,18-40,40-40h188c22,0,40,18,40,40V388z"/>
<g>
	<path style="fill:#324654;" d="M332,440H144c-28.7,0-52-23.3-52-52V52c0-28.7,23.3-52,52-52h188c28.7,0,52,23.3,52,52v336
		C384,416.7,360.7,440,332,440z M144,24c-15.4,0-28,12.6-28,28v336c0,15.4,12.6,28,28,28h188c15.4,0,28-12.6,28-28V52
		c0-15.4-12.6-28-28-28H144z"/>
	<circle style="fill:#324654;" cx="236" cy="384" r="16"/>
</g>
<g>
	<rect x="148" y="56" style="fill:#FFFFFF;" width="180" height="288"/>
	<polygon style="fill:#FFFFFF;" points="180,112 180,236 212,236 240,264 268,236 296,236 296,112 	"/>
</g>
<g>
	<path style="fill:#324654;" d="M240,272c-2,0-4.1-0.8-5.7-2.3L208.7,244H180c-4.4,0-8-3.6-8-8V112c0-4.4,3.6-8,8-8h116
		c4.4,0,8,3.6,8,8v124c0,4.4-3.6,8-8,8h-24.7l-25.7,25.7C244.1,271.2,242,272,240,272z M188,228h24c2.1,0,4.2,0.8,5.7,2.3l22.3,22.3
		l22.3-22.3c1.5-1.5,3.5-2.3,5.7-2.3h20V120H188V228z"/>
	<path style="fill:#324654;" d="M239.2,217.3c-14.9,0-23.9-8.6-24.9-9.5l11.3-11.3c0.1,0.1,5.2,4.9,13.5,4.9
		c8.3,0,12.8-4.5,12.8-6.4c0-3.8-6.4-6.2-15.5-9.2c-10.3-3.4-24.5-8.1-24.5-22c0-13.4,10-22.4,24.8-22.4c11.7,0,20.3,5.5,21.2,6.1
		c3.7,2.4,4.7,7.4,2.2,11.1c-2.4,3.7-7.4,4.7-11,2.3c-0.2-0.1-5.6-3.5-12.4-3.5c-8.8,0-8.8,4.6-8.8,6.4c0,2.3,8.5,5.1,13.5,6.8
		c11.2,3.7,26.5,8.7,26.5,24.4C268,207.3,255.1,217.3,239.2,217.3z"/>
	<path style="fill:#324654;" d="M240,228c-2.2,0-4-1.8-4-4v-92c0-2.2,1.8-4,4-4s4,1.8,4,4v92C244,226.2,242.2,228,240,228z"/>
</g>
<path style="fill:#6299B7;" d="M150,338h-4V56c0-1.1,0.9-2,2-2h174v4H150V338z"/>
</svg>