<?xml version="1.0" encoding="utf-8"?>
<!-- Uploaded to: SVG Repo, www.svgrepo.com, Generator: SVG Repo Mixer Tools -->
<svg width="800px" height="800px" viewBox="0 0 1024 1024" class="icon"  version="1.1" xmlns="http://www.w3.org/2000/svg"><path d="M264 267.6c-5 0-7.5-3-12.7-10.2-5.1-7.2-12-17-25.7-17s-20.7 9.8-25.7 17c-5.1 7.3-7.7 10.2-12.7 10.2-5 0-7.5-3-12.7-10.2-5.1-7.2-12-17-25.7-17s-20.7 9.8-25.7 17c-5.1 7.3-7.7 10.2-12.7 10.2s-7.5-3-12.7-10.2c-5.1-7.2-12-17-25.7-17-4.4 0-8 3.6-8 8s3.6 8 8 8c5 0 7.5 3 12.7 10.2 5.1 7.2 12 17 25.7 17s20.7-9.8 25.7-17c5.1-7.3 7.7-10.2 12.7-10.2s7.5 3 12.7 10.2c5.1 7.2 12 17 25.7 17 13.8 0 20.7-9.8 25.7-17 5.1-7.3 7.7-10.2 12.7-10.2s7.5 3 12.7 10.2c5.1 7.2 12 17 25.7 17 4.4 0 8-3.6 8-8s-3.6-8-8-8zM72 206.4c5 0 7.5 3 12.7 10.2 5.1 7.2 12 17 25.7 17s20.7-9.8 25.7-17c5.1-7.3 7.7-10.2 12.7-10.2s7.5 3 12.7 10.2c5.1 7.2 12 17 25.7 17 13.8 0 20.7-9.8 25.7-17 5.1-7.3 7.7-10.2 12.7-10.2s7.5 3 12.7 10.2c5.1 7.2 12 17 25.7 17 4.4 0 8-3.6 8-8s-3.6-8-8-8c-5 0-7.5-3-12.7-10.2-5.1-7.2-12-17-25.7-17s-20.7 9.8-25.7 17c-5.1 7.3-7.7 10.2-12.7 10.2-5 0-7.5-3-12.7-10.2-5.1-7.2-12-17-25.7-17s-20.7 9.8-25.7 17c-5.1 7.3-7.7 10.2-12.7 10.2s-7.5-3-12.7-10.2c-5.1-7.2-12-17-25.7-17-4.4 0-8 3.6-8 8s3.6 8 8 8z" fill="#9A2D2F" /><path d="M343 104m-32 0a32 32 0 1 0 64 0 32 32 0 1 0-64 0Z" fill="#FFEB4D" /><path d="M343 144c-22.1 0-40-17.9-40-40s17.9-40 40-40 40 17.9 40 40-17.9 40-40 40z m0-64c-13.2 0-24 10.8-24 24s10.8 24 24 24 24-10.8 24-24-10.8-24-24-24z" fill="#9A2D2F" /><path d="M908 951H118L522.7 81z" fill="#E895AF" /><path d="M798 951H118L522.7 81z" fill="#FFACC2" /><path d="M590.8 297L522.4 81 422 297l80.1-27 19.7 27z" fill="#FFFFFF" /><path d="M952 687.6c-5 0-7.5-3-12.7-10.2-5.1-7.2-12-17-25.7-17s-20.7 9.8-25.7 17c-5.1 7.3-7.7 10.2-12.7 10.2-5 0-7.5-3-12.7-10.2-5.1-7.2-12-17-25.7-17s-20.7 9.8-25.7 17c-4.5 6.4-7.1 9.5-11 10.1L782.6 648c4 3.2 9.1 5.6 15.8 5.6 13.8 0 20.7-9.8 25.7-17 5.1-7.3 7.7-10.2 12.7-10.2s7.5 3 12.7 10.2c5.1 7.2 12 17 25.7 17 13.8 0 20.7-9.8 25.7-17 5.1-7.3 7.7-10.2 12.7-10.2s7.5 3 12.7 10.2c5.1 7.2 12 17 25.7 17 4.4 0 8-3.6 8-8s-3.6-8-8-8c-5 0-7.5-3-12.7-10.2-5.1-7.2-12-17-25.7-17s-20.7 9.8-25.7 17c-5.1 7.3-7.7 10.2-12.7 10.2-5 0-7.5-3-12.7-10.2-5.1-7.2-12-17-25.7-17s-20.7 9.8-25.7 17c-5.1 7.3-7.7 10.2-12.7 10.2-5 0-7.5-3-12.7-10.2-4.2-6-9.8-13.9-19.5-16.3L530 77.8c0-0.1-0.1-0.1-0.1-0.2s-0.1-0.2-0.2-0.3c-0.1-0.2-0.3-0.5-0.4-0.7-0.1-0.1-0.1-0.2-0.2-0.3-0.2-0.2-0.3-0.4-0.5-0.6l-0.3-0.3c-0.2-0.2-0.4-0.4-0.6-0.5-0.1-0.1-0.2-0.2-0.3-0.2-0.2-0.1-0.4-0.3-0.6-0.4-0.1-0.1-0.3-0.1-0.4-0.2l-0.6-0.3c-0.1-0.1-0.3-0.1-0.4-0.2-0.2-0.1-0.4-0.1-0.7-0.2-0.2 0-0.3-0.1-0.5-0.1s-0.5-0.1-0.7-0.1h-0.7-1.1c-0.2 0-0.4 0.1-0.6 0.1-0.1 0-0.3 0-0.4 0.1-2.4 0.5-4.5 2.1-5.6 4.4L414.8 293.6c-0.2 0.5-0.4 1-0.5 1.5L112.9 943H102c-4.4 0-8 3.6-8 8s3.6 8 8 8h824c4.4 0 8-3.6 8-8s-3.6-8-8-8h-12.8L806.6 702.3c8.5-2.9 13.6-10.1 17.5-15.7 5.1-7.3 7.7-10.2 12.7-10.2s7.5 3 12.7 10.2c5.1 7.2 12 17 25.7 17 13.8 0 20.7-9.8 25.7-17 5.1-7.3 7.7-10.2 12.7-10.2s7.5 3 12.7 10.2c5.1 7.2 12 17 25.7 17 4.4 0 8-3.6 8-8s-3.6-8-8-8zM521.1 103.3L579.9 289h-54l-17.3-23.7c-2.1-2.8-5.7-4-9-2.9l-62.2 21 83.7-180.1zM130.6 943l297.5-639.6 71.1-23.9 16.2 22.2c1.5 2.1 3.9 3.3 6.5 3.3h63.3l201.9 638H130.6z m673.3 0l-230-726.5L895.7 943h-91.8z" fill="#9A2D2F" /><path d="M672 950.5H118l283.8-609z" fill="#DAE5FF" /><path d="M594 950.5H118l283.3-609z" fill="#CAE8FF" /><path d="M449 492.5l-47.8-151-70.2 151 56-18.9 13.8 18.9z" fill="#FFFFFF" /><path d="M679.3 947.3l-270.2-609c-1.3-2.9-4.1-4.7-7.2-4.8h-0.3-1.1c-2.8 0.2-5.4 2-6.6 4.6l-70.2 151c0 0.1 0 0.1-0.1 0.2L110.8 947.1c-0.7 1.5-0.9 3.2-0.6 4.9 0 0.2 0.1 0.5 0.2 0.7 0 0.1 0 0.2 0.1 0.3 0 0.1 0.1 0.2 0.1 0.3 0.2 0.5 0.4 1 0.7 1.5 1.1 1.7 2.8 2.9 4.7 3.4 0.1 0 0.2 0 0.4 0.1 0.5 0.1 1.1 0.2 1.6 0.2h554c2.7 0 5.2-1.4 6.7-3.6 1.5-2.3 1.7-5.2 0.6-7.6zM400 364.2l38.1 120.3h-33.2l-11.4-15.6c-2.1-2.8-5.7-4-9-2.9l-37.8 12.8L400 364.2zM130.6 942.5l206.7-443.7 46.7-15.7 10.3 14.1c1.5 2.1 3.9 3.3 6.5 3.3h42.4l139.9 442H130.6z m469.3 0L451 472.2l208.7 470.3h-59.8z" fill="#9A2D2F" /><path d="M256.6 634.1L110.5 870.5c16.7-10.8 32.3-17.5 46.6-22.8l99.5-213.6zM232.5 803c20-37.3 8.5-116 60.5-149.5 38-24.5 48-62.5 48-88.5 0-18.9-7-35.5-13.9-44.3l-149 319.8c23.8-8.1 42.5-15.3 54.4-37.5z" fill="#FFFFFF" /></svg>