<?xml version="1.0" encoding="utf-8"?>
<!-- Uploaded to: SVG Repo, www.svgrepo.com, Generator: SVG Repo Mixer Tools -->
<svg width="800px" height="800px" viewBox="0 0 1024 1024" class="icon"  version="1.1" xmlns="http://www.w3.org/2000/svg"><path d="M948.7 703c-13.8 0-20.7-9.8-25.7-17-5.1-7.3-7.7-10.2-12.7-10.2s-7.5 3-12.7 10.2c-5.1 7.2-12 17-25.7 17s-20.7-9.8-25.7-17c-5.1-7.3-7.7-10.2-12.7-10.2-5 0-7.5 3-12.7 10.2-5.1 7.2-12 17-25.7 17-13.8 0-20.7-9.8-25.7-17-5.1-7.3-7.7-10.2-12.7-10.2-4.4 0-8-3.6-8-8s3.6-8 8-8c13.8 0 20.7 9.8 25.7 17 5.1 7.3 7.7 10.2 12.7 10.2 5 0 7.5-3 12.7-10.2 5.1-7.2 12-17 25.7-17 13.8 0 20.7 9.8 25.7 17 5.1 7.3 7.7 10.2 12.7 10.2 5 0 7.5-3 12.7-10.2 5.1-7.2 12-17 25.7-17s20.7 9.8 25.7 17c5.1 7.3 7.7 10.2 12.7 10.2 4.4 0 8 3.6 8 8s-3.6 8-8 8zM948.7 653c-13.8 0-20.7-9.8-25.7-17-5.1-7.3-7.7-10.2-12.7-10.2s-7.5 3-12.7 10.2c-5.1 7.2-12 17-25.7 17s-20.7-9.8-25.7-17c-5.1-7.3-7.7-10.2-12.7-10.2-5 0-7.5 3-12.7 10.2-5.1 7.2-12 17-25.7 17-13.8 0-20.7-9.8-25.7-17-5.1-7.3-7.7-10.2-12.7-10.2-4.4 0-8-3.6-8-8s3.6-8 8-8c13.8 0 20.7 9.8 25.7 17 5.1 7.3 7.7 10.2 12.7 10.2 5 0 7.5-3 12.7-10.2 5.1-7.2 12-17 25.7-17 13.8 0 20.7 9.8 25.7 17 5.1 7.3 7.7 10.2 12.7 10.2 5 0 7.5-3 12.7-10.2 5.1-7.2 12-17 25.7-17s20.7 9.8 25.7 17c5.1 7.3 7.7 10.2 12.7 10.2 4.4 0 8 3.6 8 8s-3.6 8-8 8z" fill="#9A2D2F" /><path d="M349.7 103.3m-32 0a32 32 0 1 0 64 0 32 32 0 1 0-64 0Z" fill="#FFEB4D" /><path d="M349.7 143.3c-22.1 0-40-17.9-40-40s17.9-40 40-40 40 17.9 40 40-17.9 40-40 40z m0-64c-13.2 0-24 10.8-24 24s10.8 24 24 24 24-10.8 24-24-10.7-24-24-24z" fill="#9A2D2F" /><path d="M342.2 394.8L94.7 351.5l429-215.7 397 177.3-194 81.7z" fill="#FFACC2" /><path d="M239.7 324.6c55-1.9 96.1-18.5 133.1-68.5 48.5-65.5 150.7-111.6 150.7-111.6l-404 203.1 66.1 11.6c11-14.1 25.8-33.6 54.1-34.6z" fill="#FFFFFF" /><path d="M341.7 394.8l181.2-259 202.8 259z" fill="#FFEB4D" /><path d="M523.7 135.8l396.9 177.3-194 81.7z" fill="#C0FCD0" /><path d="M653.7 949.3c-51.3-56.5-125.2-92-207.5-92s-156.2 35.5-207.5 92h415z" fill="#FFFFFF" /><path d="M845.7 950.3s-85.9-104-167.7-129c-82.8-25.3-154.7 23.1-227.8-0.8-101.4-33.3-194.9-186.1-194.9-186.1h-52.6s102.9 178.8 208.2 215.4c66.5 23.1 167.7-13.6 236.7 0.4 57.6 11.8 132.8 100.1 132.8 100.1h65.3z" fill="#DAE5FF" /><path d="M69.7 203.6c5 0 7.5 3 12.7 10.2 5.1 7.2 12 17 25.7 17s20.7-9.8 25.7-17c5.1-7.3 7.7-10.2 12.7-10.2s7.5 3 12.7 10.2c5.1 7.2 12 17 25.7 17 13.8 0 20.7-9.8 25.7-17 5.1-7.3 7.7-10.2 12.7-10.2 5 0 7.5 3 12.7 10.2 5.1 7.2 12 17 25.7 17 4.4 0 8-3.6 8-8s-3.6-8-8-8c-5 0-7.5-3-12.7-10.2-5.1-7.2-12-17-25.7-17s-20.7 9.8-25.7 17c-5.1 7.3-7.7 10.2-12.7 10.2-5 0-7.5-3-12.7-10.2-5.1-7.2-12-17-25.7-17s-20.7 9.8-25.7 17c-5.1 7.3-7.7 10.2-12.7 10.2s-7.5-3-12.7-10.2c-5.1-7.2-12-17-25.7-17-4.4 0-8 3.6-8 8s3.5 8 8 8z" fill="#9A2D2F" /><path d="M923.7 941.3h-75.1c-16.8-19.6-93.2-104.7-168.2-127.7-44-13.5-84.3-7-123.3-0.8-8.5 1.4-17 2.7-25.3 3.8V402.8h195.8c0.1 0 0.2 0 0.4-0.1 0.1 0 0.3 0 0.4-0.1 0.5-0.1 1-0.3 1.5-0.5l194-81.7c2.9-1.2 4.9-4.1 4.9-7.3s-1.8-6.1-4.7-7.4l-397-177.3s-0.1 0-0.1-0.1c-0.2-0.1-0.4-0.2-0.6-0.2-0.1 0-0.2-0.1-0.3-0.1-0.2-0.1-0.3-0.1-0.5-0.1-0.1 0-0.2 0-0.3-0.1-0.2 0-0.5-0.1-0.7-0.1H522.9c-2 0.1-3.8 0.8-5.2 2.1L245.1 267c-1.4-1.3-3.3-2-5.3-2-3.7 0-5.9-3-10.2-9.9-4.6-7.3-10.9-17.4-23.8-17.4s-19.2 10.1-23.8 17.4c-4.3 6.9-6.5 9.9-10.2 9.9-3.7 0-5.9-3-10.2-9.9-4.6-7.3-10.9-17.4-23.8-17.4s-19.2 10.1-23.8 17.4c-4.3 6.9-6.5 9.9-10.2 9.9s-5.9-3-10.2-9.9c-4.6-7.3-10.9-17.4-23.8-17.4-4.4 0-8 3.6-8 8s3.6 8 8 8c3.7 0 5.9 3 10.2 9.9 4.6 7.3 10.9 17.4 23.8 17.4s19.2-10.1 23.8-17.4c4.3-6.9 6.5-9.9 10.2-9.9s5.9 3 10.2 9.9c4.6 7.3 10.9 17.4 23.8 17.4s19.2-10.1 23.8-17.4c4.3-6.9 6.5-9.9 10.2-9.9s5.9 3 10.2 9.9c2.6 4.2 5.8 9.3 10.4 12.9l-135.3 68c-3.1 1.5-4.8 4.9-4.3 8.3 0.5 3.4 3.1 6.1 6.5 6.7l245.9 43c0.8 0.2 1.6 0.4 2.4 0.4h174v413.6c0 0.7 0.1 1.3 0.3 1.9-21.4 1.9-42.4 1.3-63.2-5.5-40-13.1-85.5-48.7-131.7-102.9-35.3-41.4-58.6-79.4-58.9-79.7-1.5-2.4-4-3.8-6.8-3.8h-52.6c-2.9 0-5.5 1.5-6.9 4-1.4 2.5-1.4 5.5 0 8 0.3 0.5 26.5 45.8 65.2 94.9 25.3 32.1 49.9 58.4 73.7 78.8l-50.6 87.1c-17.7 12.1-34.1 26.2-48.9 42.1H99.7c-4.4 0-8 3.6-8 8s3.6 8 8 8h676.8c1.2 0.6 2.5 1 3.9 1h65.4c1.4 0 2.7-0.4 3.8-1h74.2c4.4 0 8-3.6 8-8s-3.7-8.1-8.1-8.1z m-23.2-628.4l-171.4 72.2-179.2-228.8 350.6 156.6zM338.1 386l-218.2-38.2 377.9-190L338.1 386z m18.9 0.8l166.3-237.6 185.9 237.6H357z m-9.8 435.6c4.6 3.6 9.2 7 13.8 10.2l-21.4 37.1c-4.1 1.6-8.2 3.3-12.2 5.2-5.1 2.3-10.1 4.8-15 7.3l34.8-59.8z m-89.6 118.9c22.4-21.6 48.1-39 76.5-51.9 35.3-16 73-24.1 112.1-24.1s76.8 8.1 112.1 24.1c28.5 12.9 54.1 30.3 76.5 51.9H257.6z m105.2-79.7l11.7-20.3c8 4.8 15.8 8.8 23.5 12.1-11.9 1.9-23.6 4.7-35.2 8.2z m294.3 79.7c-26.2-28.2-57.3-50.6-92.3-66.5-11.8-5.3-23.8-9.8-36-13.5l11.1-1.2c38.9-4.3 75.7-8.3 106-2.1 40.6 8.3 91.9 58.3 115.4 83.3H657.1z m126 0c-15.5-17.5-80.6-88.1-133.9-99-32.8-6.7-72.5-2.3-111 1.9-44.4 4.9-90.3 9.9-124.7-2-85.7-29.8-171.6-159.5-196.6-199.9h34c6.9 10.8 27.9 42.6 57.8 77.8 48.8 57.4 95.6 93.7 139.1 107.9 37.6 12.4 75.3 6.4 111.8 0.6 37.2-5.9 75.7-12 116.1 0.3 60.7 18.6 125 83.5 151.4 112.4h-44z" fill="#9A2D2F" /></svg>