<?xml version="1.0" encoding="iso-8859-1"?>
<!-- Uploaded to: SVG Repo, www.svgrepo.com, Generator: SVG Repo Mixer Tools -->
<svg height="800px" width="800px" version="1.1" id="Layer_1" xmlns="http://www.w3.org/2000/svg" xmlns:xlink="http://www.w3.org/1999/xlink" 
	 viewBox="0 0 488 488" xml:space="preserve">
<ellipse style="opacity:0.5;fill:#B8CBCD;enable-background:new    ;" cx="190.7" cy="439.03" rx="190.7" ry="47.3"/>
<path style="fill:#FFBAB0;" d="M180.3,452.73L24.7,297.23l215-215H380c9.1,0.9,15,7,16,16v140L180.3,452.73z"/>
<path style="fill:#783741;" d="M180.3,464.73c-3.1,0-6.1-1.2-8.5-3.5L16.2,305.63c-4.7-4.7-4.7-12.3,0-17l215-215
	c2.3-2.3,5.3-3.5,8.5-3.5H380c0.4,0,0.8,0,1.2,0.1c14.6,1.5,25,11.9,26.7,26.6c0.1,0.5,0.1,0.9,0.1,1.4v140c0,3.2-1.3,6.3-3.5,8.5
	l-215.8,214.5C186.4,463.63,183.3,464.73,180.3,464.73z M41.7,297.23l138.6,138.6L384,233.23V99.03c-0.5-2.9-1.9-4.4-4.7-4.8H244.6
	L41.7,297.23z"/>
<circle style="fill:#FFFFFF;" cx="304" cy="174.23" r="28"/>
<g>
	<path style="fill:#783741;" d="M304,210.23c-19.9,0-36-16.1-36-36s16.1-36,36-36s36,16.1,36,36S323.9,210.23,304,210.23z
		 M304,154.23c-11,0-20,9-20,20s9,20,20,20s20-9,20-20S315,154.23,304,154.23z"/>
	<path style="fill:#783741;" d="M164.6,283.43c-18,0-32.6-14.6-32.6-32.6s14.6-32.6,32.6-32.6s32.6,14.6,32.6,32.6
		C197.2,268.83,182.6,283.43,164.6,283.43z M164.6,234.23c-9.2,0-16.6,7.5-16.6,16.6c0,9.2,7.5,16.6,16.6,16.6s16.6-7.5,16.6-16.6
		C181.2,241.63,173.8,234.23,164.6,234.23z"/>
	<path style="fill:#783741;" d="M231.4,350.23c-18,0-32.6-14.6-32.6-32.6s14.6-32.6,32.6-32.6s32.6,14.6,32.6,32.6
		S249.4,350.23,231.4,350.23z M231.4,301.03c-9.2,0-16.6,7.5-16.6,16.6c0,9.2,7.5,16.6,16.6,16.6s16.6-7.5,16.6-16.6
		C248,308.43,240.5,301.03,231.4,301.03z"/>
	<path style="fill:#783741;" d="M147,343.23c-2,0-4.1-0.8-5.7-2.3c-3.1-3.1-3.1-8.2,0-11.3l101.9-101.9c3.1-3.1,8.2-3.1,11.3,0
		c3.1,3.1,3.1,8.2,0,11.3l-101.8,101.8C151.1,342.43,149.1,343.23,147,343.23z"/>
	<path style="fill:#783741;" d="M312,179.43c-1.2,0-2.5-0.2-3.7-0.6c-6.3-2-9.8-8.8-7.7-15.1c7-21.4,9.4-33.9,11.8-46
		c2.9-15,5.7-29.1,16.5-56c8.8-22,21.2-38.1,37-48.1c15.4-9.7,34-13.5,55.4-11.4c45.8,4.6,66.7,44.7,66.7,80
		c0,23.8-9.2,44.4-27.3,61.3c-14.2,13.2-34,24.3-60.6,34c-6.2,2.3-13.1-0.9-15.4-7.2s0.9-13.1,7.2-15.4
		c49.9-18.1,72.1-40.5,72.1-72.7c0-17.8-9.4-52.5-45.2-56.1c-32.7-3.3-54.2,10.9-67.7,44.5c-9.9,24.9-12.4,37.3-15.2,51.8
		c-2.4,12.2-5.1,26-12.5,48.7C321.8,176.23,317.1,179.43,312,179.43z"/>
</g>
</svg>