<svg xmlns="http://www.w3.org/2000/svg" viewBox="0 0 512 512"><title>Artboard 158</title><g id="User_inside_Shiled" data-name="User inside Shiled"><path d="M386.66206,95.98157A21.1559,21.1559,0,0,0,373.82422,81.321C346.65376,70.701,273.29256,42.66667,256,42.66667S165.34624,70.701,138.17578,81.321a21.1559,21.1559,0,0,0-12.83784,14.66056l-6.03864,24.15458a94.88307,94.88307,0,0,1-62.0454,67.00144l-.0001,0a21.33333,21.33333,0,0,0-14.58713,20.23857v27.29067A234.20211,234.20211,0,0,0,230.938,464.32093L256,469.33333l25.062-5.0124a234.20212,234.20212,0,0,0,188.2713-229.65407V207.3762a21.33333,21.33333,0,0,0-14.58714-20.23858l-.00006,0a94.883,94.883,0,0,1-62.04542-67.00145Z" style="fill:#48e1f4"/><path d="M138.17578,81.32031a21.15745,21.15745,0,0,0-12.83724,14.66146l-6.03906,24.15365a94.88087,94.88087,0,0,1-62.04557,67.0013A21.33526,21.33526,0,0,0,42.66667,207.3763v27.29037A234.20207,234.20207,0,0,0,230.9375,464.32031L256,469.33333V42.66667C238.707,42.66667,165.34635,70.70052,138.17578,81.32031Z" style="fill:#48e1f4"/><path d="M239.30208,422.47917c-89.21875-17.84375-153.96875-96.83334-153.96875-187.8125V221.82292a136.8341,136.8341,0,0,0,75.35417-91.33334l3.36458-13.44791C215.9375,97.03125,246.08333,87.61458,256,85.59375c9.91667,2.03125,40.0625,11.4375,91.94792,31.44792l3.35416,13.42708a136.86125,136.86125,0,0,0,75.36459,91.35417v12.84375c0,90.97916-64.75,169.96875-153.96875,187.82291L256,425.82292Z" style="fill:#0ac"/><path d="M256,425.82292c-85.33333-20.48959-128-100.17709-128-191.15625V221.82292a136.8341,136.8341,0,0,0,75.35417-91.33334l3.36458-13.44791L256,85.59375Z" style="fill:#48e1f4"/><path d="M235.13542,464.73958a21.58565,21.58565,0,0,1-4.20834-.41666C121.84375,442.5,42.66667,345.91667,42.66667,234.66667V207.375A21.34249,21.34249,0,0,1,57.25,187.13542a94.47279,94.47279,0,0,0,62.05208-67l6.03125-24.15625a21.31193,21.31193,0,0,1,12.92709-14.69792c36.16666-14.13542,68.03125-25.59375,89.71875-32.26042A21.335,21.335,0,0,1,240.5,89.8125c-18.66667,5.72917-45.53125,15.30208-76.44792,27.21875l-3.35416,13.44792a136.88913,136.88913,0,0,1-75.36459,91.34375v12.84375c0,90.97916,64.75,169.97916,153.96875,187.82291a21.33263,21.33263,0,0,1-4.16666,42.25Z" style="fill:#91edf8"/><path d="M146.04167,122.48958a21.33893,21.33893,0,0,1-7.78125-41.20833c36.125-14.125,67.92708-25.5625,89.55208-32.20833a21.335,21.335,0,1,1,12.52083,40.79166c-20.63541,6.33334-51.36458,17.40625-86.53125,31.14584A21.2338,21.2338,0,0,1,146.04167,122.48958Z" style="fill:#bcf4f8"/><path d="M256,298.66667c-28.06982,0-56.13962,9.23335-72.06043,15.55108a21.164,21.164,0,0,0-13.27294,19.76295v7.35263A21.33334,21.33334,0,0,0,192,362.66667H320a21.33334,21.33334,0,0,0,21.33333-21.33334v-7.35264a21.164,21.164,0,0,0-13.27293-19.76294C312.13961,307.9,284.06986,298.66667,256,298.66667Z" style="fill:#bcf4f8"/><path d="M213.33333,277.33333h85.33333a0,0,0,0,1,0,0V320A42.66662,42.66662,0,0,1,256,362.66667H256A42.66662,42.66662,0,0,1,213.33333,320V277.33333A0,0,0,0,1,213.33333,277.33333Z" style="fill:#48e1f4"/><path d="M266.66667,341.33333a53.03337,53.03337,0,0,0,30.07161-9.3164A42.22974,42.22974,0,0,0,298.66667,320V277.33333H214.40885a53.34238,53.34238,0,0,0,52.25782,64Z" style="fill:#11cbe5"/><rect x="192" y="192" width="42.66667" height="42.66667" rx="21.33331" ry="21.33331" style="fill:#fcdf3f"/><rect x="277.33333" y="192" width="42.66667" height="42.66667" rx="21.33331" ry="21.33331" style="fill:#ffef7d"/><circle cx="192" cy="256" r="21.33333" style="fill:#91edf8"/><circle cx="320" cy="256" r="21.33333" style="fill:#11cbe5"/><rect x="192" y="149.33333" width="128" height="170.66667" rx="63.99994" ry="63.99994" style="fill:#91edf8"/><ellipse cx="234.66667" cy="224" rx="21.33333" ry="10.66667" style="fill:#d7f8f9"/><path d="M213.33333,192v21.33333L192,234.66667v21.33339l-21.33333-21.33339V213.33325A85.33324,85.33324,0,0,1,255.99991,128h.00018a85.33324,85.33324,0,0,1,85.33324,85.33325v21.33342L320,256.00006V234.66667l-21.33333-21.33334V192Z" style="fill:#007ca4"/><ellipse cx="213.33333" cy="170.66667" rx="25.91035" ry="15.44656" transform="translate(-58.19567 200.83656) rotate(-45)" style="fill:#0ac"/><circle cx="224" cy="245.33333" r="10.66667" style="fill:#0ac"/><circle cx="288" cy="245.33333" r="10.66667" style="fill:#0ac"/><ellipse cx="224" cy="288" rx="9.1761" ry="11.9717" transform="translate(-138.05096 242.84355) rotate(-45.01557)" style="fill:#d7f8f9"/></g></svg>