<?xml version="1.0" encoding="iso-8859-1"?>
<!-- Uploaded to: SVG Repo, www.svgrepo.com, Generator: SVG Repo Mixer Tools -->
<svg version="1.1" id="Layer_1" xmlns="http://www.w3.org/2000/svg" xmlns:xlink="http://www.w3.org/1999/xlink" 
	 viewBox="0 0 476.1 476.1" xml:space="preserve">
<path style="fill:#A8715E;" d="M404.75,188v-36c0-8.8-7.2-16-16-16h-324c-8.8,0-16,7.2-16,16v36"/>
<path style="fill:#543127;" d="M416.75,188h-24v-36c0-2.2-1.8-4-4-4h-324c-2.2,0-4,1.8-4,4v36h-24v-36c0-15.4,12.6-28,28-28h324
	c15.4,0,28,12.6,28,28V188z"/>
<rect x="80.75" y="12" style="fill:#B2EDA6;" width="168" height="308"/>
<path style="fill:#3C663E;" d="M248.75,321h-168c-0.6,0-1-0.4-1-1V12c0-0.6,0.4-1,1-1h168c0.6,0,1,0.4,1,1v308
	C249.75,320.6,249.35,321,248.75,321z M81.75,319h166V13h-166V319z"/>
<rect x="204.75" y="60" style="fill:#B2EDA6;" width="168" height="308"/>
<path style="fill:#3C663E;" d="M372.75,376h-168c-4.4,0-8-3.6-8-8V60c0-4.4,3.6-8,8-8h168c4.4,0,8,3.6,8,8v308
	C380.75,372.4,377.15,376,372.75,376z M212.75,360h152V68h-152V360z"/>
<rect x="80.75" y="132" style="opacity:0.6;fill:#9CDB8D;enable-background:new    ;" width="296" height="36"/>
<ellipse style="opacity:0.5;fill:#B8CBCD;enable-background:new    ;" cx="226.05" cy="428.8" rx="190.7" ry="47.3"/>
<path style="fill:#C79985;" d="M404.75,188c0-8.8-7.2-16-16-16h-324c-8.8,0-16,7.2-16,16v220c0,8.8,7.2,16,16,16h324
	c8.8,0,16-7.2,16-16V188z"/>
<g style="opacity:0.4;">
	<path style="fill:#543127;" d="M424.75,348c0,8.8-7.2,16-16,16h-116c-8.8,0-16-7.2-16-16v-56c0-8.8,7.2-16,16-16h116
		c8.8,0,16,7.2,16,16V348z"/>
</g>
<path style="fill:#543127;" d="M388.75,436h-324c-15.4,0-28-12.6-28-28V172h24v236c0,2.2,1.8,4,4,4h324c2.2,0,4-1.8,4-4V172h24v236
	C416.75,423.4,404.15,436,388.75,436z"/>
<path style="fill:#C79985;" d="M428.75,324c0,8.8-7.2,16-16,16h-116c-8.8,0-16-7.2-16-16v-56c0-8.8,7.2-16,16-16h116
	c8.8,0,16,7.2,16,16V324z"/>
<g>
	<path style="fill:#543127;" d="M412.75,348h-116c-13.2,0-24-10.8-24-24v-56c0-13.2,10.8-24,24-24h116c13.2,0,24,10.8,24,24v56
		C436.75,337.2,425.95,348,412.75,348z M296.75,260c-4.4,0-8,3.6-8,8v56c0,4.4,3.6,8,8,8h116c4.4,0,8-3.6,8-8v-56c0-4.4-3.6-8-8-8
		H296.75z"/>
	<circle style="fill:#543127;" cx="328.75" cy="296" r="16"/>
</g>
<path style="fill:#3C663E;" d="M384.75,172h-24V64h-112c-6.6,0-12-5.4-12-12V24h-144v148h-24V12c0-6.6,5.4-12,12-12h168
	c6.6,0,12,5.4,12,12v28h112c6.6,0,12,5.4,12,12V172z"/>
<g>
	<rect x="52.75" y="160" style="fill:#543127;" width="348" height="16"/>
	<path style="fill:#543127;" d="M412.75,360h-20v-24h20c2.2,0,4-1.8,4-4v-72c0-2.2-1.8-4-4-4h-20v-24h20c15.4,0,28,12.6,28,28v72
		C440.75,347.4,428.15,360,412.75,360z"/>
</g>
</svg>