<?xml version="1.0" encoding="utf-8"?>
<!-- Uploaded to: SVG Repo, www.svgrepo.com, Generator: SVG Repo Mixer Tools -->
<svg width="800px" height="800px" viewBox="0 0 1024 1024" class="icon"  version="1.1" xmlns="http://www.w3.org/2000/svg"><path d="M600.6 842H232c-16.4 0-29.7-13.3-29.7-29.7V211.7c0-16.4 13.3-29.7 29.7-29.7h482.4c16.4 0 29.7 13.3 29.7 29.7v484L600.6 842z" fill="#68A240" /><path d="M602.9 847.5H232c-19.4 0-35.2-15.8-35.2-35.2V211.7c0-19.4 15.8-35.2 35.2-35.2h482.4c19.4 0 35.2 15.8 35.2 35.2V698L602.9 847.5zM232 187.5c-13.3 0-24.2 10.8-24.2 24.2v600.7c0 13.3 10.8 24.2 24.2 24.2h366.3l140.3-143V211.7c0-13.3-10.8-24.2-24.2-24.2H232z" fill="#333336" /><path d="M314.3 777.4h-51.1v-45.1c0-2.2 1.8-4 4-4s4 1.8 4 4v37.1h43.1c2.2 0 4 1.8 4 4s-1.8 4-4 4zM599.5 842h-11V690.2h155.6v11H599.5z" fill="#333336" /><path d="M168.5 360.5V709c0 6.1 5 11.1 11.1 11.1h348.5c10.9 0 16.4-13.2 8.7-20.9L189.4 351.8c-7.7-7.7-20.9-2.2-20.9 8.7z m75.1 155.7l131.1 131.1H243.6V516.2z" fill="#FFD632" /><path d="M528.1 725.6H179.6c-9.1 0-16.6-7.4-16.6-16.6V360.5c0-7.3 4.2-13.6 11-16.4 6.8-2.8 14.2-1.3 19.3 3.8l347.3 347.3c5.2 5.2 6.6 12.6 3.8 19.3-2.7 6.9-9 11.1-16.3 11.1zM180.9 353.7c-1.2 0-2.2 0.3-2.7 0.5-1 0.4-4.2 2.1-4.2 6.2V709c0 3.1 2.5 5.6 5.6 5.6h348.5c4.2 0 5.8-3.2 6.2-4.2 0.4-1 1.5-4.4-1.5-7.4L185.5 355.7c-1.5-1.5-3.2-2-4.6-2zM388 652.8H238.1V503L388 652.8z m-138.9-11h112.3L249.1 529.5v112.3z" fill="#333336" /><path d="M201.6 420.7h-30.5c-3 0-5.5-2.5-5.5-5.5s2.5-5.5 5.5-5.5h30.5c3 0 5.5 2.5 5.5 5.5s-2.4 5.5-5.5 5.5zM189.9 461.7h-18.8c-3 0-5.5-2.5-5.5-5.5s2.5-5.5 5.5-5.5h18.8c3 0 5.5 2.5 5.5 5.5s-2.5 5.5-5.5 5.5zM201.6 502.7h-30.5c-3 0-5.5-2.5-5.5-5.5s2.5-5.5 5.5-5.5h30.5c3 0 5.5 2.5 5.5 5.5s-2.4 5.5-5.5 5.5zM189.9 543.8h-18.8c-3 0-5.5-2.5-5.5-5.5s2.5-5.5 5.5-5.5h18.8c3 0 5.5 2.5 5.5 5.5s-2.5 5.5-5.5 5.5zM201.6 584.8h-30.5c-3 0-5.5-2.5-5.5-5.5s2.5-5.5 5.5-5.5h30.5c3 0 5.5 2.5 5.5 5.5s-2.4 5.5-5.5 5.5zM189.9 625.8h-18.8c-3 0-5.5-2.5-5.5-5.5s2.5-5.5 5.5-5.5h18.8c3 0 5.5 2.5 5.5 5.5s-2.5 5.5-5.5 5.5z" fill="#333336" /><path d="M201.6 666.9h-30.5c-3 0-5.5-2.5-5.5-5.5s2.5-5.5 5.5-5.5h30.5c3 0 5.5 2.5 5.5 5.5s-2.4 5.5-5.5 5.5z" fill="#333336" /><path d="M572.5 401.1c28 41.9 14.4 68.6 1.2 85.4-30.4 38.4-34.7 90.8 0 125.5s90.8 34.7 125.5 0c33.7-33.7 34.6-87.8 2.7-122.6L593 380.5l-20.5 20.6z m94.1 178.6c-16.7 16.7-43.8 16.7-60.5 0-16.7-16.7-16.7-43.8 0-60.5s43.8-16.7 60.5 0c16.8 16.6 16.8 43.7 0 60.5z" fill="#FFD632" /><path d="M636.4 643.4c-25.2 0-48.8-9.8-66.6-27.6-17.6-17.6-26.6-40.2-26-65.3 0.6-23.3 9.6-47.3 25.6-67.4 24.7-31.2 12.2-58.6-1.4-78.9l-2.5-3.8 27.7-27.7 112.9 112.9c34.1 37.3 32.9 94.5-2.9 130.2-18 17.8-41.6 27.6-66.8 27.6z m-56.9-241.6c30 48.2 6.4 78.1-1.5 88.1-30.8 39-31 87.6-0.4 118.2 15.7 15.7 36.6 24.4 58.9 24.4 22.2 0 43.1-8.7 58.9-24.4 31.6-31.6 32.7-82 2.6-114.9L593 388.3l-13.5 13.5z m56.9 195.9c-12.4 0-24.7-4.7-34.1-14.1-18.8-18.8-18.8-49.5 0-68.3 18.8-18.8 49.5-18.8 68.3 0 18.8 18.8 18.8 49.5 0 68.3-9.5 9.4-21.8 14.1-34.2 14.1z m0-85.6c-9.5 0-19.1 3.6-26.4 10.9-14.5 14.5-14.5 38.2 0 52.7s38.2 14.5 52.7 0 14.5-38.2 0-52.7c-7.2-7.3-16.8-10.9-26.3-10.9z" fill="#333336" /><path d="M598 375.5l108.8 108.8c34.8 31.9 88.9 31 122.6-2.7 34.7-34.7 34.7-90.8 0-125.5s-87-30.4-125.5 0c-16.7 13.2-43.5 26.8-85.4-1.2L598 375.5z m138.7 73.6c-16.7-16.7-16.7-43.8 0-60.5s43.8-16.7 60.5 0c16.7 16.7 16.7 43.8 0 60.5s-43.8 16.7-60.5 0z" fill="#FFD632" /><path d="M766.7 513.2c-22.7 0-45.5-8.2-63.6-24.8l-0.2-0.2-112.7-112.7 27.7-27.7 3.8 2.5c38.8 25.9 62.5 14.4 78.9 1.4 20.2-15.9 44.1-25 67.4-25.6 25.2-0.6 47.7 8.4 65.3 26 17.8 17.8 27.6 41.5 27.6 66.6 0 25.2-9.8 48.8-27.6 66.6-18.3 18.6-42.4 27.9-66.6 27.9z m-56-32.8c32.9 30.1 83.4 28.9 114.9-2.6 15.7-15.7 24.4-36.6 24.4-58.9 0-22.2-8.7-43.1-24.4-58.9-30.6-30.6-79.2-30.4-118.2 0.4-6.3 5-20.6 16.3-42.5 16.3-12.7 0-27.9-3.8-45.5-14.8l-13.6 13.6 104.9 104.9z m56.2-13.3c-12.4 0-24.7-4.7-34.2-14.1-18.8-18.8-18.8-49.5 0-68.3 18.8-18.8 49.5-18.8 68.3 0 18.8 18.8 18.8 49.5 0 68.3-9.3 9.4-21.7 14.1-34.1 14.1z m0-85.5c-9.6 0-19.1 3.6-26.4 10.9-14.5 14.5-14.5 38.2 0 52.7s38.2 14.5 52.7 0 14.5-38.2 0-52.7c-7.2-7.3-16.7-10.9-26.3-10.9z" fill="#333336" /><path d="M536.246493 378.736335a193 42.2 44.999 1 0 59.678771-59.680854 193 42.2 44.999 1 0-59.678771 59.680854Z" fill="#FFD632" /><path d="M693.1 494.1c-12.4 0-30.7-7.7-54.5-23-31.7-20.4-69.4-51.8-106.2-88.5-36.7-36.7-68.2-74.4-88.5-106.2-22.3-34.8-28.4-57.7-18.1-67.9 10.3-10.3 33.1-4.2 67.9 18.1 31.7 20.3 69.4 51.8 106.2 88.5 36.7 36.7 68.2 74.4 88.5 106.2 22.3 34.8 28.4 57.7 18.1 67.9-3.3 3.3-7.7 4.9-13.4 4.9z m-254-279.4c-2.6 0-4.5 0.5-5.6 1.7-2.4 2.4-2.2 8.5 0.5 16.8 3.1 9.8 9.8 22.8 19.2 37.4 19.9 31.1 50.8 68.1 87 104.3s73.2 67.1 104.3 87c14.7 9.4 27.6 16 37.4 19.2 8.3 2.6 14.4 2.8 16.8 0.5 2.4-2.4 2.2-8.5-0.5-16.8-3.1-9.8-9.8-22.8-19.2-37.4-19.9-31.1-50.8-68.1-87-104.3s-73.2-67.1-104.3-87c-14.7-9.4-27.6-16-37.4-19.2-4.4-1.5-8.2-2.2-11.2-2.2z" fill="#333336" /><path d="M560.791378 375.716354a21.5 21.5 0 1 0 30.405061-30.406122 21.5 21.5 0 1 0-30.405061 30.406122Z" fill="#68A240" /><path d="M576 387.5c-7.2 0-14-2.8-19.1-7.9-10.5-10.5-10.5-27.6 0-38.1s27.6-10.5 38.1 0c5.1 5.1 7.9 11.9 7.9 19.1 0 7.2-2.8 14-7.9 19.1-5 5-11.8 7.8-19 7.8z m0-43c-4.1 0-8.2 1.6-11.3 4.7-6.2 6.2-6.2 16.4 0 22.6 3 3 7 4.7 11.3 4.7 4.3 0 8.3-1.7 11.3-4.7s4.7-7 4.7-11.3c0-4.3-1.7-8.3-4.7-11.3-3.1-3.1-7.2-4.7-11.3-4.7z" fill="#333336" /><path d="M267.2 297.6c-2.2 0-4-1.8-4-4v-45.1h51.1c2.2 0 4 1.8 4 4s-1.8 4-4 4h-43.1v37.1c0 2.2-1.8 4-4 4zM680.4 297.6c-2.2 0-4-1.8-4-4v-37.1h-43.1c-2.2 0-4-1.8-4-4s1.8-4 4-4h51.1v45.1c0 2.2-1.8 4-4 4z" fill="#333336" /></svg>